/* XPM */
static char *result[] = {
/* columns rows colors chars-per-pixel */
"64 64 183 2 ",
"   c #171628",
".  c #191729",
"X  c #171B28",
"o  c #1C1B2B",
"O  c #231C2B",
"+  c #2C1E2A",
"@  c #281F30",
"#  c #1E222E",
"$  c #1E2530",
"%  c #1F2E38",
"&  c #2E202E",
"*  c #33242D",
"=  c #38252C",
"-  c #3C2A2E",
";  c #24372F",
":  c #242334",
">  c #2C2334",
",  c #242E39",
"<  c #342434",
"1  c #372737",
"2  c #3C2A3A",
"3  c #26383C",
"4  c #442D2F",
"5  c #492E36",
"6  c #442B3B",
"7  c #473332",
"8  c #4B303A",
"9  c #573936",
"0  c #54343B",
"q  c #623B3B",
"w  c #673F38",
"e  c #29402D",
"r  c #355939",
"t  c #3A6034",
"y  c #6B463B",
"u  c #71463D",
"i  c #75493D",
"p  c #273C41",
"a  c #2D3A42",
"s  c #2E3648",
"d  c #373E41",
"f  c #323A54",
"g  c #2C4246",
"h  c #2E484A",
"j  c #384447",
"k  c #30464A",
"l  c #3A4648",
"z  c #304B4C",
"x  c #2F5243",
"c  c #335647",
"v  c #354957",
"b  c #2F505E",
"n  c #335654",
"m  c #345A54",
"M  c #355B5B",
"N  c #38585A",
"B  c #3D664B",
"V  c #366154",
"C  c #3A6353",
"Z  c #3B6B53",
"A  c #3D7452",
"S  c #3E7952",
"D  c #3E4A67",
"F  c #355764",
"G  c #376162",
"H  c #3A6767",
"J  c #3A696E",
"K  c #3C6E73",
"L  c #3D6C7C",
"P  c #3E7377",
"I  c #3E737B",
"U  c #424F4F",
"Y  c #57534D",
"T  c #415050",
"R  c #485757",
"E  c #465A59",
"W  c #4B5D5B",
"Q  c #754E43",
"!  c #406D5F",
"~  c #447352",
"^  c #447B51",
"/  c #497C50",
"(  c #414E6D",
")  c #415668",
"_  c #595960",
"`  c #506A64",
"'  c #457865",
"]  c #416979",
"[  c #407B72",
"{  c #616D66",
"}  c #60726D",
"|  c #6C7D7E",
" . c #855743",
".. c #8B5C45",
"X. c #935F46",
"o. c #8B6149",
"O. c #98654A",
"+. c #976C51",
"@. c #A16D4E",
"#. c #A87554",
"$. c #9E7F67",
"%. c #4C844E",
"&. c #4D8B4F",
"*. c #528D4E",
"=. c #579748",
"-. c #54924D",
";. c #5B9C4B",
":. c #478351",
">. c #4B8252",
",. c #4A8850",
"<. c #508C5B",
"1. c #56965A",
"2. c #5EA14A",
"3. c #63A847",
"4. c #61A54A",
"5. c #63A849",
"6. c #61A758",
"7. c #4B8468",
"8. c #599C64",
"9. c #488577",
"0. c #578E73",
"q. c #708679",
"w. c #5EA573",
"e. c #5EA67A",
"r. c #61A764",
"t. c #60A76E",
"y. c #70A563",
"u. c #BE895F",
"i. c #B58A6B",
"p. c #86B47C",
"a. c #C48E62",
"s. c #CA9264",
"d. c #D69E6C",
"f. c #D8A070",
"g. c #3F7782",
"h. c #436F81",
"j. c #566F83",
"k. c #427480",
"l. c #417A83",
"z. c #437F89",
"x. c #478985",
"c. c #45828C",
"v. c #488A8D",
"b. c #468491",
"n. c #478895",
"m. c #488997",
"M. c #4A8D9C",
"N. c #4B909E",
"B. c #559B91",
"V. c #788884",
"C. c #7A9087",
"Z. c #7C948A",
"A. c #5CA483",
"S. c #5BA591",
"D. c #59A49C",
"F. c #4C92A2",
"G. c #4F99A9",
"H. c #519CA5",
"J. c #519CAD",
"K. c #519EB0",
"L. c #57A3A4",
"P. c #53A2B5",
"I. c #8B9699",
"U. c #95B789",
"Y. c #8FA99D",
"T. c #91AB9F",
"R. c #9EBC9F",
"E. c #97A1A2",
"W. c #A1ADA5",
"Q. c #ABB1B6",
"!. c #DDAB80",
"~. c #DCB391",
"^. c #E2B38A",
"/. c #A3C397",
"(. c #AACEBF",
"). c #B3C4B1",
"_. c #EBC19B",
"`. c #B8BFC5",
"'. c #ADD2C3",
"]. c #BEE1CF",
"[. c #C1E1CF",
"{. c #C5E6D3",
"}. c #DFE7D8",
/* pixels */
"                                                                                                                                ",
"                                                                                              X                                 ",
"                                                                                      X       X                         }       ",
"                                                                                  X o % F g F g.g.g.x % X             } ].j     ",
"                                                                                $ g z n m ~ ^ ;.;.;.5.;.=.t             l       ",
"                }                                                             x m M n V -.-.A ,.=.-.=.-.2.2.=.e                 ",
"              } ].j                                                     X ; c c a z ;.4.=.Z Z V n W.}.E.Z :.-.%.r X             ",
"                l                                                       $ c z n a z -.=.S m m V n I.W.q.n n ` q.C W             ",
"                                          d Y.Z.:                       p D ( v k n ;.5.:.Z m C n n m m n n n n m }._           ",
"                                          T.{.'.R                     s n ! N n n n C Z Z m n n n n N z n n n C C ).E X         ",
"                                          C.[.(.l X                 o k ~ ^ ~ m m N ` I.| n n N n n n a Z ~ m n B 2.;.r         ",
"                                          : W U o X               X , v Z A m H [ j.`.Q.n n n Z C n m z C >.n n m 4.2.C o       ",
"                                                                  o a ' ' k.z.J.P.H.0.N n n n C m n V n n *.:.*.;.5.4.,.p       ",
"                                                                  # h.J.n.M.P.x.K.n.v.z.N n n n n n m ^ ;.;.-.4.5.5.5.;.x       ",
"                                                                  f ' 8.c.F.b.P.K 8.*.[ N.V m n n N ~ 5.5.5.5.5.6.r.w.w.m       ",
"                                                                  f B &.J.J.G.P.l.[ m m.P.] n m n m m 2.5.w.e.e.L.D.S.x.V.      ",
"                                                                  s V V n.M.N.z.P.P.c.F.P.K n m n n m 6.A.P.P.P.D.5.3.<.m       ",
"                                                                  v n n m K ] M.L P.l.K F.I n k z m *.D.P.P.P.P.A.5.2.H.A.      ",
"                                                                  p z n N n n N ( c.K m J F.n k k G e.L.S.S.e.e.6.5.2.c.:.      ",
"                                  }                               F v n n n k D D b.G J J F.n n G G.e.4.5.5.5.5.5.2.-.m =.      ",
"                                } ].j                             , k n z k d s v F K.M.K l.c.c.n.B.t.5.5.5.5.5.2.Z C 7.9.      ",
"                                  l                               X a n n a p a s K L / -.-.-.Z ~ 2.5.5.5.5.2.2.A m B 1.H X     ",
"                                                                  . a h k n n n z z N -.5.5.5.5.5.5.5.5.5.;.*.^ V n / 1.r       ",
"                                                                    $ h k n n m m ~ %.3.5.5.p.5.5.5.5.5.-.S A m Z C y.I.X       ",
"          d Y.Z.#                                                     a h.7.*.;./ 2.5.5.5.5.5.5.2.;.2.:.Z m n Z 4.5.U.;         ",
"          T.{.'.R                                                     o L 0.5.e.r.4.5.5.2.;.2.5.5.;.-.n n n C %.6./.{           ",
"          C.[.(.T                                     }                 : ] 9.9.1.,.:.:.:.S &.:.-.,.Z n n / 2.3.R.{             ",
"          # W U o                                   } ].j                 , N M.P V n m n n Z Z n n n n n C.A.' ) #             ",
"                                                      l                     X a n.L n m n n n n n n n n n F M 3                 ",
"                                                                              o p L ] I F G g.9.G n n n n h ,                   ",
"                                                                                  X b L x.,.G.P.G.N.J L $                       ",
"                                                                                              X X                               ",
"                                                                                                                                ",
"                                                                                                                                ",
"                                                X O o                                                                           ",
"                                            O @ > : O                                                         }                 ",
"            }                           . O 2 < > : o                                                       } ].j               ",
"          } ].j                     . O < < < < > #                     }                                     l                 ",
"            j               4 + O   @ 1 & . o > O                     } ].j                                                     ",
"                        o... .0 2 6 6 .     < #                         l                                                       ",
"                      +.i.s.u.u. .8 6 .   & < .                                                                                 ",
"                    $.~._.~.d.d.a...0 6 @ < O .                                                                                 ",
"                    ~.^.~.f.s.#.Q w q 0 2                                                                                       ",
"                X 9 !.d.a.a.#. .0 6 6 6 @                                                                                       ",
"                X Y #.s.@.Q 0 6 6 6 6 < @ .                                           d T.Z.#                                   ",
"                X 7 i.a.d.i.X. .q 6 6 1 @ .                                           T.{.'.R                                   ",
"                < ..o.#.q 0 q 0 5 < 1 s .                                             C.[.(.U                                   ",
"              o o.9 9 #.@.w q 8 6 6 6 < .                                             # W U o                                   ",
"        X   4  .u X . y O.i #...w 0 < .                                                                                         ",
"        X * O.o..   9 y 9 - 4 7 < O . .                                                                                         ",
"        .  .O.4 4 u i =     O                                                                                                   ",
"        = X.@...i w O                                                                                                           ",
"      O ....O.i 9                                                                                                               ",
"      9 @.9 4 O                                                     }                                                           ",
"        =                         d T.Z.#                         } ].j                                       }                 ",
"                                  T.{.'.R                           l                                       } ].j               ",
"                                  C.[.(.T                                                                     l                 ",
"                                  # W U o                                                                                       ",
"                                                                                                                                ",
"                                                                                        }                                       ",
"                                                                                      } ].j                                     ",
"                                                                                        l                                       ",
"                                                                                                                                ",
"                                                                                                                                "
};
