/* XPM */
static char *_e9374aa188b44b4bb0176b27ff7a568tzqwFwsjQF5YdbvJ[] = {
/* columns rows colors chars-per-pixel */
"64 64 256 2 ",
"   c #160A02",
".  c #031A06",
"X  c #101406",
"o  c #27180A",
"O  c #2E130D",
"+  c #032B0C",
"@  c #0B2B0E",
"#  c #05250A",
"$  c #18290C",
"%  c #06360E",
"&  c #173A0B",
"*  c #0C3411",
"=  c #053A13",
"-  c #0C3C12",
";  c #043714",
":  c #163A14",
">  c #092B13",
",  c #29290D",
"<  c #382813",
"1  c #383818",
"2  c #2C310F",
"3  c #123F27",
"4  c #452917",
"5  c #463519",
"6  c #55371C",
"7  c #572D1D",
"8  c #563922",
"9  c #6A3B23",
"0  c #471D17",
"q  c #05470C",
"w  c #054313",
"e  c #0B4315",
"r  c #084A1A",
"t  c #154519",
"y  c #144B1B",
"u  c #164717",
"i  c #09531A",
"p  c #14531B",
"a  c #1A541D",
"s  c #1A5B1E",
"d  c #145718",
"f  c #144F08",
"g  c #264816",
"h  c #364716",
"j  c #385816",
"k  c #295211",
"l  c #197806",
"z  c #19661A",
"x  c #106C0E",
"c  c #27690C",
"v  c #296914",
"b  c #3C6712",
"n  c #2F7713",
"m  c #054A22",
"M  c #0C5C23",
"N  c #055727",
"B  c #1C5C22",
"V  c #185724",
"C  c #1F4A23",
"Z  c #265925",
"A  c #2A5526",
"S  c #0A642D",
"D  c #08652C",
"F  c #1D6223",
"G  c #166729",
"H  c #0B6B33",
"J  c #076831",
"K  c #0A773A",
"L  c #157C3B",
"P  c #187936",
"I  c #1A702E",
"U  c #236B26",
"Y  c #236D2A",
"T  c #266626",
"R  c #2A772A",
"E  c #337A29",
"W  c #267A33",
"Q  c #367935",
"!  c #306630",
"~  c #494619",
"^  c #5A451E",
"/  c #44591A",
"(  c #57561D",
")  c #64481F",
"_  c #426C15",
"`  c #476A1A",
"'  c #4C7C15",
"]  c #487517",
"[  c #517B1B",
"{  c #556D1E",
"}  c #5B4623",
"|  c #585627",
" . c #4A4D24",
".. c #684B24",
"X. c #6A5729",
"o. c #745529",
"O. c #785937",
"+. c #6F4C2C",
"@. c #576725",
"#. c #507326",
"$. c #737837",
"%. c #716A34",
"&. c #0A7F40",
"*. c #876F3A",
"=. c #805C34",
"-. c #886A47",
";. c #877746",
":. c #98784B",
">. c #99754E",
",. c #A6774A",
"<. c #A87954",
"1. c #A97453",
"2. c #AD7B62",
"3. c #048802",
"4. c #009501",
"5. c #009B00",
"6. c #178E0E",
"7. c #23830D",
"8. c #2C8F17",
"9. c #07A606",
"0. c #06B506",
"q. c #17B20E",
"w. c #2EAB15",
"e. c #1A833C",
"r. c #2C842B",
"t. c #37862C",
"y. c #38972C",
"u. c #23853A",
"i. c #258B3D",
"p. c #2B8B3B",
"a. c #2A8535",
"s. c #348A34",
"d. c #378838",
"f. c #2B943B",
"g. c #34933C",
"h. c #3C943A",
"j. c #3A9739",
"k. c #2F962A",
"l. c #34AB2A",
"z. c #0EA021",
"x. c #55861A",
"c. c #4C8C18",
"v. c #598426",
"b. c #44932E",
"n. c #458C37",
"m. c #439D3D",
"M. c #479838",
"N. c #539C3C",
"B. c #4F8732",
"V. c #638A28",
"C. c #679627",
"Z. c #658632",
"A. c #788739",
"S. c #779736",
"D. c #49A639",
"F. c #57A73A",
"G. c #4BB133",
"H. c #57B436",
"J. c #50B12D",
"K. c #64A83A",
"L. c #68B93B",
"P. c #75AC32",
"I. c #61911E",
"U. c #05CA04",
"Y. c #14C809",
"T. c #07D705",
"R. c #18DC0B",
"E. c #18C615",
"W. c #2ACC16",
"Q. c #04E703",
"!. c #03F402",
"~. c #00FF00",
"^. c #0BF905",
"/. c #12EE09",
"(. c #27F315",
"). c #37DA26",
"_. c #55D134",
"`. c #70C435",
"'. c #51F22E",
"]. c #52EF26",
"[. c #1B8642",
"{. c #278D43",
"}. c #398C44",
"|. c #2D9442",
" X c #369843",
".X c #3CA147",
"XX c #479945",
"oX c #4C9448",
"OX c #4BA546",
"+X c #57A847",
"@X c #59AD4B",
"#X c #65AA47",
"$X c #66B447",
"%X c #75B948",
"&X c #77B754",
"*X c #6EAE4E",
"=X c #7A8B42",
"-X c #7AC94B",
";X c #7AF044",
":X c #85AE3A",
">X c #818E3B",
",X c #87C83B",
"<X c #AADF2E",
"1X c #94864C",
"2X c #978852",
"3X c #8F944B",
"4X c #A78759",
"5X c #B7895A",
"6X c #A7915B",
"7X c #85BC58",
"8X c #91B24F",
"9X c #A8A95C",
"0X c #B58D66",
"qX c #B69869",
"wX c #B38F68",
"eX c #B7B76A",
"rX c #B5AE6B",
"tX c #8DB663",
"yX c #C2905F",
"uX c #C99869",
"iX c #C79A75",
"pX c #D0966D",
"aX c #D8A97C",
"sX c #C7B877",
"dX c #CAAB76",
"fX c #E5AA7E",
"gX c #89C448",
"hX c #96C746",
"jX c #89C559",
"kX c #96CE53",
"lX c #ADD04F",
"zX c #8DEA4D",
"xX c #96C663",
"cX c #9BD265",
"vX c #A8D56C",
"bX c #B4D16E",
"nX c #B0EB63",
"mX c #CAE47B",
"MX c #CED16E",
"NX c #D8B688",
"BX c #D7B18A",
"VX c #E6B88B",
"CX c #E7BC92",
"ZX c #F1B48D",
"AX c #FFBAA7",
"SX c #D9C889",
"DX c #D8D388",
"FX c #E8C498",
"GX c #F6C69A",
"HX c #E9CA8E",
"JX c #FCCBA3",
"KX c #FBD4A7",
"LX c #FEDBB1",
"PX c #E8CBA5",
"IX c #FDE3B2",
"UX c #E3D599",
/* pixels */
"~.~.~.~.~.~.~.~.~.~.~.~.~.~.~.~.~.~.~.~.~.~.~.~.~.~.R.l.'.'.nX(.~.~.~.~.~.~.~.~.~.~.~.~.~.~.~.~.~.~.~.~.~.~.~.~.~.~.~.~.~.~.~.~.",
"~.~.~.~.~.~.~.~.~.~.~.~.~.~.~.~.~.~.~.~.~.~.~.~.~.T.w.M.&XcXvXzX;XnX^.~.~.~.~.~.~.~.~.~.~.~.~.~.~.~.~.~.~.~.~.~.~.~.~.~.~.~.~.~.",
"~.~.~.~.~.~.~.~.~.~.~.~.~.~.~.~.~.~.~.~.~.~.~.~.~.8.n.G.@X-XcXbXmXUX'.~.~.~.~.~.~.~.~.~.~.~.~.~.~.~.~.~.~.~.~.~.~.~.~.~.~.~.~.~.",
"~.~.~.~.~.~.~.~.~.~.~.~.~.~.~.~.~.~.~.~.~.~.~.~.~.q.t.D.L.-XjXvXbXDX'.U.r.w.Q.~.~.~.~.~.~.~.~.~.~.~.~.~.~.~.~.~.~.~.~.~.~.~.~.~.",
"~.~.~.~.~.~.~.~.~.~.~.~.~.~.~.~.~.~.~.~.!.Q.!.~.T.R t.M.L.,XjXxXvXmXnXl.T E T T.~.~.~.~.~.~.~.~.~.~.~.~.~.~.~.~.~.~.~.~.~.~.~.~.",
"~.~.~.~.~.~.~.~.~.~.~.~.~.~.~.~.~.~.~.0.U Y r.l.U R y.D.F.$X%X7XxXbXmXbX*Xr.R Y.q.R.~.~.~.~.~.~.~.~.~.~.~.~.~.~.~.~.~.~.~.~.~.~.",
"~.~.~.~.~.~.~.~.~.~.~.~.~.~.~.~.~.~.Q.a Z r.m.n.E U t.D.D.F.#X%XjXcXvXcX*Xr.s.b.Q k.!.~.~.~.~.~.~.~.~.~.~.~.~.~.~.~.~.~.~.~.~.~.",
"~.~.~.~.~.~.~.~.~.~.~.~.~.~.~.~.~.~.9.t F s.a.M M G U t.t.b.N.$X&X&XjXjX%XM.M.K.M.d.E.~.).(.~.~.~.~.~.~.~.~.~.~.~.~.~.~.~.~.~.~.",
"~.~.~.~.~.~.~.~.~.~.~.~.~.~.~.~.~.~.d : s U Y i D N i R R E t.N.F.N.#X#X%X#Xg.i.M.N.l.G.+X7X(.~.~.~.~.~.~.~.~.~.~.~.~.~.~.~.~.~.",
"~.~.~.~.~.~.~.~.~.~.~.~.~.~.~.~.!.~.0.t y i M M D J H t.d.s.E y.H.L.K.M.D.M.i.i.M.N.G.D.@X8X].~.~.~.~.~.~.~.~.~.~.~.~.~.~.~.~.~.",
"~.~.~.~.~.~.~.~.~.~.~.~.~.~.~.8.R 8.7.: - r N D S J e.N.h.M.y.l.+XgX:Xt.F.s.u.i.e.p.H.`.#X7XkXlX(.~.~.~.~.~.~.~.~.~.~.~.~.~.~.~.",
"~.~.~.~.~.~.~.~.~.~.~.~.~.Q.E.R E E T u t r N J J K L L e.F.D.G.+X&XgXlXbXM.L e.j.L.p.L.$X&XxXbXzX~.~.~.~.~.~.~.~.~.~.~.~.~.~.~.",
"~.~.~.~.~.~.~.~.~.~.~.~.~.z.! R E s.E s E F N J J K K K e.i.M.H.L.*X&XxXbXxXl.G.L.gXF.m.`.&X7XxXkX~.~.~.~.~.~.~.~.~.~.~.~.~.~.^.",
"(.^.~.~.~.~.~.~.~.~.~.~.T.T U R R r.s.F.M.p r N D J K [.[.K L j.H.%X&X7XxXxX%X+XL.$XgXK.%X+X@XxXjX).~.~.~.~.~.~.~.~.~.!.l._.zX'.",
"mXzX~.~.~.~.~.~.~.~.~.~.T.s U W R a.g.F.a.= N D J J H [.}.L K H h.L.%XOX&X7XxX*XF.$X#XgXlX7X X#X7XtX).~.~.~.~.~.~.~.!.8.M.*XcXvX",
"DXnXU.8.Y.~.~.~.~.~.~.~.~.6.F W W p.p.i.P w r D D D J J [.[.K K L h.g.p.XX,X%XXXh. XXX*X&XhXs.g.OXOXh.!.~.~.~.~.~.~.~.r.M.`.gXcX",
"vXmX-XQ ! Y.~.~.~.~.~.~.6.y F I I W i.i.G = r N r N D D J K H K s.h.k.J.H.`.7XN.P e. X+X#XgX,Xm.f.d.w.~.~.~.~.U.q.Q.q.E M.L.gXjX",
"xXvXbX+Xr.k.r./.~.~.T.z V i G I I I P [.M = r i G r i M D D J K a.n.J.D.+XL.&X7Xb.d.e.i.f. X*X`.g.P z.~.~.~.9.C Q n.E E M.D.#X*X",
"*X&XjX#Xh.N.n.l./.(.6.C V w M H I I P e.M w r P p.G w r i i N K K L p.m.OX$X@X*XhXlXN.L i.g.XX`.<X,XL.`.(.!.d B s.I M F t.t.b.#X",
"F.K.F.$Xj.i.F.D.D.&XB.V p d M M i S H S N H P }.OXa.i F R z N K e.XXXXi.g.|.|.+X*XjXK.K e.g.j.L.<X,X`.P.`.W.p a F M N N Y t.R y.",
"$X:Xb.b.u.e.i.G.D.F d z n 8.r = w r N m J L {. XOXXXW @X@Xr.H N.hXlXMXD.p.u.u.XX+X$XgXK.P r.t.`.`.L.L.$X*X#Xv - r N D H h.M.h.y.",
"@X7XlXxXu.e.F.Q V e e e s n z = e w r N J L e.{. XOX+X@X*Xr.m.`.%X&XlXhXlX#XP u.i.f.OX%XP.E t.K.`.,XhX%XK.#XZ t i D J K L i.D.G.",
"L.&XxXbX%XH.%XC A A Z B p F z e p y ; N J K L u.i. XOXOXOXs.j.D.@X$XgXgX,X%Xu.P i.p. X+XH.E L.-XgXgXgX%X%Xb.t.n.V N J K L e.e.D.",
"D.%X@X&XjX#XF.Z A t R b.t.E E F d e ; m N N H P P {. X X.XOXD.g.D.OX+X+X+XH.g.S L e.j.D.s.b.#XF.F.F.N.N.@XF.F.d.r N D J L {.K L ",
"i.g.g.H.gXm.a.Z y R Q Q d.n.d.XXY r ; ; m N N S W W P  X X.Xj.s.h.h.j.j.m.e.a.G D e.e.f.p.h.M.b.b.b.b.b.oXoX+XW w N D D J L L H ",
"d.M.G.L.%XK.W d.Q T V y V F U U Y s - y F I G R #X*Xd.P {.{.|.p.s.h.g.P P S M N G i.u.e.[.W Y G R t.t.d.+XoX}.G = r i N M D J K ",
"K e.j.D.@X&X*X! ! V = e p s a % y p p T R h.h.M.*X&X*X+XM.a.P L P a.a.H B R n.s.a.s.d.s.u.G p.a.U E K.hXlXlXp.M = G a.i r i N J ",
"OX7Xg.e.i.+X#X! ! B q q d d % a N.E u B E m.m.D.+X+X$XL.OXH.k.H H H H G Q d.XX@XF.F.F.oXXX}.@X@XI M.,XgXjXlXP.8XXXp.OXY U r.S H ",
"gXlXhX*Xu.f. XT V i q = q d e a n.a e B U s.h.s.s.m.m.D.G.y.s i p B G F Q W W d.XX$X@Xn.+Xn.|.XXI XXL.$X%XhXhXhX%X|. XXX@X$Xr.K.",
"+X%XgXhXXXK V = q q q = w e e a E B t a a U s.h.r.R j.h.J.u @ t p U U U U Y Y W W }.@XD.XXp.{.|.g.g.g.D.+X$X$X$XL.g.u.OXOXOXj.D.",
"m.OXOXD.j.V + q q w w = = = z U U U u - y a T R a.U a.y.v . X 6 u B B p F Y Y R W R oXM.I P [.{. Xf.d.m.m.D.D.D.g.g.L e. X.XD.g.",
"h.h.p.P G : % = = = = = = % z F F a * e y a a a T B W B.X . , 6 $ - 2 - B Y R R R d.oXOXG N L [.{.f.p.h.h.s.p.p.P P K d.u.{.|.g.",
"P a.H Y ! + + + % % = = = - p p p - * t t y a a a a s %.5 # 1 6 2 < 2 % - s Q oXXXXXoX+XQ m N H K L L P s.s.I W h.h.+X&X+Xh.p.L ",
"M S G d.R % Z n.y : % = + % % + + + @ * * - - e t t - h o.& h 6 6 6 : y & e Y }.oX! ! ! * m N N N J K H K L G R j.h.m.OXH.H.b.S ",
"B U U Y R R h.@XOXQ + + - + + + @ + * y - : * . # * e w | } 6 ..^ 5 < O < , g s $ X & i i r r N m r M y Y G p s R h.r.s.h.J.- e ",
"t a a U Y R Y XXh.H r V f.Y . . # * p P a B V - = w i i j =.+.o.) 4 < E M.M.h.W w M M H V = w e = % - z U Z - y a U R U y.d . 5 ",
", 2 * s R d.d.oXOXG H [.[.i.F - T Z w A , & : s Y I I }.oXO.o.o.^ 1 d.D.p.W M H r y B T - + % % = = e s B e - y a a s F #., # 6 ",
"6 1 - * T }.Q ! ! r N N J K P e.! ..+ 6 5 5 % = F oXoXoXoXo.o...6 A L u.I - u a u T t.Q - Z Z - = + = - * @ * * - e t e h } & 6 ",
"^ < 2 2 $ e $ - e = - m * > > m w  .~ } } 5 2 , $ B : @ - ..o...6 t r N m * A Z * a R R R d.b.E + % @ # # + t Z g @ # - w  .....",
"7 c 6.M F B.Y + # ; Y Q @ j : w i A O.o.) < , < < o $ E B  .o...5 @ @ @ + - u y * * u T T Z E u X : t # * t a Z Q T i M G ! O.o.",
"~ q.W M L M.Z T p m P  X X$XM.N a.b.O.o.6 : s 5 < 2 s.s.a.@.o...< # # @ # - t e @ * : - t a A . o < @ $ e V Z V ! T m V G T o.o.",
"h 7.N P s.N.B s T s d.+Xg.P W d.g.p.X.o.6 @ p 1 O j a y a.%.+.) < @ # + # @ @ # # @ @ * * * 5 $ $ < , @ # : ! A Z A > ; m 3 X...",
"1 B s d.j.F w q T a R j.v t F d.XX{.@.+.~ x w 2 < : ~ < a X.+.^ < * # . # . . . @ @ @ . . # @ 5 < 5 < o $ & u X $ p 3.i r 6.X...",
"g w t T h $ - % * e e : 1 5 : ! Q D | +.h ~.Q.h O 0.v.7.U.X...6 k 0.x e +., . # :  .1 : * - i j 6 5 , 9.!.!.| 6.T.!.~.Q.Q.^.X...",
"6.Q.U.Q.t.w.Q.U.4.Q.T.9.[ ( T.Q.T.Q.@.9 k ~.!.h O U.[ T./.o...6 c ~.~.T.%.^ T.U.9.X.b Q.E. .Q.w.7 4 c ~.~.^...q.~.~.~.~.~.R.+.) ",
"6.~.~.~.w.Y.~.~.~.~.~.~.c.n ~.~.~.!.X.9 k ~.Q.1 O U.{ Q.R.+...7 c ~.~.~.@.( ~.~.~.{ w.~.R.^ ~.q.7 4 c ~.~.~.~ q.~.~.~.~.~.R.+.} ",
"q.~.~.~.8.Y.~.~.~.~.Q.~.c.8.~.R.~.R.+.9 v ~.Q.< O T._ T.R.+...7 c ~.~.~.X.j ~.~.~.@.q.~./.~ !.Y.7 < l ~.~.~./ 6.~.~.~.~.~.W.+.^ ",
"0._.J.~.8.w.3XY.!./.6Xq.` 6.(.iXq.Y...=.1XU.Q.h 1.q.b U.(.2.^ 0 l _.F.Q.+.b J.R.!.( w.W.!.~ T.J.7 O l ~.l.Q.^ l _.T.~.~.(.1X^ 6 ",
"8.SX0Xl h ;.fX#.U._.ZXZ.k 6.zXAXZ.9.} 5XfX] U.=XZX$.< 3.-XGXO.O c DXiX6.^ X.aXv.U.j 0X6X7.4 8.HXO.  l ).pX| 4 ~ fXv.U.~.-XAX} < ",
"%.GXBXc 0.sXZX$.9.eXZX3Xk c bXJX2X4.} aXVX$.9.eXZX>.& d dXJX<.  } GXVXE 2 <.HX:.5.#.VXaX8 o -.KXwX  2 6XZX-.& ;.GX>.x Q.bXJX>.o ",
"-.GXaX6.0.SXZX$.5.eXAX1Xg g eXGX2X4.| VXCXA.5.eXGX1X4.T.sXGX4X  +.GXZXt.2 iXGX6X3.%.GXaX` 3.8XGXiXo & bXZX2X4.tXGX4X3.U.eXJX<.o ",
"-.GXaX6.q.SXGX$.5.eXJX>.< < dXGX1X5.@.CXFXZ.5.sXJX1X4.U.sXGX<.  +.GXVX8.k iXGX4X& O.GXBX` 0.8XGXqXo , sXGX2X4.8XJX4X3.U.eXJX4Xo ",
">.JXiX3.q.FXGXZ.3.dXKX:.q x dXJX;.5.#.GXGXZ.x iXKX1X4.T.sXJX>.  +.JXVXn 2 iXJX4Xq B.JXVXj 4.8XJXqX  o dXKX2X5.tXKXwX3.U.eXKX4Xo ",
">.KXdX` Z.GXKX;.@.dXJX4X` Z.aXKX2X` ;.JXKX*.} iXKX4Xj v.aXKX>.< -.JXVX| 8 BXLX4Xl K.GXCX#.6.9XKXqX< < BXIX4Xl 9XJXqXv 8.rXKX4Xo ",
"<.KXaX,.aXFXPX5XyXaXFXuX1.BXVXPXyX1.aXFXPX5X5XaXFXuX,.pXVXPXyX,.aXFXNX<.iXCXPXuX,.pXNXFX,.2.aXPXaX:.uXCXKXuX<.aXFXBX*.pXNXKX4Xo ",
"4XFXaX<.aXCXCX5XuXNXNXuX5XFXNXFXyX5XFXNXCX5XiXNXBXyX<.CXVXPXuX5XVXFXCX5XVXNXFXuX0XCXBXVX<.BXVXCXaX,.VXsXSXuXyXVXBXaX,.VXVXCXwXo ",
"0XLXaXO.4XVXJX:.A.CXVX:.%.1XVXLX4XO.4XVXJX:.1XHXVX:.A.9XVXLX5XO.0XLXFX*.1XaXKX5X$.rXGXpX*.6XaXLXaX*.A.sXKX5XA.NXHX5XO.4XaXIXwXo ",
"0XLXqXg | VXGXv.5.SXCX%.q h NXKX-.o 8 CXGX..% SXGX%.3.6.NXKX-.  O.IXCX7.5.rXGX2X3.#XKXuXn 4.9XLX9X2 f dXJX2Xx rXJX,.2 & qXIXwX, ",
"qXLXqX$ | HXGX%.n FXJX*.g ~ NXDX-.& %.FXGX%.2 NXHX*.& @.VXKX;.2 -.KXNX7.9.dXGX3X3.3XLXaX7.0.rXMX>X  , NXKX2X2 qXLX4X$ 2 rXKXwX~ ",
"9XKX9Xv ` eXHX%.` eXSX%.$ h sXlX%.g @.eXMX;.` sXlX$.h X.9XeXA./ *.DXeXn n rXSX=Xl 3XSX9Xk c A.hXA.o 1 3XMX3X@ 3XUX3Xf f :XDXqXv ",
":X9XS.c.c.9XbX#.c.P.8X$.c n P.:X[ n n 9X9X$.C.8XP.v.` / S.3XS._ Z.hX:Xk / S.9XA.j C.8X>Xh / V.:XV.h h A.8Xx.g P.8XV.n 8.P.9XS.7.",
"P.P.[ [ x.3X8Xx.] S.C.[ v _ C.V.] b ` :XS.#.x.C.C.[ C.` S.V.C.[ C.P.v./ _ C.C.S.` C.C.V.` ] v.C.[ j j C.S.` ` P.C.v.b v V.C.C.l ",
"c.I.[ _ ' _ V.x.] x.` _ _ b ] ` [ ' [ ' ] _ x.x.x._ x._ ] ] ' x.x.x.' b [ [ x.x.j [ _ x.[ ] x.' b ] ` x.x.] x.I.[ ` j _ ' x.[ 6.",
"c.x.x._ ' j _ x.] ' _ j ] b ] b ' x.b _ _ ] x.' _ b _ b j ' _ ' c.x.x._ _ _ ' ' _ ] b ' j _ ' b _ [ b ' ] ' x.x._ j _ ' _ x.b l "
};
