/* XPM */
static char * W_WH_NO_xpm[] = {
"128 128 10 1",
" 	c #7E7070",
".	c #C5C5C5",
"+	c #C3C3C3",
"@	c #D4D4D4",
"#	c #C3C2C2",
"$	c #AFAEAE",
"%	c #B2B1B1",
"&	c #000000",
"*	c #452B2A",
"=	c #371C1C",
"                                                                                                                                ",
".+++++++++++++++++++++++++++++++++++++++++++++++++++++++++++++++++++++++++++++++++++++++++++++++++++++++++++++++++++++++++++++++",
".+++++++++++++++++++++++++++++++++++++++++++++++++++++++++++++++++++++++++++++++++++++++++++++++++++++++++++++++++++++++++++++++",
".+++++++++++++++++++++++++++++++++++++++++++++++++++++++++++++++++++++++++++++++++++++++++++++++++++++++++++++++++++++++++++++++",
".+++++++++++++++++++++++++++++++++++++++++++++++++++++++++++++++++++++++++++++++++++++++++++++++++++++++++++++++++++++++++++++++",
".+++++++++++++++++++++++++++++++++++++++++++++++++++++++++++++++++++++++++++++++++++++++++++++++++++++++++++++++++++++++++++++++",
"@@@@@@@@@@@@@@@@@@@@@@@@@@@@@@@@@@@@@@@@@@@@@@@@@@@@@@@@@@@@@@@@@@@@@@@@@@@@@@@@@@@@@@@@@@@@@@@@@@@@@@@@@@@@@@@@@@@@@@@@@@@@@@@@",
".+++++++++++++++++++++++++++++++++++++++++++++++++++++++++++++++++++++++++++++++++++++++++++++++++++++++++++++++++++++++++++++++",
"#########.#########.######.###..##.#.##.########.##########.#########.######..##..##.#.##.########.##########.#########.######..",
"$$$%%$$$$%$$$$$$$$$%$$$$%%%%$$%$$$%$%$$$$$$$$$$$%$$$$%%$$$$%$$$$$$$$$%$$$$%%%%$$%$$$%$%$$$$$$$$$$$%$$$$%%$$$$%$$$$$$$$$%$$$$%%%%",
"$$$$$$$$$$$$$$$$$$$$$$$$$$%$$$$$$$%$%$$$$$$$%$$$$$$$$$$$$$$$$$$$$$$$$$$$$$$$%%$$$$$$%$%$$$$$$$%$$$$$$$$$$$$$$$$$$$$$$$$$$$$$$$%%",
"$%$$$$%$$$$$$$$$$$$$$$$$$$$%$$$$$$%$%$$$$$%$%$$$$$$%$$$$%$$$$$$$$$$$$$$$$$$$$%$$$$$$%$%$$$$$%$%$$$$$$%%$$$%$$$$$$$$$$$$$$$$$$$$%",
"$$%$$%$$$$$$$$$$$$$$$$$$$$%$$$$$$$%$%%$$$%%$$$$$$$$$%$$%$$$$$$$$$$$$$$$$$$$$%%$$$$$$%$%%$$$%%$$$$$$$$$%$$%$$$$$$$$$$$$$$$$$$$$%%",
"$$%%%%$$$$$$$$$$$$$$$$$$$%%%$$$$$%%$%%$$$%%$$$$$$$$$%%%%$$$$$$$$$$$$$$$$$$$%%%$$$$$%%$%%$$$%%$$$$$$$$$%%%%$$$$$$$$$$$$$$$$$$$%%%",
"$$$%%%$$$$$%$$$$$%$$$$$$%%%%$$$$%%%$%%$$$%$$$$%$$$$$$%%%$$$$$%$$$$$%$$$$$$%%%%$$$$%%%$%%$$$%$$$$%$$$$$$%%%$$$$$%$$$$$%$$$$$$%%%%",
"$$$$$$$$$$$%$$$$$%$$$$$$$$%$$$$%$$%$%%%%$$$$$$$$%$$$$$$$$$$$$%$$$$$%$$$$$$$$%%$$$%$$%$%%%%$$$$$$$$%$$$$$$$$$$$$%$$$$$%$$$$$$$$%%",
"$$$$$$$$$%$$$$$$$$$%$$$$$$$%$$%$$$%$%%%%$$$$$$$$%$$$$$$$$$$%$$$$$$$$$%$$$$$$$%$$%$$$%$%%%%$$$$$$$$%$$$$$$$$$$%$$$$$$$$$%$$$$$$$%",
"$$$$$$$$$%$$$$$$$$$%$$$$$$%$$$%%$$$$$%%$$$$$$$$$%$$$$$$$$$$%$$$$$$$$$%$$$$$$%%$$%%$$$$$%%$$$$$$$$$%$$$$$$$$$$%$$$$$$$$$%$$$$$$%%",
"$$$%%$$$$$$$$$$$$$$$$$$$%%%%$$%%%%$$$%$$$$$$%$$$$$$$$%%$$$$$$$$$$$$$$$$$$$%%%%$$%%%%$$$%$$$$$$%$$$$$$$$%%$$$$$$$$$$$$$$$$$$$%%%%",
"$$%$$$$$$$$$$$$$$$$$$$$$$$%$$$%%$$$$$$$$$$%$%$$$$$$$%$$$$$$$$$$$$$$$$$$$$$$$%%$$%%$$$$$$$$$$%$%$$$$$$$%$$$$$$$$$$$$$$$$$$$$$$$%%",
"$%$$$%%$$$$$$$$$$$$$$$$%$$$%$$%$$$$$$$$$$%%$$$$$$$$%$$$%%$$$$$$$$$$$$$$$$%$$$%$$%$$$$$$$$$$%%$$$$$$$$%%$$$%$$$$$$$$$$$$$$$$%$$$%",
"$$%$$%$$$$$$$$$$$$$$$$$%$$%%%%%%$$$$$%$$$%%$$$$$$$$$%$$%$$$$$$$$$$$$$$$$$%$$%%%%%%$$$$$%$$$%%$$$$$$$$$%$$%$$$$$$$$$$$$$$$$$%$$%%",
"$$$%%%$$$$$%$$$$$%$$$$$%%%%%%%%%%%$$$%$$%%$$$$%$$$$$$%%%$$$$$%$$$$$%$$$$$%%%%%%%%%%%$$$%$$%%$$$$%$$$$$$%%%$$$$$%$$$$$%$$$$$%%%%%",
"$$$%%$$$$$$%$$$$$%$$$$$$$$%%$$%%%%$$$%$%%%$$$$%$$$$$$%%$$$$$$%$$$$$%$$$$$$$$%%$$%%%%$$$%$%%%$$$$%$$$$$$%%$$$$$$%$$$$$%$$$$$$$$%%",
"$$$$$$$$$%$$$$$$$$$$$$$$$$$$$$%%$$%%%%%%%%$$$$$$%$$$$$$$$$$%$$$$$$$$$$$$$$$$$%$$%%$$%%%%%%%%$$$$$$%$$$$$$$$$$%$$$$$$$$$$$$$$$$$%",
"$$$$$$$$$%$$$$$$$$$$$$$$$$$%$$%$$$%%%%%%%%$$$$$$%$$$$$$$$$$%$$$$$$$$$$$$$$$$$%$$%$$$%%%%%%%%$$$$$$%$$$$$$$$$$%$$$$$$$$$$$$$$$$$%",
"%$$$$$$%%$$$$$$$$$$$$%$$$$$$%%%%$$%%%%%%%%$$$$$$%%%$$$$$$%%$$$$$$$$$$$$%$$$$$$%%%%$$%%%%%%%%$$$$$$%%%$$$$$$%%$$$$$$$$$$$$%$$$$$$",
"$%%%%$%$$$$$$$$$$$$$$$$$%$$$$$%%%%%%%%%$%$$$$$%$%$$%%%%$%$$$$$$$$$$$$$$$$$%$$$$$%%%%%%%%%$%$$$$$%$%$$%%%%$%$$$$$$$$$$$$$$$$$%$$$",
"$$%$$%$$$$$$$$$$$$$$$$$%$$$$$$%%$$%%%%%$%$$$$$$$%$$$%$$%$$$$$$$$$$$$$$$$$%$$$$$$%%$$%%%%%$%$$$$$$$%$$$%$$%$$$$$$$$$$$$$$$$$%$$$$",
"$$$$$%$$$$$$$$$$$$$$$$$%$$$$$$%$$$%%%%%$%%$$$$$$%$$$$$$%$$$$$$$$$$$$$$$$$%$$$$$$%$$$%%%%%$%%$$$$$$%$$$%$$$$$$$$$$$$$$$$$$$$%$$$$",
"$$$$$%$$$$$%$$$$$$$$$$$%$$%$%%%%$$%%%%%$%%$$$$$$%$$$$$$%$$$$$%$$$$$$$$$$$%$$%$%%%%$$%%%%%$%%$$$$$$%$$$$$$%$$$$$%$$$$$$$$$$$%$$%$",
"$$$%%$$$$%$%$$$$$%$$$$$$$$%%%%%%%%%%%%%$%%$$$$%$%$$$$%%$$$$%$%$$$$$%$$$$$$$$%%%%%%%%%%%%%$%%$$$$%$%$$$$%%$$$$%$%$$$$$%$$$$$$$$%%",
"$$$%%$$$$%$$$$$$$$$$$$$$$$$%$$%%%%%%%%%$%%$$$%%$%$$$$%%$$$$%$$$$$$$$$$$$$$$$$%$$%%%%%%%%%$%%$$$%%$%$$$$%%$$$$%$$$$$$$$$$$$$$$$$%",
"$$$$$$$$$%$$$$$$$$$$$$$$$$$$$$%%$$%%%%%$%%$$$$$$%$$$$$$$$$$%$$$$$$$$$$$$$$$$$%$$%%$$%%%%%$%%$$$$$$%$$$$$$$$$$%$$$$$$$$$$$$$$$$$%",
"$$$$$$$$$$$$$$$$$$$$$$$$$$$$$$%$$$%%%%%$%%$$%$$$%$$$$$$$$$$$$$$$$$$$$$$$$$$$$$$$%$$$%%%%%$%%$$%$$$%$$$$$$$$$$$$$$$$$$$$$$$$$$$$$",
"%%%$$$%%%$$$$$$$$$$$%%$$$$$$%%%%$$%%%$%$%$%%%$$$%$%%%$$$%%%$$$$$$$$$$$%%$$$$$$%%%%$$%%%$%$%$%%%$$$%$%%%$$$%%%$$$$$$$$$$$%%$$$$$$",
"$%%%%%%$$$$$$$$$$$$$$$$%%$$$$$%%%%%%$$%$%$$%$$%$%$$%%%%%%$$$$$$$$$$$$$$$$%%$$$$$%%%%%%$$%$%$$%$$%$%$$%%%%%%$$$$$$$$$$$$$$$$%%$$$",
"$$%$$%$$$$$$$$$$$$$$$$$%$$$$$$%%$$%$$$%$%$$$$$$$%$$$%$$%$$$$$$$$$$$$$$$$$%$$$$$$%%$$%$$$%$%$$$$$$$%$$$%$$%$$$$$$$$$$$$$$$$$%$$$$",
"$$$$$%$$$$$%$$$$$$$$$$$%$$$$$$%$$$$$$$%$%$$$$$$$%$$$$$$%$$$$$%$$$$$$$$$$$%$$$$$$%$$$$$$$%$%$$$$$$$%$$$$$$$$$$$$%$$$$$$$$$$$%$$$$",
"$$$$$$$$$%$%$$$$$%$$$$$$$$%%%%%%$$$$$$%$%$$$$$$$%$$$$$$$$$$%$%$$$$$%$$$$$$$$%%%%%%$$$$$$%$%$$$$$$$%$$$$$$$$$$%$%$$$$$%$$$$$$$$%%",
"$$$%%$$$%%$$$$$$$$$$$$$$$$$%%%%%%%$$$%%$%%$$$%%$%%$$$%%$$$%%$$$$$$$$$$$$$$$$$%%%%%%%$$$%%$%%$$$%%$%%$$$%%$$$%%$$$$$$$$$$$$$$$$$%",
"$$$%%$$$$%$$$$$$$$$$$$$$$$$%$$%%%%$$$%%$%%$$$%%$%$$$$%%$$$$%$$$$$$$$$$$$$$$$$%$$%%%%$$$%%$%%$$$%%$%$$$$%%$$$$%$$$$$$$$$$$$$$$$$%",
"$$$$$$$$$$$$$$$$$$$$$$$$$$$$$$%%$$$$%%%$%%$$$$$$%$$$$$$$$$$$$$$$$$$$$$$$$$$$$$$$%%$$$$%%%$%%$$$$$$%$$$$$$$$$$$$$$$$$$$$$$$$$$$$$",
"$%$$$$%$$$$$$$$$$$$$$$$$$$$$$$%$$$%%%$%$%$%$%$$$%$$%$$$$%$$$$$$$$$$$$$$$$$$$$$$$%$$$%%%$%$%$%$%$$$%$$%%$$$%$$$$$$$$$$$$$$$$$$$$$",
"$%%$$%%%%$$$%%$%%$$$%%$%$$$$%%%%$$%%$$%$%$$$$$$$%$$%%$$%%%%$$$%%$%%$$$%%$%$$$$%%%%$$%%$$%$%$$$$$$$%$$%%$$%%%%$$$%%$%%$$$%%$%$$$$",
"$$%%%%%$$$$$%%$%%$$$$$$%%%$$$$%%%%%$$$%$%$$$$$%$%$$$%%%%%$$$$$%%$%%$$$$$$%%%$$$$%%%%%$$$%$%$$$$$%$%$$$%%%%%$$$$$%%$%%$$$$$$%%%$$",
"$$$$$%$$$$$$%%$%%$$$$$$%$$%$$$%%$$$$$$%$%$$$$$$$%$$$$$$%$$$$$$%%$%%$$$$$$%$$%$$$%%$$$$$$%$%$$$$$$$%$$$$$$%$$$$$$%%$%%$$$$$$%$$%$",
"$$$$$%%$$$$$$%$%$$$$$$$%$$$%$$%$$$$$$$%$%$$$$$$$%$$$$$$%%$$$$$$%$%$$$$$$$%$$$%$$%$$$$$$$%$%$$$$$$$%$$$$$$$%$$$$$$%$%$$$$$$$%$$$%",
"$$$$$%%%$$$$$%$%$$$$$%$%$$$%%%%%$$$$$%%$$$$$$$$$%%$$$$$%%%$$$$$%$%$$$$$%$%$$$%%%%%$$$$$%%$$$$$$$$$%%$$$$$%%%$$$$$%$%$$$$$%$%$$$%",
"$$$%%%%%$$$$$%$%$$$$$%$%$$$%%%%%%%$$$%%$$$$$$$$$%%$$$%%%%%$$$$$%$%$$$$$%$%$$$%%%%%%%$$$%%$$$$$$$$$%%$$$%%%%%$$$$$%$%$$$$$%$%$$$%",
"$$$%%%%$$$$$$%$%$$$$$$$%$$$$$$%%%%$$%%$$$$$$%$$$$$$$$%%%%$$$$$$%$%$$$$$$$%$$$$$$%%%%$$%%$$$$$$%$$$$$$$$%%%%$$$$$$%$%$$$$$$$%$$$$",
"$$%$$%$$$$$$$%$%$$$$$$$%$$$$$$%%$$%$%$$$$$%$%$$$$$$$%$$%$$$$$$$%$%$$$$$$$%$$$$$$%%$$%$%$$$$$%$%$$$$$$$%$$%$$$$$$$%$%$$$$$$$%$$$$",
"$%$$$%%$$$$$%%$%%$$$$$$%$$$$$$%$$$%$$$$$$$$$$$$$$$$%$$$%%$$$$$%%$%%$$$$$$%$$$$$$%$$$%$$$$$$$$$$$$$$$$%%$$$%$$$$$%%$%%$$$$$$%$$$$",
"$$%$$%%%%$$$%%$%%$$$%%$%$$$$%%%%$$%$$$$$$$$$$$$$$$$$%$$%%%%$$$%%$%%$$$%%$%$$$$%%%%$$%$$$$$$$$$$$$$$$$$%$$%%%%$$$%%$%%$$$%%$%$$$$",
"$$$%%%%$$$$%%%$%%$$$$$$%%%%$$$%%%%$$$$$$%$$$$$%$$$$$$%%%%$$$$%%%$%%$$$$$$%%%%$$$%%%%$$$$$$%$$$$$%$$$$$$%%%%$$$$%%%$%%$$$$$$%%%%$",
"$$$$$%$$$%%%$%$%$%%$$$$%$$%$$$%%$$$$$$%$%$$$$$$$%$$$$$$%$$$%%%$%$%$%%$$$$%$$%%$$%%$$$$$$%$%$$$$$$$%$$$$$$%$$$%%%$%$%$%%$$$$%$$%%",
"$$$$$%%$$%%$$%$%$$$$$$$%$$$%$$%$$$$$$$$$$$$$$$$$%$$$$$$%%$$%%$$%$%$$$$$$$%$$$%$$%$$$$$$$$$$$$$$$$$%$$$$$$$%$$%%$$%$%$$$$$$$%$$$%",
"$$$$$%%%%%$$$%$%$$$$$%$%$$$%%%%$$$$$$$$$$$$$$$$$%%$$$$$%%%%%$$$%$%$$$$$%$%$$$%%%%$$$$$$$$$$$$$$$$$%%$$$$$%%%%%$$$%$%$$$$$%$%$$$%",
"%$$%%%%%%$$$$%$%$$$$$%$%$$$$%%$$$$$$%$$$$$$$$$$$$%%$$%%%%%%$$$$%$%$$$$$%$%$$$$%%$$$$$$%$$$$$$$$$$$$%%$$%%%%%%$$$$%$%$$$$$%$%$$$$",
"$%%%%%%$$$$$$%$%$$$$$$$%%$$$$$$$$$%$%$$$$$%$%$$$$$$%%%%%%$$$$$$%$%$$$$$$$%%$$$$$$$$$%$%$$$$$%$%$$$$$$%%%%%%$$$$$$%$%$$$$$$$%%$$$",
"$$%$$%$$$$$$%%$%%$$$$$$%$$$$$$$$$$%$$$$$$$$$$$$$$$$$%$$%$$$$$$%%$%%$$$$$$%$$$$$$$$$$%$$$$$$$$$$$$$$$$$%$$%$$$$$$%%$%%$$$$$$%$$$$",
"$$$$$%%$$$$$%%$%%$$$$$$%$$$$$$$$$$%$$$$$$$$$$$$$$$$$$$$%%$$$$$%%$%%$$$$$$%$$$$$$$$$$%$$$$$$$$$$$$$$$$$%$$$%$$$$$%%$%%$$$$$$%$$$$",
"$$$$$%%%%$$%%%$%%$$$%%$%$$%$%%$$$$$$$$$$$$$$$$$$$$$$$$$%%%%$$%%%$%%$$$%%$%$$%$%%$$$$$$$$$$$$$$$$$$$$$$$$$%%%%$$%%%$%%$$$%%$%$$%$",
"$$$$$%%$$%%%$%$%$%%$$$$%$$$%$$%$$$$$$$%$%$$$$$$$%$$$$$$%%$$%%%$%$%$%%$$$$%$$$%$$%$$$$$$$%$%$$$$$$$%$$$$$$%%$$%%%$%$%$%%$$$$%$$$%",
"$$$$$%$$$%%$$%$%$$$$$$$%$$$$$$%$$$$$$$$$$$$$$$$$%$$$$$$%$$$%%$$%$%$$$$$$$%$$$%$$%$$$$$$$$$$$$$$$$$%$$$$$$$$$$%%$$%$%$$$$$$$%$$$%",
"$$$$$%%$$%$$$%$%$$$$$$$%$$$%$$%$$$$$$$$$$$$$$$$$%$$$$$$%%$$%$$$%$%$$$$$$$%$$$%$$%$$$$$$$$$$$$$$$$$%$$$$$$$%$$%$$$%$%$$$$$$$%$$$%",
"%$$$$%%%%$$$$%$%$$$$$%$%$$$$%%$$$$$$%$$$$$$$$$$$$%%$$$$%%%%$$$$%$%$$$$$%$%$$$$%%$$$$$$%$$$$$$$$$$$$%%$$$$%%%%$$$$%$%$$$$$%$%$$$$",
"%%%$$%%$$$$$$$$$$$$$$$$%$$$$%%$$$$%$$$$$$$$$%$$$$$%%%$$%%$$$$$$$$$$$$$$$$%$$$$%%$$$$%$$$$$$$$$%$$$$$%%%$$%%$$$$$$$$$$$$$$$$%$$$$",
"$%$$$%$$$$$$$$$$$$$$$$$%$$$$$$$$$$%$$$$$$$$$$$$$$$$%$$$%$$$$$$$$$$$$$$$$$%$$$$$$$$$$%$$$$$$$$$$$$$$$$%%$$$$$$$$$$$$$$$$$$$$%$$$$",
"$$%$$%$$$$$$$$$$$$$$$$$%$$$$$$$$$$%$$$$$$$$$$$$$$$$$%$$%$$$$$$$$$$$$$$$$$%$$$$$$$$$$%$$$$$$$$$$$$$$$$$%$$%$$$$$$$$$$$$$$$$$%$$$$",
"$$$$$$$$$$$%$$$$$$$$$$$$$$$$$$$$$$$$$$$$$$$$$$$$$$$$$$$$$$$$$%$$$$$$$$$$$$$$$$$$$$$$$$$$$$$$$$$$$$$$$$$$$$$$$$$%$$$$$$$$$$$$$$$$",
"$$$$$$$$$%$%$$$$$%$$$$$$$$%%%%%%$$$$$$%$%$$$$$$$%$$$$$$$$$$%$%$$$$$%$$$$$$$$%%%%%%$$$$$$%$%$$$$$$$%$$$$$$$$$$%$%$$$$$%$$$$$$$$%%",
"$$$$$$$$$%$%%$$$%%$$$$$$$$$%$$%$$$$$$$$$$$$$$$$$%$$$$$$$$$$%$%%$$$%%$$$$$$$$$%$$%$$$$$$$$$$$$$$$$$%$$$$$$$$$$%$%%$$$%%$$$$$$$$$%",
"$$$$$$$$$%$%%$$$%%$$$$$$$$$$$$%$$$$$$$$$$$$$$$$$%$$$$$$$$$$%$%%$$$%%$$$$$$$$$%$$%$$$$$$$$$$$$$$$$$%$$$$$$$$$$%$%%$$$%%$$$$$$$$$%",
"$$$$$$%$$%$%%$$$%$$$$$$$$$$$$$$$$$$$%$$$$$$$$$$$$$$$$$$$%$$%$%%$$$%$$$$$$$$$$$$$$$$$$$%$$$$$$$$$$$$$$$$$$$%$$%$%%$$$%$$$$$$$$$$$",
"%%%$$%%$$%$%$$$$$$$$$$$%$$$$%%$$$$%$$$$$$$$$%$$$$$%%%$$%%$$%$%$$$$$$$$$$$%$$$$%%$$$$%$$$$$$$$$%$$$$$%%%$$%%$$%$%$$$$$$$$$$$%$$$$",
"$%%$$%$$$%$%$$$$$$$$$$$%$$$$%%$$$$%$$$$$$$$$$$$$$$$%%$$%$$$%$%$$$$$$$$$$$%$$$$%%$$$$%$$$$$$$$$$$$$$$$%%$$%$$$%$%$$$$$$$$$$$%$$$$",
"$$$$$%$$$%$%$$$$$$$%$$$%$$$$$$$$$$%$$$$$$$$$$$$$$$$$$$$%$$$%$%$$$$$$$%$$$%$$$$$$$$$$%$$$$$$$$$$$$$$$$$%$$$$$$%$%$$$$$$$%$$$%$$$$",
"$$$$$$$$$%$%$$$$$$$%$$$$$$%$$$$$$$$$$$$$$$$$$$$$$$$$$$$$$$$%$%$$$$$$$%$$$$$$%$$$$$$$$$$$$$$$$$$$$$$$$$$$$$$$$%$%$$$$$$$%$$$$$$%$",
"$$$$$$$$$%$%$$$$$%$$$$$$$$$%$$%$$$$$$$%$%$$$$$$$%$$$$$$$$$$%$%$$$$$%$$$$$$$$$%$$%$$$$$$$%$%$$$$$$$%$$$$$$$$$$%$%$$$$$%$$$$$$$$$%",
"$$$$$$$$%%$%%$$$%%$$$$$$$$$%%%%%$$$$$$$$$$$$$$$$%%$$$$$$$$%%$%%$$$%%$$$$$$$$$%%%%%$$$$$$$$$$$$$$$$%%$$$$$$$$%%$%%$$$%%$$$$$$$$$%",
"$$$$$$$$$%$%%$$$%%$$$$$$$$$%$$%$$$$$$$$$$$$$$$$$%$$$$$$$$$$%$%%$$$%%$$$$$$$$$%$$%$$$$$$$$$$$$$$$$$%$$$$$$$$$$%$%%$$$%%$$$$$$$$$%",
"$$$$$$$$$%$%%$$$%$$$$$$$$$$$$$$$$$$$%$$$$$$$$$$$$$$$$$$$$$$%$%%$$$%$$$$$$$$$$$$$$$$$$$%$$$$$$$$$$$$$$$$$$$$$$%$%%$$$%$$$$$$$$$$$",
"$%$$$%%$$%$%$$%$$$$$$$$%$$$$$$$$$$%$$$$$$$$$%$$$$$$%$$$%%$$%$%$$%$$$$$$$$%$$$$$$$$$$%$$$$$$$$$%$$$$$$%%$$$%$$%$%$$%$$$$$$$$%$$$$",
"%%%$$%$$$%$%$$$$$$$$$$$%$$$$%%$$$$%$$$$$$$$$%$$$$%%%%$$%$$$%$%$$$$$$$$$$$%$$$$%%$$$$%$$$$$$$$$%$$$$%%%%$$%$$$%$%$$$$$$$$$$$%$$$$",
"%%%$$%$$$%$%$$$$$$$%$$$%$$$$%%$$$$%$$$$$$$$$%$$$$%%%%$$%$$$%$%$$$$$$$%$$$%$$$$%%$$$$%$$$$$$$$$%$$$$%%%%$$%$$$%$%$$$$$$$%$$$%$$$$",
"$%$$$$$$$%$%$$$$$$$%$$$$$$$$$$$$$$$$$$$$$$$$$$$$$$$%$$$$$$$%$%$$$$$$$%$$$$$$$$$$$$$$$$$$$$$$$$$$$$$$$%%$$$$$$%$%$$$$$$$%$$$$$$$$",
"$$%$$$$$$%$%$$$$$%$$$$$$$$%$$$%%$$$$$$%$%$$$$$$$$$$$%$$$$$$%$%$$$$$%$$$$$$$$%%$$%%$$$$$$%$%$$$$$$$$$$$%$$$$$$%$%$$$$$%$$$$$$$$%%",
"$%$$$$$$$%$%%$$$%%$$$$$$$$$%$$%$$$$$$$$$$$$$$$$$$$$%$$$$$$$%$%%$$$%%$$$$$$$$$%$$%$$$$$$$$$$$$$$$$$$$$%%$$$$$$%$%%$$$%%$$$$$$$$$%",
"%%%$$$$$%%$%%$$$%%$$$%$$$$$%%%%$$$$$$$$$$$$$$$$$$%%%%$$$$$%%$%%$$$%%$$$%$$$$$%%%%$$$$$$$$$$$$$$$$$$%%%%$$$$$%%$%%$$$%%$$$%$$$$$%",
"$%%$$$$$$%$%%$$$%$$$$$$$$$$$$$$$$$$$%$$$$$%$$$$$$$$%%$$$$$$%$%%$$$%$$$$$$$$$$$$$$$$$$$%$$$$$%$$$$$$$$%%$$$$$$%$%%$$$%$$$$$$$$$$$",
"$$$$$%$$$%$%%%%$$$$$$$$%$$$$$$$$$$%$$$$$$$$$%$$$$$$$$$$%$$$%$%%%%$$$$$$$$%$$$$$$$$$$%$$$$$$$$$%$$$$$$$%$$$$$$%$%%%%$$$$$$$$%$$$$",
"$%$$$%%$$$$$%%$$$$$$$$$%$$$$$$$$$$%$$$$$$$$$%$$$$$$%$$$%%$$$$$%%$$$$$$$$$%$$$$$$$$$$%$$$$$$$$$%$$$$$$%%$$$%$$$$$%%$$$$$$$$$%$$$$",
"%%%$$%%%%$$$%%$$$$$%$$$%$$$$%%$$$$%$$$$$$$$$%$$$$%%%%$$%%%%$$$%%$$$$$%$$$%$$$$%%$$$$%$$$$$$$$$%$$$$%%%%$$%%%%$$$%%$$$$$%$$$%$$$$",
"%%%$$%%%$$$$$$$$$$$%$$$$$$%$%%$$$$$$$$$$$$$$$$$$$%%%%$$%%%$$$$$$$$$$$%$$$$$$%$%%$$$$$$$$$$$$$$$$$$$%%%%$$%%%$$$$$$$$$$$%$$$$$$%$",
"$%$$$%%$$$$$$$$$$%$$$$$$$$$%$$%$$$$$$$%$%$$$$$$$%$$%$$$%%$$$$$$$$$$%$$$$$$$$$%$$%$$$$$$$%$%$$$$$$$%$$%%$$$%$$$$$$$$$$%$$$$$$$$$%",
"$$%$$%$$$$$$$$$$%%$$$$$$$$$$$$%%$$$$$$$$$$$$$$$$%$$$%$$%$$$$$$$$$$%%$$$$$$$$$%$$%%$$$$$$$$$$$$$$$$%$$$%$$%$$$$$$$$$$%%$$$$$$$$$%",
"$%%%%%%$$$$$%$$$%%$$$$$$$$$%$$%$$$$$$$$$$$$$$$$$%$$%%%%%%$$$$$%$$$%%$$$$$$$$$%$$%$$$$$$$$$$$$$$$$$%$$%%%%%%$$$$$%$$$%%$$$$$$$$$%",
"%%%%%%%%%$$$%$$%%$$$$%$$$$$$%%$$$$$$%$$$$$%$$$$$$$%%%%%%%%%$$$%$$%%$$$$%$$$$$$%%$$$$$$%$$$$$%$$$$$$$%%%%%%%%%$$$%$$%%$$$$%$$$$$$",
"$%%$$%%$$%$%%%%%%$$$$$$%$$$$$$$$$$%$$$$$$$$$$$$$$$$%%$$%%$$%$%%%%%%$$$$$$%$$$$$$$$$$%$$$$$$$$$$$$$$$$%%$$%%$$%$%%%%%%$$$$$$%$$$$",
"$$$$$%$$$%%%%%%%%$$$$$$%$$$$$$$$$$%$$$$$$$$$$$$$$$$$$$$%$$$%%%%%%%%$$$$$$%$$$$$$$$$$%$$$$$$$$$$$$$$$$$%$$$$$$%%%%%%%%$$$$$$%$$$$",
"$$%$$%%$$%%%%%%%%$$$$$$%%$$$$$$$$%%$$$$$$$$$$$$$$$$$%$$%%$$%%%%%%%%$$$$$$%%$$$$$$$$%%$$$$$$$$$$$$$$$$$%$$%%$$%%%%%%%%$$$$$$%%$$$",
"$$$%%%%%%%%%%%%%$$$$$%$%%%%$%%$$%%$$$$$$$$$$$$%$$$$$$%%%%%%%%%%%%%$$$$$%$%%%%$%%$$%%$$$$$$$$$$$$%$$$$$$%%%%%%%%%%%%%$$$$$%$%%%%$",
"$$$$$%%%%%%%%%$%$$$$$%$%$$%%%%%%$$$$$$%$%$$$$$$$%%$$$$$%%%%%%%%%$%$$$$$%$%$$%%%%%%$$$$$$%$%$$$$$$$%%$$$$$%%%%%%%%%$%$$$$$%$%$$%%",
"$$$$$%%$$%%%%%$%$$$$$$$%$$$%$$%$$$$$$$$$$$$$$$$$%$$$$$$%%$$%%%%%$%$$$$$$$%$$$%$$%$$$$$$$$$$$$$$$$$%$$$$$$$%$$%%%%%$%$$$$$$$%$$$%",
"$$$$$%$$$%%%%%$%%$$$$$$%$$$$$$%$$$$$%$$$$$$$$$$$%$$$$$$%$$$%%%%%$%%$$$$$$%$$$%$$%$$$$$%$$$$$$$$$$$%$$$$$$%$$$%%%%%$%%$$$$$$%$$$%",
"$%$%%%%$$%%%%%$%%$$$$$$%$$$$$$$$$$$$%$$$$$$$$$$$$$$%$%%%%$$%%%%%$%%$$$$$$%$$$$$$$$$$$$%$$$$$$$$$$$$$$%$%%%%$$%%%%%$%%$$$$$$%$$$$",
"$%%%%%%%%%%%%%$%%$$$%%$%%$$$%%$$$$%$$$$$$$$$$$$$$$$%%%%%%%%%%%%%$%%$$$%%$%%$$$%%$$$$%$$$$$$$$$$$$$$$$%%%%%%%%%%%%%$%%$$$%%$%%$$$",
"$$%$$%%$$%%%%%$%%$$$$$$%$$$$$$$$$$%$$$$$$$$$$$$$$$$$%$$%%$$%%%%%$%%$$$$$$%$$$$$$$$$$%$$$$$$$$$$$$$$$$$%$$%%$$%%%%%$%%$$$$$$%$$$$",
"$$$$$%$$$%%%%%$%%$$%$$$%$$$$$$$$$$%$$$$$$$$$$$$$$$$$$$$%$$$%%%%%$%%$$%$$$%$$$$$$$$$$%$$$$$$$$$$$$$$$$$%$$$$$$%%%%%$%%$$%$$$%$$$$",
"$$$$$%%$$%%%%%$%%$%%$$$%%$%$$$$$$%$$$$$$$$$$$$$$$$$$$$$%%$$%%%%%$%%$%%$$$%%$%$$$$$$%$$$$$$$$$$$$$$$$$$$$$%%$$%%%%%$%%$%%$$$%%$%$",
"$$$%%%%%%%%$$%$%$$%$$%$%$$%%%%%%%$$$$$%$%$$$$$%$%%$$$%%%%%%%%$$%$%$$%$$%$%$$%%%%%%%$$$$$%$%$$$$$%$%%$$$%%%%%%%%$$%$%$$%$$%$%$$%%",
"$$$$$%%%%%$$$%$%$$$$$%$%$$$%%%%%$$$$$$$$$$$$$$$$%%$$$$$%%%%%$$$%$%$$$$$%$%$$$%%%%%$$$$$$$$$$$$$$$$%%$$$$$%%%%%$$$%$%$$$$$%$%$$$%",
"$$$$$%%$$%$$$%$%$$$$$$$%$$$%$$%$$$$$%$$$$$$$$$$$%$$$$$$%%$$%$$$%$%$$$$$$$%$$$%$$%$$$$$%$$$$$$$$$$$%$$$$$$$%$$%$$$%$%$$$$$$$%$$$%",
"$$$$$%$$$$$$$%$%$$$$$$$%$$$$$$$$$$$$%$$$$$$$$$$$$$$$$$$%$$$$$$$%$%$$$$$$$%$$$$$$$$$$$$%$$$$$$$$$$$$$$$$$$%$$$$$$$%$%$$$$$$$%$$$$",
"$%%%%%%$$$$$%%$%%$$$$$$%%$$$$$$$$$%$$$$$$$$$$$$$$$$%%%%%%$$$$$%%$%%$$$$$$%%$$$$$$$$$%$$$$$$$$$$$$$$$$%%%%%%$$$$$%%$%%$$$$$$%%$$$",
"$$%%%%%%%$$$%%$%%$$$%%$%%$$$%%$$$%%$$$$$$$$$$$$$$$$$%%%%%%%$$$%%$%%$$$%%$%%$$$%%$$$%%$$$$$$$$$$$$$$$$$%%%%%%%$$$%%$%%$$$%%$%%$$$",
"$$%$$%%$$$$%%%$%%$$$$$$%$$$$$$$$$$%$$$$$$$$$$$$$$$$$%$$%%$$$$%%%$%%$$$$$$%$$$$$$$$$$%$$$$$$$$$$$$$$$$$%$$%%$$$$%%%$%%$$$$$$%$$$$",
"&&&&&&&&&&&&&&&&&&&&&&&&&&&&&&&&&&&&&&&&&&&&&&&&&&&&&&&&&&&&&&&&&&&&&&&&&&&&&&&&&&&&&&&&&&&&&&&&&&&&&&&&&&&&&&&&&&&&&&&&&&&&&&&&",
"********************************************************************************************************************************",
"********************************************************************************************************************************",
"================================================================================================================================",
"================================================================================================================================",
"================================================================================================================================",
"================================================================================================================================",
"================================================================================================================================",
"================================================================================================================================",
"================================================================================================================================"};
