/* XPM */
static char *result[] = {
/* columns rows colors chars-per-pixel */
"128 128 8 1 ",
"  c #171628",
". c #352D47",
"X c #353D4D",
"o c #3D5D63",
"O c #66A269",
"+ c #B2DD6F",
"@ c #FEE691",
"# c #FFFFEC",
/* pixels */
"                                                                                                                                ",
"                                                                                                                                ",
"                                                                                                                                ",
"                                                                                                                                ",
"                                                                                                                                ",
"                                                                                                                                ",
"                                                                                                                                ",
"                                                                                                                                ",
"                                                                                                                                ",
"                                                                                                                                ",
"                                                                                                                                ",
"                                                                                                                                ",
"                                                                                                                                ",
"                                                                                                                                ",
"                                                                                                                                ",
"                                                                                                                                ",
"                                                                                                                                ",
"                                                                                                                                ",
"                                                                                                                                ",
"                                                                                                                                ",
"                                                                                                                                ",
"                                                                                                                                ",
"                                                                                                                                ",
"                                                                                                                                ",
"                                                                                                                                ",
"                                                                            #         @#                                        ",
"                                                                           #    @@ @##@                                         ",
"                                                                          #    @ @##@                                           ",
"                                                                         #   + @##@@@                                           ",
"                                                                        #   + @##@@@@@                                          ",
"                                                                       @   + ##@@@++                                            ",
"                                                                           +##@@+                                               ",
"                                                                      @   +##@+                                                 ",
"                                                                     #   +##+O  +++@+                                           ",
"                                                                    #   +##+  O+++++++                                          ",
"                                                                   @   +#@+ oOO@@@@@                                            ",
"                                                                   @  +@@O OO@@#####@+                                          ",
"                                                                  @   @#Oo+@@######@@@                                          ",
"                                                            #    @   +#+o+@@@@##O##@@@                                          ",
"                                                                @+ O+#+O++++++@#@@+ @                                           ",
"                                                           @    @ OO@+O++OO+######@+                                            ",
"                                                               @   @@O+Ooo@##@++@@#@O                                           ",
"                                                          #   @+ O+@OOoXX@#+O++@O+@@+                                           ",
"                                                         @    @ OO@+Oo X@@O@+++@+@+@+                                           ",
"                                                         @   @+oO++Oo X@+###@@++++O@@                                           ",
"                                                        @   +@ OO@Oo o+O@@###@++++@@@                                           ",
"                                                        #   @OOO@+o.oOO+++@#OOO+++@+@                                           ",
"                                                       @+ @+@O+++O.oOOOOOOOOOO+O++@+@                                           ",
"                                                       #  +@+OO@OXo+OooooOOOOO++O @+@                                           ",
"                                                      @@O@+@ +++XXOOoooOO+++OO++O @+@                                           ",
"                                                      # @+@++o@OoOOoOOO+@@@+OO+@+ @++                                           ",
"                                                     @@ @@@O+++oOOoO+O+@@@@+OOO@+ @+                                            ",
"                                                     #+@@@@+o@OO+oO+O+@@@@@+O+O@+  +                                            ",
"                                                    +# @@@++++o+oO+@++@@@@@+O+O@+  +                                            ",
"                                                    #+@@@@+o@O+OO+@O++@@@@@+O+O@+                                               ",
"                                                    # @@@++++++O+@O+++@@@@@+@OO@+                                               ",
"                                                   @@@@@#+o+O@O+@@O++++@@@+O@OO@+                                               ",
"                                                   #+@@@@+O+++O@@OO++++@@@+O+O+@+                                               ",
"                                                  +#@@@#Oo+O@+@@@O+++OO+#@+#OO+@                                                ",
"                                                  @@@@@#+X+O@+@@+O+++OO+@@O@ ++#                                                ",
"                                                  # @@#+O++#+@@+OO+@+OO+#+@+  @@                                                ",
"                                                 +#@@@#+X+O#+@@@O+@@++o@@+@O O@@                                                ",
"                                                 @@@@@#O.+O@@@@@++@@+OO@@O@  O#                                                 ",
"                                                 # @@#+o++#@@@@O++@@OOO@+++  +#                                                 ",
"                                                 @@@@#+X++#@@@@OOO@@+o+@+@   +#                                                 ",
"                                                +@@@@#O.+O#@@@@O++#+OO+@O@   #+                                                 ",
"                                                @ @@@+OO+O#@@@@+++#OoO@+++  O#                                                  ",
"                                                @+@@@Oo++O#@@@@+O@@OoO@O@   +#                                                  ",
"                                                @@@@@+o+++@@@#+O+#+oO++O+   #                                                   ",
"                                               O@@@@@+O++O++@@OO#@Ooo@O@    #                                                   ",
"                                               O @@++++++O+@#+O@@Ooo++O+   +@                                                   ",
"                                               ++@+++++++O@#+O+#+OXO+O+    #                                                    ",
"                                               O+@+++O+++O#@O+#@Ooo++ +    #                                                    ",
"                                               O+@++O+@@++OO+#@Oooo+O+    @                                                     ",
"                                               O@@+O++@@@++@#@+Xoo++ +    #                                                     ",
"                                               O@@OO++@@@@@##+.XoO+OO    +@                                                     ",
"                                                @@OO+@#####@+.XXO++ +    #                                                      ",
"                                               O+@OOO+@###@+. XoO+O+     @                                                      ",
"                                               O++OOO+@@@+OX  oO+O +    #                                                       ",
"                                               O+@OooOO+OOX   o++ +     #                                                       ",
"                                               O+++XX.XXOo   oO+OO     @                                                        ",
"                                               O+++O XXOo   XO++ O     #                                                        ",
"                                            +O  O++OOoOo    OO+OO     @                                                         ",
"                                        +   OO  O+OOOOOO   oO+OO      @                                                         ",
"                                        @   +OOXOOOOOOO    O++OO     @                                                          ",
"                                        @+O O+OoOOOOOO    O++O+                                                                 ",
"                                        @+O  OOooOOO     OO+++O                                                                 ",
"                                        @@O  OOOoo      OO++++                                                                  ",
"                                        #@+  OOOo      oO+++@                                                                   ",
"                                        ##@+  Oo       O+++@                                                                    ",
"                                        @#@@  Oo      +O++@+                                                                    ",
"                                         @#@++O      +O++@+                                                                     ",
"                                         +@++O      +O++@@                                                                      ",
"                                                   +O++@#                                                                       ",
"                                                  +O++@#@                                                                       ",
"                                                  +++##                                                                         ",
"                                                O+++##                                                                          ",
"                                                +++##                                                                           ",
"                                                +@##                                                                            ",
"                                               +@#@                                                                             ",
"                                              @##@@                                                                             ",
"                                             @#@ @                                                                              ",
"                                           @#@  @                                                                               ",
"                                               #                                                                                ",
"                                                                                                                                ",
"                                                                                                                                ",
"                                                                                                                                ",
"                                                                                                                                ",
"                                                                                                                                ",
"                                                                                                                                ",
"                                                                                                                                ",
"                                                                                                                                ",
"                                                                                                                                ",
"                                                                                                                                ",
"                                                                                                                                ",
"                                                                                                                                ",
"                                                                                                                                ",
"                                                                                                                                ",
"                                                                                                                                ",
"                                                                                                                                ",
"                                                                                                                                ",
"                                                                                                                                ",
"                                                                                                                                ",
"                                                                                                                                ",
"                                                                                                                                ",
"                                                                                                                                ",
"                                                                                                                                ",
"                                                                                                                                "
};
