/* XPM */
static char *result[] = {
/* columns rows colors chars-per-pixel */
"128 128 8 1 ",
"  c #171628",
". c #352D47",
"X c #353D4D",
"o c #3D5D63",
"O c #66A269",
"+ c #B2DD6F",
"@ c #FEE691",
"# c #FFFFEC",
/* pixels */
"                                                                                                                                ",
"                                                                                                                                ",
"                                                                                                                                ",
"                                                                                                                                ",
"                                                                                                                                ",
"                                                                                                                                ",
"                                                                                                                                ",
"                                                                                                                                ",
"                                                                                                                                ",
"                                                                                                                                ",
"                                                                                                                                ",
"                                                                                                                                ",
"                                                                                                                                ",
"                                                                                                                                ",
"                                                                                                                                ",
"                                                                                                                                ",
"                                                                                                                                ",
"                                                                                                                                ",
"                                                                                                                                ",
"                                                                                                                                ",
"                                                                                                                                ",
"                                                                                                                                ",
"                                                                                                                                ",
"                                                                                                                                ",
"                                                                                                                                ",
"                                                                                                                                ",
"                                                                                                                                ",
"                                                                                                                                ",
"                                                                                                                                ",
"                                                                                                                                ",
"                                                                                                                                ",
"                                                                                                                                ",
"                                                                                                                                ",
"                                                                                                                                ",
"                                                                                                                                ",
"                                                                                                                                ",
"                                                                                           ##                                   ",
"                                                                                        ##                                      ",
"                                                                                     @#                                         ",
"                                                                                   #@      +++@                                 ",
"                                                                        @        #@        +@@#######@                          ",
"                                                                      @       @#       +@######@@@@@@@@#                        ",
"                                                                     @      @@      +@###@@@@@@@@@@+                            ",
"                                                                   #@     +@+    ++###@++OOOO O++++@                            ",
"                                                                 @#      @@  o O@##@+O      O                                   ",
"                                                                #@     @@  O O@@@+OoOO+OOOO+++++                                ",
"                                                               #+  @ +@+ OOO+@@OOO+++@@@@@@@@ +@+                               ",
"                                                             @#+ @++@@ OOO+@+OO+OOOOO++@@#####@+++                              ",
"                                                            #@+ @+@@+o+OO@@OOooXXXXXoOOOO######@ +                              ",
"                                                           #@+@@+@@OO+o+@+Oo.  XX+@######@+O##@@                                ",
"                                                         +#+ @@@@@O+OO@+OXX.XoO+@@++++@@###+O@@@                                ",
"                                                        @#+@@@@@+O+o++OoXoo+OOO@@###@++O+@#@+@@@                                ",
"                                                       @#+#@@@@++OO@+oooOOOOOOOO+@###@++@+@#@ @                                 ",
"                                                      @# #@@@#++o++OoO+OoooooooOO@###@+@+O@#@                                   ",
"                                                     @@+@@@@#O+X++OO+OooOOOOOoOOOOOOO@++++@@@                                   ",
"                                                    @@@@@@##+OO@O+++OOO++@OOO+++OOOOOO+++@@@+                                   ",
"                                                   @@@@@@#@+oO@O@@OO+@@@OO++@@@@+OOO+O+++@@@+                                   ",
"                                                  @@@@@@#@OX++O@+++@@@OO+++@@@@@++OO+++++O@@                                    ",
"                                                 @@@@@@#+OX++O#++@@@@OO+++@@@@@@+OOO+++ @+@                                     ",
"                                                +@@@@@#+OX++O#++@@@+OO+++@@@@@@@OOO+@+ + @+                                     ",
"                                               +@@@@@#+OX++O#@@@@++O++++++@@#@@+O+O@@O @+@                                      ",
"                                              O@+@@@@+OX++O#@@@@@@O+++++O+@#@@+O@++@+ @ @                                       ",
"                                              ++@@@@+Oo++O#@@@@@OO++@++OO+@#@+O@+O@@O  +                                        ",
"                                             OO@@+@++O+++##@@@@OO++@@+O+O@#@+O@O++@+                                            ",
"                                            o @@++@++++++@#@@@@OOO+@@O+O+@@+O@OO+@@                                             ",
"                                            O+@@++O++++O+@@@@@@+++@@OOo+@@+@@OOO@@O                                             ",
"                                            +@@+++O+@++O++@@#@+++#@OOoO@@+@@O  +#+                                              ",
"                                           O+@+O+++@@+O+@##@+OO@#@OOoO@@+@@   +#@                                               ",
"                                           +@+OO++@@@+O##@+O++@#++ooO@@O@@   O@@                                                ",
"                                       +  O+@OOO+@@@@+O@+OO+@#@+OooO@+O@+   O@@                                                 ",
"                                  +   +   +++OOO+@##@@+++@@#@+Oooo+@+O@+   O@#                                                  ",
"                                 @    +  O+++ooO+#####@###@+Ooooo+++O@O    @#                                                   ",
"                                @+   OO  O++OXoO+@#####@@+OooXoO++OO@     @#                                                    ",
"                                @+O  +OoOO++O .XO+++++OO.XXooO+++ ++     #@                                                     ",
"                               @@+  OOOoOO+OO.XXooOOo.  XXooO++O +O     #@                                                      ",
"                               #@+  OOOoOOOOOOoOOoX     XoO+++ O+      #+                                                       ",
"                               ##+  OOOoOOOOOOOX       oO+++O +O     +#                                                         ",
"                              +@#@  OOoooOOOOOO      oO+++O  +      @#                                                          ",
"                               +@@+O o             oOO+++O +       @#                                                           ",
"                                +++OO            OOO+++O O        #                                                             ",
"                                               oOO+++OOO+        #                                                              ",
"                                             OOO+++OO+O        @@                                                               ",
"                                          O+OO+++O+++         #                                                                 ",
"                                       O+OO++++++@+          @                                                                  ",
"                                      OO++++++@@+          @                                                                    ",
"                                  ++++++++@@#@O                                                                                 ",
"                                  ++++@@###+@                                                                                   ",
"                              +@@@@#####@                                                                                       ",
"                           @@######@@  @                                                                                        ",
"                                  @@@                                                                                           ",
"                               @#@                                                                                              ",
"                                                                                                                                ",
"                                                                                                                                ",
"                                                                                                                                ",
"                                                                                                                                ",
"                                                                                                                                ",
"                                                                                                                                ",
"                                                                                                                                ",
"                                                                                                                                ",
"                                                                                                                                ",
"                                                                                                                                ",
"                                                                                                                                ",
"                                                                                                                                ",
"                                                                                                                                ",
"                                                                                                                                ",
"                                                                                                                                ",
"                                                                                                                                ",
"                                                                                                                                ",
"                                                                                                                                ",
"                                                                                                                                ",
"                                                                                                                                ",
"                                                                                                                                ",
"                                                                                                                                ",
"                                                                                                                                ",
"                                                                                                                                ",
"                                                                                                                                ",
"                                                                                                                                ",
"                                                                                                                                ",
"                                                                                                                                ",
"                                                                                                                                ",
"                                                                                                                                ",
"                                                                                                                                ",
"                                                                                                                                ",
"                                                                                                                                ",
"                                                                                                                                ",
"                                                                                                                                ",
"                                                                                                                                ",
"                                                                                                                                "
};
