/* XPM */
static char *result[] = {
/* columns rows colors chars-per-pixel */
"128 128 8 1 ",
"  c #171628",
". c #352D47",
"X c #353D4D",
"o c #3D5D63",
"O c #66A269",
"+ c #B2DD6F",
"@ c #FEE691",
"# c #FFFFEC",
/* pixels */
"                                                                                                                                ",
"                                                                                                                                ",
"                                                                                                                                ",
"                                                                                                                                ",
"                                                                                                                                ",
"                                                                                                                                ",
"                                                                                                                                ",
"                                                                                                                                ",
"                                                                                                                                ",
"                                                                                                                                ",
"                                                                                                                                ",
"                                                                                                                                ",
"                                                                                                                                ",
"                                                                                                                                ",
"                                                                                                                                ",
"                                                                                                                                ",
"                                                                                                                                ",
"                                                                                                                                ",
"                                                                                                                                ",
"                                                                                                                                ",
"                                                                                                                                ",
"                                                                                                                                ",
"                                                                                                                                ",
"                                                                                                                                ",
"                                                                                                                                ",
"                                                                                                                                ",
"                                                                                                                                ",
"                                                                                                                                ",
"                                                                                                                                ",
"                                                                                                                                ",
"                                                                                                                                ",
"                                                                                                                                ",
"                                                                                                                                ",
"                                                                                                                                ",
"                                                                                                                                ",
"                                                                                                                                ",
"                                                                                                                                ",
"                                                                                                                                ",
"                                                                                                                                ",
"                                                                                                                                ",
"                                                                                                                                ",
"                                                                                                                                ",
"                                                                                                                                ",
"                                                                                                                                ",
"                                                                                                                                ",
"                                                                                                                                ",
"                                                                                                                                ",
"                                                                                                                                ",
"                                                                       ##@        ++                                            ",
"                                                 @               ##@                                @                           ",
"                                              @@            @#@               +@@@###############@                              ",
"                                            @#+         @@@      O   ++@@#######@@@@@@@@@@@@@@+                                 ",
"                                          ##@        @@@    oO  ++@@###@@++OOO                                                  ",
"                                        @#@+     +@@@   oOO O+@@#@@+OOOOOOOOoOOOOOOOOOO++++@+++  ###@                           ",
"                                      +##@ @  ++@@+  oOO+O+@@@@+OOOooXX   X.XXooooooOOOO++@@@# ++++  @@@@                       ",
"                                     @## @@++@@@+ ooO++O+@@+OOooXX.XXoOO++O++@@#####@@@+OO+++@@@@##     @@                      ",
"                                    @# @@+@@@@@+OoO++O+@+OOooXooOO+OO+++++++OOOOOOOO++@@####@@+ @@@@#@@                         ",
"                                   @ @@@+@@@@@+OO++O+@+OoooOO+++OOoooOOOOOOOOOoooooOO+@###@O+@##@+O @@@@                        ",
"                                  +@#@@@@@@#@OOO+++@+OXoO+@@+OOOO++@@@@@@@@@OOOOOOOOOOO+@##@@@++@@@++  @                        ",
"                                  @#@@@@@##@oO++O@++OXo+@#@++++@@@@@OOO++++@@@++++OOOOO+++O#@@++++@@@+                          ",
"                                 @@@@@@@##@OO+++@++OXo@##@@+@@@@@OOO++++@@@@@@@@@@@++OOO+++++O++++ +@@+                         ",
"                                +@@@@@@##@OOO+O+++O.X+@##@@@@@@OOOO++++++@@@@@@@@@@@++OooO++@+++++O +@@                         ",
"                                @@@@@@@#@OOO+O+++O..XO@###@@@@@OOO+++++++O++@@@@#@@++OOoo+@O@@@+OO   +@                         ",
"                               +@@@@@@@@+OOOo++++OXX.oO+@@@@@OO++++@@@@++OOOO+@@#@@++OOoo+@#+@@@+     +                         ",
"                               O@@@@++@@+OOOO++++O+OOoooOO+++OOOOOO+@@@@+O++@O+@#@@+OooXO@#@O+@@@O                              ",
"                               O+@@@+++++OOOO+++++O@@@@@@#####@@++O+@#@@OOO++O+@@@+Oo  O+@@OO+@#@O                              ",
"                                ++@@++OO+++O++@@@++OO+@@@++++OOOOO@@#@+OoOOOoO+@@+O   o+@@O O+@#@                               ",
"                      @         O++@@+OOOOO++@@@@@@+++OOOOOOOO+@@##@++XoooooO+@@+O   O+@+   O@##+                               ",
"                           ++ O  O+++++O   OO+@@#####@@@@@@####@@++O..XXXXoO+++OO   O++O    +@#@                                ",
"                            O+O OOOOO+++OOooooXOO++@@@@@@@@+++OO      XooO++++O    +++      @##                                 ",
"                             O+OOOOOOOOO+O+OOooooooooXX             ooO++++OO    ++        @##                                  ",
"                               OOOOO++OOOOOOOOOOOOo              oOOO++++O     ++         @#@                                   ",
"                                  OOOOOOOo                   oOOOO+++++O  O              ##                                     ",
"                                                        oO+OOOO+++++OOOOO              @#@                                      ",
"                                                  OO+O+OOOO++++++OO+++O               #@                                        ",
"                                                   OO++++++++++@@@+                 @@                                          ",
"                                          OO+O++++++++++@@@##@+                                                                 ",
"                                          +++++@@@######@+                                                                      ",
"                                 @@@###########@@+                                                                              ",
"                                                                                                                                ",
"                                                                                                                                ",
"                                                                                                                                ",
"                                                                                                                                ",
"                                                                                                                                ",
"                                                                                                                                ",
"                                                                                                                                ",
"                                                                                                                                ",
"                                                                                                                                ",
"                                                                                                                                ",
"                                                                                                                                ",
"                                                                                                                                ",
"                                                                                                                                ",
"                                                                                                                                ",
"                                                                                                                                ",
"                                                                                                                                ",
"                                                                                                                                ",
"                                                                                                                                ",
"                                                                                                                                ",
"                                                                                                                                ",
"                                                                                                                                ",
"                                                                                                                                ",
"                                                                                                                                ",
"                                                                                                                                ",
"                                                                                                                                ",
"                                                                                                                                ",
"                                                                                                                                ",
"                                                                                                                                ",
"                                                                                                                                ",
"                                                                                                                                ",
"                                                                                                                                ",
"                                                                                                                                ",
"                                                                                                                                ",
"                                                                                                                                ",
"                                                                                                                                ",
"                                                                                                                                ",
"                                                                                                                                ",
"                                                                                                                                ",
"                                                                                                                                ",
"                                                                                                                                ",
"                                                                                                                                ",
"                                                                                                                                ",
"                                                                                                                                ",
"                                                                                                                                ",
"                                                                                                                                ",
"                                                                                                                                ",
"                                                                                                                                ",
"                                                                                                                                ",
"                                                                                                                                "
};
