/* XPM */
static char *result[] = {
/* columns rows colors chars-per-pixel */
"128 128 8 1 ",
"  c #171628",
". c #352D47",
"X c #353D4D",
"o c #3D5D63",
"O c #66A269",
"+ c #B2DD6F",
"@ c #FEE691",
"# c #FFFFEC",
/* pixels */
"                                                                                                                                ",
"                                                                                                                                ",
"                                                                                                                                ",
"                                                                                                                                ",
"                                                                                                                                ",
"                                                                                                                                ",
"                                                                                                                                ",
"                                                                                                                                ",
"                                                                                                                                ",
"                                                                                                                                ",
"                                                                                                                                ",
"                                                                                                                                ",
"                                                                                                                                ",
"                                                                                                                                ",
"                                                                                                                                ",
"                                                                                                                                ",
"                                                                                                                                ",
"                                                                                                                                ",
"                                                                                                                                ",
"                                                                                                                                ",
"                                                                                                                                ",
"                                                                                                                                ",
"                                                                                                                                ",
"                                                                                                                                ",
"                                                                                                                                ",
"                                                                                                                                ",
"                                                                                                                                ",
"                                                                                                                                ",
"                                     @                                                                                          ",
"                                     #                                                                                          ",
"                                     #           +@                                                                             ",
"                                     #              @                                                                           ",
"                                     #       +                                                                                  ",
"                                     #+     +                                                                                   ",
"                                     #@    ++                                                                                   ",
"                                     #@    ++                                                                                   ",
"                                     @#    ++                                                                                   ",
"                                      #    ++     O+O                                                                           ",
"                                      #@   ++   O+@@@#@@ O                                                                      ",
"                                      @#   +@   O+++@@###@ +                                                                    ",
"                                       #+  O@O  OOOO+++@@##@                                                                    ",
"                                       #+   @+  ooOOO+++++@##@                                                                  ",
"                                       +#   @+  ooOO++++++++@##                                                                 ",
"                                        #+O +@o oOO+++++++++++@#@                                                               ",
"                                        @@ OO@+ oO+++++OOOOO++++@@                                                              ",
"                                         #++O@@oXO++++OOOOOOOO+++@#                                                             ",
"                                         @@O++#OoO+++OOOOOO    O+ +@                                                            ",
"                                       + @@++O@+XO+++OooXXXXX    +  @                                                           ",
"                                          +@+++@OO++OOOoooOOOooX                                                                ",
"                                        @ @@+++@+O++OO+OoOOOOOOOoX                                                              ",
"                                         + +@O++#O+@OO++OOOOOoooOoo                                                             ",
"                                         @ @@+++@O+@+O+@O+OOOOooXoOoX                                                           ",
"                                          @ O@O+@#+@+O+@+++OOOOoXXXoOoo                                                         ",
"                                          @+@+@++@O@@OO@@+OOOOOOOo.XoOoo                                                        ",
"                                           @ @@++@O+@+O+@O+++O+OOOO. XooO                                                       ",
"                                           +@+o@O+O+@@O+@++@@@+O++OOX XooO                                                      ",
"                                            @+@O@+@O@@+O+O@####@+@+OOX  ooO                                                     ",
"                                             @@@+++O+@@O+O@#@@@##+#@OOX  ooO @                                                  ",
"                                             +@@#@O++@#+++@#@++@##@#@OOo  ooO #                                                 ",
"                                              ++@O+OO+@@O++#@+OO+@#@O@OOo  ooO @                                                ",
"                                               @O@O+++@#@OO@@O+@@O@#@O@OOoO ooO @                                               ",
"                                                @@#+OO+@@+o+@+++@@O@#@@@OOoO o   @                                              ",
"                                                +@@#+OO@@@+O@@O+@@@@@#@+@OOoO     +                                             ",
"                                                 +@##+O+@#@+O@+O+@@@O@#@+O+OoO    #                                             ",
"                                                  @+##+O+@@@++@+O+@@@O@#@+O+OOO  O #                                            ",
"                                                   @+##OO@@@@++@+++@@@O@@++++OOO  O @                                           ",
"                                                    #O##OO@@@+++++O@@@@+@@+++OOO     +                                          ",
"                                                     #O##OO@@@++++O@@@@@+@@O++OOO    @                                          ",
"                                                      #O##OO@@@+++OO@@@+O+@+OO+OOO    @                                         ",
"                                                      O#O##OO@@@++OO@@++@+@++++++OO    @                                        ",
"                                                       O#O#@OO+@+++O+++++#+++OO@+++                                             ",
"                                                        O#O#@+O++++OoOOO+@O++OO+@OO+    @                                       ",
"                                                      +   #+@@+oO++OOooO+@#++O+O+++                                             ",
"                                                       +   #+@@+oOOOOOOO+@@O++o+O@++O                                           ",
"                                                        +O  #@@@+oXXO++++++O++XO++@O++                                          ",
"                                                         +O  @#O@+oX.ooOOOOOO+OO++@+@                                           ",
"                                                          ++  +#+++OX ..Xoooo++O+@+@++                                          ",
"                                                       # @ ++  O#@O+OoX..XXooO+O+++@@@+                                         ",
"                                                        # @  +   @#+O+OooXoooO++++@+@+@                                         ",
"                                                         # @+ +   O@@+O+OOOOoo++++@@@@ @                                        ",
"                                                          #@@+ OO   O++OOOOOOoO+O+O#@@+@O                                       ",
"                                                           @@@+ OO       oooooO+++O#@@@ @                                       ",
"                                                             #@@+ O          XO+++O+#@@+@O                                      ",
"                                                              #@@+ @o        oO+++OO#@@@ @                                      ",
"                                                               ##@+O++      ooO+@OOo#@@@@#                                      ",
"                                                                @#@@+ +     oOO+@Oo @#@@@ +                                     ",
"                                                                  ##@@+     OoO+@O  +#@@@+#                                     ",
"                                                                   @##@@+OOOOO+@@O  O#@@@@#+                                    ",
"                                                                     @###@@+++@@+O  O@#@@@ @                                    ",
"                                                                       @####@@@@+O  O@@@@@@#                                    ",
"                                                                        +@###@@++   O+@@@@@#                                    ",
"                                                                           ++@++O    +@@@@@ +                                   ",
"                                                                              +O     O@@@@@ @                                   ",
"                                                                                      @@+@@@@                                   ",
"                                                                                     +@@@+@@@                                   ",
"                                                                                     +@@++@@@                                   ",
"                                                                                    +@@@++@ @                                   ",
"                                                                             ##@  @@@@@+  @ @                                   ",
"                                                                               @###@@@                                          ",
"                                                                                           #                                    ",
"                                                                                                                                ",
"                                                                                                                                ",
"                                                                                                                                ",
"                                                                                                                                ",
"                                                                                                                                ",
"                                                                                                                                ",
"                                                                                                                                ",
"                                                                                                                                ",
"                                                                                                                                ",
"                                                                                                                                ",
"                                                                                                                                ",
"                                                                                                                                ",
"                                                                                                                                ",
"                                                                                                                                ",
"                                                                                                                                ",
"                                                                                                                                ",
"                                                                                                                                ",
"                                                                                                                                ",
"                                                                                                                                ",
"                                                                                                                                ",
"                                                                                                                                ",
"                                                                                                                                ",
"                                                                                                                                ",
"                                                                                                                                ",
"                                                                                                                                ",
"                                                                                                                                ",
"                                                                                                                                ",
"                                                                                                                                "
};
