/* XPM */
static char *result[] = {
/* columns rows colors chars-per-pixel */
"128 128 8 1 ",
"  c #171628",
". c #352D47",
"X c #353D4D",
"o c #3D5D63",
"O c #66A269",
"+ c #B2DD6F",
"@ c #FEE691",
"# c #FFFFEC",
/* pixels */
"                                                                                                                                ",
"                                                                                                                                ",
"                                                                                                                                ",
"                                                                                                                                ",
"                                                                                                                                ",
"                                                                                                                                ",
"                                                                                                                                ",
"                                                                                                                                ",
"                                                                                                                                ",
"                                                                                                                                ",
"                                                                                                                                ",
"                                                                                                                                ",
"                                                                                                                                ",
"                                                                                                                                ",
"                                                                                                                                ",
"                                                                                                                                ",
"                                                                                                                                ",
"                                                                                                                                ",
"                                                                                                                                ",
"                                                                                                                                ",
"                                                                                                                                ",
"                                                    #                                                                           ",
"                                                    #                                                                           ",
"                                                   #@                                                                           ",
"                                                   #                                                                            ",
"                                                   #                                                                            ",
"                                                  @#          +@@                                                               ",
"                                                  @@     ++      @                                                              ",
"                                                  #@    ++        @                                                             ",
"                                                  #+    ++                                                                      ",
"                                                  #+   ++                                                                       ",
"                                                  #    ++                                                                       ",
"                                                  #    +O                                                                       ",
"                                                  #   O@   O+++                                                                 ",
"                                                  #   ++  O++@@@@                                                               ",
"                                                  #   ++  O+++@##@                                                              ",
"                                                  #O  @+  OOOO++@##                                                             ",
"                                                 @#OO @+  oOOOO++@##                                                            ",
"                                                 @#O+ @+  oO++++++@##                                                           ",
"                                                  #++ @+ oO++++++++@#@                                                          ",
"                                                  @++ @O o++++++++++@#@                                                         ",
"                                                  @++O@+ O++++O+O++++@#                                                         ",
"                                                + @++O@+ O+++OOOOOO+++@@                                                        ",
"                                                + +@+O@+O+++OOOOOOoO+++#                                                        ",
"                                                @ +@+O@+O++OOoX.    O+ +#                                                       ",
"                                                @  @++@+O@+OOOXXXX    + @@                                                      ",
"                                                @ @@O+@@+@+o+OoooooX     @                                                      ",
"                                                ++@@O+@@+@OO+OoOOOOoX     @                                                     ",
"                                                 ++++++@+@OO@OOOOOOOOX                                                          ",
"                                                 @ ++++O+@OO@+O+OOooOOX                                                         ",
"                                                 @ O@++O+@OO@++OOOoooooX                                                        ",
"                                                 @ @@++O+@OO@+O+OOOoXooo                                                        ",
"                                                 ++@@O@O+@OO@O+OOOOooXooo                                                       ",
"                                                  @@+++O+@OO@++@+OOOOX.ooo                                                      ",
"                                                  @@O++O+#+O@+@@@+OOOOXXooo                                                     ",
"                                                  @@@@+O+#+OO@####+@OOO Xoo                                                     ",
"                                                  ++@+OO+@@OO@#@@##O@OO. ooO                                                    ",
"                                                   @@O+O+@@OO@@@+@#@#+OO XoO @                                                  ",
"                                                   @@#+O+@@OO@@OO+@#+@OOX ooO                                                   ",
"                                                   @O#+O+@@+O@@O+@+#@#+OO XoO +                                                 ",
"                                                   +@#OO+@#+O@@O+@@@#+@OO OoO                                                   ",
"                                                    ###+O@@@O+@O+@@+@#@OOOO oO                                                  ",
"                                                    @O#+O@@@++@O+@@@@#+@+OO oO @                                                ",
"                                                    O@#OO+@@++@+o@@@+#@@OOXO                                                    ",
"                                                     ###OO@@@O@+O+@@O@#OOOOO  O +                                               ",
"                                                     @+#OO@@@++@+O+@@+#+@+OOO O @                                               ",
"                                                     O###O+@@++++O@@@+@@@OOoO   #                                               ",
"                                                      #O#OO@@@+++O@@@O@@OO+OO  O +                                              ",
"                                                    + +@#@O+@@+++O@@@@+@+++OO    @                                              ",
"                                                    +  #@#OO@@++OO@@@@+@+++OoO   #                                              ",
"                                                       @@#@O+@++OO@@@++@+O++OO                                                  ",
"                                                     @  #@#+O+++OO@@++O@+OO+OO    @                                             ",
"                                                        @@#@oO++OO++++O+++O+OOO   @                                             ",
"                                                      +  #@@OOO+OOoOO+#+++O+OOO   @                                             ",
"                                                      +  @@@+oOOOOooO+#++OO++++                                                 ",
"                                                       +  #+@OXoO+oOO+@++O++++O                                                 ",
"                                                       +  +#@+o.O++O+@@++X+O@+     @                                            ",
"                                                    # + +  #@@OX.oO++++++X++@OO+   @                                            ",
"                                                     @@ +  O#++oX.oOOO+O+XO+@+++   @                                            ",
"                                                     # @ +  +#O+o..XoOoO+XO+++@+                                                ",
"                                                      @@ OO  @@OOXX.XooO+X+@+@@                                                 ",
"                                                      #@@ +   @@OOoXXooO+o+@+@@                                                 ",
"                                                       #@+ O   ++OOooooO+O+@+@ +                                                ",
"                                                       @@@ O    OOOOOOoO+O+@+@O@                                                ",
"                                                        #@+ O     oOOOoO@++@@@+@                                                ",
"                                                         #@+@O     XooX++++@@@+@                                                ",
"                                                         ##@O+       Xo+@++@@@@@                                                ",
"                                                          ##+ +       O+++O#@@@@O                                               ",
"                                                           #@++      oO++OO#@@@@+                                               ",
"                                                           @#@+     oO+@OOo#@@@@+                                               ",
"                                                            ##@+O   OO++Ooo#@@@@+                                               ",
"                                                             ##@++OOO+@+ooO#@@@ +                                               ",
"                                                              ###@@++@@+  +#@@@ @                                               ",
"                                                               @##@@@@+O  +#@@@ @                                               ",
"                                                                @##@@@+   @#@@@ @                                               ",
"                                                                 +@@++O  O@@@@@ @                                               ",
"                                                                  +++O   O@@@@# @                                               ",
"                                                                         O@@@@@#+                                               ",
"                                                                         O@@@@##                                                ",
"                                                                         +@@+@@#                                                ",
"                                                                         +@@@@@#                                                ",
"                                                                @       +@@@+@ #                                                ",
"                                                                 #@    +@@@+@@ @                                                ",
"                                                                  ###@@@@@+ @@#                                                 ",
"                                                                    @@@@@   @ #                                                 ",
"                                                                              @                                                 ",
"                                                                             #                                                  ",
"                                                                            @                                                   ",
"                                                                                                                                ",
"                                                                                                                                ",
"                                                                                                                                ",
"                                                                                                                                ",
"                                                                                                                                ",
"                                                                                                                                ",
"                                                                                                                                ",
"                                                                                                                                ",
"                                                                                                                                ",
"                                                                                                                                ",
"                                                                                                                                ",
"                                                                                                                                ",
"                                                                                                                                ",
"                                                                                                                                ",
"                                                                                                                                ",
"                                                                                                                                ",
"                                                                                                                                ",
"                                                                                                                                ",
"                                                                                                                                ",
"                                                                                                                                "
};
