/* XPM */
static char *result[] = {
/* columns rows colors chars-per-pixel */
"128 128 8 1 ",
"  c #171628",
". c #352D47",
"X c #353D4D",
"o c #3D5D63",
"O c #66A269",
"+ c #B2DD6F",
"@ c #FEE691",
"# c #FFFFEC",
/* pixels */
"                                                                                                                                ",
"                                                                                                                                ",
"                                                                                                                                ",
"                                                                                                                                ",
"                                                                                                                                ",
"                                                                                                                                ",
"                                                                                                                                ",
"                                                                                                                                ",
"                                                                                                                                ",
"                                                                                                                                ",
"                                                                                                                                ",
"                                                                                                                                ",
"                                                                                                                                ",
"                                                                                                                                ",
"                                                                                                                                ",
"                                                                                                                                ",
"                                                                                                                                ",
"                                                                                                                                ",
"                                                                                                                                ",
"                                                                                                                                ",
"                                                                                                                                ",
"                                                                                                                                ",
"                                                                                                                                ",
"                                                                                                                                ",
"                                                                                                                                ",
"                                                                                                                                ",
"                                                                                                                                ",
"                                                                                                                                ",
"                                                                                                                                ",
"                                                                                                                                ",
"                                                                                                                                ",
"                                                                                                                                ",
"                                                                                                                                ",
"                                                                                                                                ",
"                                                                                     ++                                         ",
"                                                                                  O++                                           ",
"                                                                       @        OO+                                             ",
"                                                                      @        OOOOO                                            ",
"                                                                     @       OOO+O oOO+O                                        ",
"                                                                    @       OOO+OO+++@@@@+                                      ",
"                                                                   @@      OO+OO++@@@@@@@@+                                     ",
"                                                                  @@       @OO++@@@@@@@@@@@                                     ",
"                                                                  @       +OO+++++++@@@@@@@                                     ",
"                                                                 # +     +O+++OOO++@@@@@@@@                                     ",
"                                                                #++     +O++O OO++@@@@@@@@@                                     ",
"                                                               #@+     OO+Oo OO+++@###@@@@@                                     ",
"                                                              @@+     OOOOo +OOO+OO@##@@@@@ +                                   ",
"                                                             @#+O    OOOooO++OOOOOO+##@@+@@#+                                   ",
"                                                             #++    OOOoo+@++OOOOOOO@#@@@@ #@                                   ",
"                                                            #++     OOoO@@@@+++OOOOO+@@@+@ #@                                   ",
"                                                           #@+O    O oO@#@@+++++OOOO+@@@+@ #                                    ",
"                                                          +#++    O o+##@+++++++++OO+@@@  @#                                    ",
"                                                          #++ O  O o+##@+++O++++++Oo++@+  @#                                    ",
"                                                         #@+O+    X+#@++O@+OOO++++OoO+@   @@                                    ",
"                                                        @#++O    X+#@+O+@+oXXOO+++Oo +@   @                                     ",
"                                                        #++OO    +#@OO@@OX....O+++Ooo@+   @                                     ",
"                                                       #@+OO    O#@OO@@OX.X...O+++O  @    #                                     ",
"                                                      +@++O    O@@OO@@OooOOoX.O@++o +@                                          ",
"                                                      #++OO    @#OO@#OO+@@@Oo.O@+O  @                                           ",
"                                                     @+++O    +#+O+#+O@###@+oX+@OO  @                                           ",
"                                                     @++OO   O#@O+#++@#@##@OoX+@Oo @                                            ",
"                                                    @+++O   o@@OO@@+@@@@@@@OoO@+   @                                            ",
"                                                    @O+OO   +#+O@#OO@@@++@+oo+@Oo                                               ",
"                                                   @O++O   O@@O+#OOO@@+++@Ooo@@   #                                             ",
"                                                   +O++o   +#+O@O+OOO@+O++ooO@+o                                                ",
"                                                  +O++O   O@@++O++OOO@+O+ooO@@O  #                                              ",
"                                                 ++O++o   +#@+O++OOO@@OO+XOO#+O                                                 ",
"                                                 OOO++X  O@#@@@@++OO@+o+oXO@@   #                                               ",
"                                                +O ++O ..O@##@@++++@@OOOXo+#+o @                                                ",
"                                                 OO++oXXX+@@@@++++O@OOOXXO@@   #                                                ",
"                                                O O++XXXoO++++++++@+o+o.O+#+  #                                                 ",
"                                                  O++XooOOOOO++@+@@O++.oO#@                                                     ",
"                                                  +++XOOO+OO+@@@O@O+OXXO@#   #                                                  ",
"                                              +  O+++oOO++O+@@@+@+O@o O+#+  @                                                   ",
"                                                 O+++OOOO+@@@@+@+o#O oO#@                                                       ",
"                                             +   O+@@+++@@@@@+@+o#+XX+@#   #                                                    ",
"                                             +   O+@@@@@#@@@+O+o@+oX++#                                                         ",
"                                      @      O   O+@@###@@@+O+o@@OX+O#@                                                         ",
"                                      #     +O  oO+@@@@@@@+OOo+#OXOO@#                                                          ",
"                                      @     +   oOO++@@@++OOoO#+XO @#                                                           ",
"                                      @     +O  ooOO++++OOOoO#@XO@@#                                                            ",
"                                     @@    ++O  XOOO++OOOooO#@oO +#@ +                                                          ",
"                                     ##    +@O  ooOOOOOOooO#OoO +@@ +                                                           ",
"                                     ##    +@+o XoooOOOoOO#OoOO+@#                                                              ",
"                                     ##+   +@+OooooO+OO+O#OO+O+@#                                                               ",
"                                     @#@+  +@@++OO++O+@+#OO++ @#                                                                ",
"                                     @##@+OOOOO++++@@#+#+O++ @#                                                                 ",
"                                      ###@+++@@@+O###@#++ + @@                                                                  ",
"                                      @###@@@@@+@@@@@@++O+ @@@ @                                                                ",
"                                       @@@@@++++@@+#+++++ @@@ @                                                                 ",
"                                         OO OO++O@#+@@++ @@# @                                                                  ",
"                                          ++++++@@ @@+  @ # @                                                                   ",
"                                           + +@@++@@+    # @                                                                    ",
"                                          +@@@+ +@ +#   # @                                                                     ",
"                                       +@@@@@+ +@  #   #                                                                        ",
"                                       ++++  +@#  @   #                                                                         ",
"                                            @@@ @@                                                                              ",
"                                         @@@@  @@                                                                               ",
"                                         +++ @@@                                                                                ",
"                                            @@                                                                                  ",
"                                                                                                                                ",
"                                                                                                                                ",
"                                                                                                                                ",
"                                                                                                                                ",
"                                                                                                                                ",
"                                                                                                                                ",
"                                                                                                                                ",
"                                                                                                                                ",
"                                                                                                                                ",
"                                                                                                                                ",
"                                                                                                                                ",
"                                                                                                                                ",
"                                                                                                                                ",
"                                                                                                                                ",
"                                                                                                                                ",
"                                                                                                                                ",
"                                                                                                                                ",
"                                                                                                                                ",
"                                                                                                                                ",
"                                                                                                                                ",
"                                                                                                                                ",
"                                                                                                                                ",
"                                                                                                                                ",
"                                                                                                                                ",
"                                                                                                                                ",
"                                                                                                                                ",
"                                                                                                                                ",
"                                                                                                                                "
};
