/* XPM */
static char *result[] = {
/* columns rows colors chars-per-pixel */
"128 128 8 1 ",
"  c #171628",
". c #352D47",
"X c #353D4D",
"o c #3D5D63",
"O c #66A269",
"+ c #B2DD6F",
"@ c #FEE691",
"# c #FFFFEC",
/* pixels */
"                                                                                                                                ",
"                                                                                                                                ",
"                                                                                                                                ",
"                                                                                                                                ",
"                                                                                                                                ",
"                                                                                                                                ",
"                                                                                                                                ",
"                                                                                                                                ",
"                                                                                                                                ",
"                                                                                                                                ",
"                                                                                                                                ",
"                                                                                                                                ",
"                                                                                                                                ",
"                                                                                                                                ",
"                                                                                                                                ",
"                                                                                                                                ",
"                                                                                                                                ",
"                                                                                                                                ",
"                                                                                                                                ",
"                                                                                                                                ",
"                                                                                                                                ",
"                                                                                                                                ",
"                                                                                                                                ",
"                                                                                                                                ",
"                                                                                                                                ",
"                                                                                                                                ",
"                                                                                                                                ",
"                                                                                                                                ",
"                                                                                                                                ",
"                                                                                                                                ",
"                                                                                                                                ",
"                                                                                                                                ",
"                                                                                                                                ",
"                                                                                                                                ",
"                                                                                                                                ",
"                                                                                                                                ",
"                                                                                                                                ",
"                                                                                                                                ",
"                                                                                                                                ",
"                                                                                                                                ",
"                                                                                                                                ",
"                                                                                                                                ",
"                                                                                                                                ",
"                                                                                                                                ",
"                                                                                                                                ",
"                                                                                                                                ",
"                                                                                                                                ",
"                                                                                                                                ",
"                                                                                                                                ",
"                                                                                                                                ",
"                                                                                                                                ",
"                                                           @@#@@@@@@@@+++++                                                     ",
"                                                     +@@@@@@@@@@@@@@@@@@@@@@@@@@@@@@@@@                                         ",
"                                                  +@@@@@@@@@@@@###@@@@+++O  @@@@@@       @@##@                                  ",
"                                               +@@@@@@@@@@####@++O@@@++                        @###                             ",
"                                       +    O+@@@@@@+@@##@O#@@@++++++OOOO+++++++++++++OO            @#                          ",
"                                    ++O   OO+@@@+++@@@+@@@@++OO+++@+++++++++++++++@@@@#@@@@++                                   ",
"                                   +OO   O+@@@++O+++O@@@+O++++++OOOooo                O++@@###@@+                               ",
"                               @  OOO   O+@++OOO+OOOOO++++++OOOOOOOOOOOOOOOOOooo           O+@@###@                             ",
"                              @  OOOO OO++++OoOO++++++++++OOO+++++++++++++O+OOOOOOOOOOo       O+@@###@                          ",
"                             @#  OOO OOO+++OoOO+@@@@@++OO++++OOooXXXXXXXoXoXoXXXXO+++Ooooo       +@@###@                        ",
"                            +##@+OO  OOOO+OXoO+@@#@@++O+OOoX.....XXooooooooooOOOOOooO@@@+      OO  +@@@##@                      ",
"                            @#@+OOO  OOOOOOXOo+@##@@+O+oX...XoO++@@OOOOOOO+OOOOXXoOOOOO+##@     O+O  +@@@##                     ",
"                            +#@+OOOoooOOOOOooOO@##@@+OoX.Xo+@##OO+O+++O++++++@++OO.XXoO+O@##+    O++  +@@@@#                    ",
"                    @        @@+OOOooooOOOOXoOO+@##@@+OXoO@##@@OOO++@+++++++@@@@@+OOX XoO++##+     ++   @+ @#                   ",
"                     @@      +++OOoooooX OOXoOOOO@@##@@+O@##@@@@O++@@@++O++@@@@@@@+OOOXXXO++##+    O@+   @   #                  ",
"                      #@@+  +OOOOoooooOoX   XoOOO+O+@@###@@@++@@@@#@@++OO++@@@@@@@+OOOOoooO+@##OO   ++        #                 ",
"                       @##@+++++Oo  XooOooX..XoOOO+@OO+++@@@@@@@@@++O++@O+@@@#@@@@+OOOOOOooO+##+@+O ++                          ",
"                         @##@@+++++OO  ooOOoXXXXoOOO++@@###oOo@@@@@++++O+@##@@@+++OOOO+O@OOO+@#+#@@+ +                          ",
"                           @###@++++++OOOOOOOoooXooOOOOO+++++@++++++O+@@@#@@++++OOoOO++O@+O++#@+##@@                            ",
"                              @###@++++++++++O+O+OOOOOOOOOOO+OOO+++@@@@@@++OOO+OOoO++++#@++O@@@O###@                            ",
"                               + +@###@++++++++++++++++++++++++@++++++OO++O+OOOOoO+@@+O#@+O@@@+ ####                            ",
"                                 O+O  +@@@@++OOOOOOOOOOOOOOOOOO++@@@@++OOOOOOOOo+@@@+#@@@ @@@+  #@@@@                           ",
"                                    O+++Oo   OOOOOOOOOXXXooOOOOOOOoooOoOOOOOoO+@@@+O@@@++@@@   #@@@@@                           ",
"                                        OOOOOOOOOooooXoXoXoXooooooOOOOOOOooO+@@@@O@@++ @@+   @@@@@@@                            ",
"                            @@                oOoOOOOOOOoOoOoOoOoOooooX O+@##@+ ++++ ++   +@@@@++                               ",
"                                @@@                                 ++@###@+@+OO++       +@@@                                   ",
"                                       +                       @@####@+ ++O  OO         @@+                                     ",
"                                                     @@#######@@  +                   @@                                        ",
"                                                                                                                                ",
"                                                                                                                                ",
"                                                                                                                                ",
"                                                                                                                                ",
"                                                                                                                                ",
"                                                                                                                                ",
"                                                                                                                                ",
"                                                                                                                                ",
"                                                                                                                                ",
"                                                                                                                                ",
"                                                                                                                                ",
"                                                                                                                                ",
"                                                                                                                                ",
"                                                                                                                                ",
"                                                                                                                                ",
"                                                                                                                                ",
"                                                                                                                                ",
"                                                                                                                                ",
"                                                                                                                                ",
"                                                                                                                                ",
"                                                                                                                                ",
"                                                                                                                                ",
"                                                                                                                                ",
"                                                                                                                                ",
"                                                                                                                                ",
"                                                                                                                                ",
"                                                                                                                                ",
"                                                                                                                                ",
"                                                                                                                                ",
"                                                                                                                                ",
"                                                                                                                                ",
"                                                                                                                                ",
"                                                                                                                                ",
"                                                                                                                                ",
"                                                                                                                                ",
"                                                                                                                                ",
"                                                                                                                                ",
"                                                                                                                                ",
"                                                                                                                                ",
"                                                                                                                                ",
"                                                                                                                                ",
"                                                                                                                                ",
"                                                                                                                                ",
"                                                                                                                                ",
"                                                                                                                                ",
"                                                                                                                                ",
"                                                                                                                                ",
"                                                                                                                                ",
"                                                                                                                                "
};
