/* XPM */
static char *result[] = {
/* columns rows colors chars-per-pixel */
"128 128 8 1 ",
"  c #171628",
". c #352D47",
"X c #353D4D",
"o c #3D5D63",
"O c #66A269",
"+ c #B2DD6F",
"@ c #FEE691",
"# c #FFFFEC",
/* pixels */
"                                                                                                                                ",
"                                                                                                                                ",
"                                                                                                                                ",
"                                                                                                                                ",
"                                                                                                                                ",
"                                                                                                                                ",
"                                                                                                                                ",
"                                                                                                                                ",
"                                                                                                                                ",
"                                                                                                                                ",
"                                                                                                                                ",
"                                                                                                                                ",
"                                                                                                                                ",
"                                                                                                                                ",
"                                                                                                                                ",
"                                                                                                                                ",
"                                                                                                                                ",
"                                                                                                                                ",
"                                                                                                                                ",
"                                                                                                                                ",
"                                                                                                                                ",
"                                                                                                                                ",
"                                                                                                                                ",
"                                                                                                                                ",
"                                                                                                                                ",
"                                                                                                                                ",
"                                                                                                                                ",
"                                                                                                                                ",
"                                                                                                                                ",
"                                                                                                                                ",
"                                                                                                                                ",
"                                                                                                                                ",
"                                                                                                                                ",
"                                                                                                                                ",
"                                                                                                                                ",
"                                                                                                                                ",
"                                                                                                                                ",
"                                                                                                                                ",
"                                                                                                                                ",
"                                                                                                                                ",
"                                                                                 @                                              ",
"                                                                              @@                @####                           ",
"                                                                           @#@            @##@                                  ",
"                                                                         @#          @@#@                                       ",
"                                                                       #@         @@@                                           ",
"                                                                    +#@       +@@+                   @                          ",
"                                                                  @#@+  @+ +@@+    o  ++@@@##########@                          ",
"                                                                +#@++ @@+@@@O oOO O++@###@@@@@@@@#######@                       ",
"                                                               ##+ @@+@@@+OoOOOO+@@@@++OOOOOOOO+++@@@@@@#@                      ",
"                                                             @#@ @@@+@@@OOO+OO+@@+OooOoOooo       ++@@@@@@#                     ",
"                                                           @#@ @@@@@@@+O+Oo+@++OOOOO++++++++OO+OO   +@@   @                     ",
"                                                         +#@ @@@@@@@+++OO+@+OOooXXXXooO++@@@@@++++                              ",
"                                                        @#@@@@@@##+++oO++OoXX.....X.XOOo++@##@@@+++                             ",
"                                                      O@@+@@@@@#@+OoO@+OooXooOOOO++@@####@+####@@++                             ",
"                                                     +@ @@@@@#@+OX+@+OOO+++OOOO++@@@OO+@###@O###@O@                             ",
"                                                    @@+@@@@##OOXO@+O++++OooooooOO+@##@+O+@##+###@ +                             ",
"                                                  O@ @@@@@#+OXO++O@@+OOOOOOOOooooO@##@+++O@#@O@@@                               ",
"                                                 O++@@@@#@+o.+++#@+++++@@@@+OOOOOO+##@+++@+#@O@@                                ",
"                                                O++@@@@@+OXO++O#@++@@@@@OO+++++++OOOO@++@@+#@O@                                 ",
"                                               O++@@+@@+o.+++#@@+@@@@@OOO++@@@@@++OOOO+@+@+#@                                   ",
"                                              o @@@+@++oO++O#@@@@@@++OO+++@@@@@@@+OO+O@++@@@+                                   ",
"                                               @@@++++o+++O#@@@@@@+OO+++++@@@@@@++OO+O++@+@@                                    ",
"                                             O+@+O++OO+++O#@@@@@@O++++++++@@#@@@+OO++O++@@@+                                    ",
"                                         +  O+@+O++O+@++O@@@@@@@O++@@@+OO+@#@@++OO+@+O+@+@+                                     ",
"                                   +    +   +@+OOO++@++O+@@@@@@OOO+@@+OO+@#@@++@+O@+O @O@+                                      ",
"                                  +    +O  +++OOO+@@@+O++@@@@@++O+@@+OOO@#@@+O@+O+@+ @ @+                                       ",
"                                 @+O  +O  O++OOO+@@@@+O###@@+O+O@#@O+OO@#@+OO++++@+ @ @+                                        ",
"                                #@O  +OO O++OoOO+##@@+O@++OO+O@#@+OOoO@@@+O@OO++@+ @ @                                          ",
"                               #@+O  OOXOO++OoOO@###@++OOO++@#@+OOoO+@@+O#+O+++@+   @                                           ",
"                               #@+  OOOoOO+OOXXO+####@@@@###@+OOoOO+@@O@@O +O@@+   +                                            ",
"                              @#@+  OOoOOOOO..XO++@@###@@++OOoooO+@@+O@+   O@@+                                                 ",
"                              +@@+ OOOoOOOOOoooooOO+++OOOoooXoO++@+O@@    O@@O                                                  ",
"                              ++++OoooooOOOOOOOoooX. .XXoXooOO+++O@@O    +#@                                                    ",
"                               O+OO      OOOOO      .XXoooo+++OO+@O    O@#+                                                     ",
"                                                    XoooO+++O +@+     +##                                                       ",
"                                                  oOOO++++O +@O      @#+                                                        ",
"                                              ooOO+++++O  ++       +#@                                                          ",
"                                          oOOOO+++++OO  ++        ##                                                            ",
"                                    OOOOOOOO+++++OO OO+         @#                                                              ",
"                              O+++O+O+++++++++OOO+O+          @#@                                                               ",
"                       @@@@+++++++++++++++++++++O           @#@                                                                 ",
"                        @####@@@@@@@@@@@@@@@+             @#                                                                    ",
"                           @##########@++               @#                                                                      ",
"                                   @@                 @#                                                                        ",
"                         ##@@@@                     @                                                                           ",
"                                                                                                                                ",
"                                                                                                                                ",
"                                                                                                                                ",
"                                                                                                                                ",
"                                                                                                                                ",
"                                                                                                                                ",
"                                                                                                                                ",
"                                                                                                                                ",
"                                                                                                                                ",
"                                                                                                                                ",
"                                                                                                                                ",
"                                                                                                                                ",
"                                                                                                                                ",
"                                                                                                                                ",
"                                                                                                                                ",
"                                                                                                                                ",
"                                                                                                                                ",
"                                                                                                                                ",
"                                                                                                                                ",
"                                                                                                                                ",
"                                                                                                                                ",
"                                                                                                                                ",
"                                                                                                                                ",
"                                                                                                                                ",
"                                                                                                                                ",
"                                                                                                                                ",
"                                                                                                                                ",
"                                                                                                                                ",
"                                                                                                                                ",
"                                                                                                                                ",
"                                                                                                                                ",
"                                                                                                                                ",
"                                                                                                                                ",
"                                                                                                                                ",
"                                                                                                                                ",
"                                                                                                                                ",
"                                                                                                                                ",
"                                                                                                                                ",
"                                                                                                                                ",
"                                                                                                                                ",
"                                                                                                                                ",
"                                                                                                                                ",
"                                                                                                                                "
};
