/* XPM */
static char *result[] = {
/* columns rows colors chars-per-pixel */
"128 128 44 1 ",
"  c #171628",
". c #24192A",
"X c #241B2C",
"o c #2F1D2D",
"O c #192433",
"+ c #342532",
"@ c #5F2E3A",
"# c #722730",
"$ c #762B36",
"% c #352D47",
"& c #353D4D",
"* c #6E3541",
"= c #763542",
"- c #7E3641",
"; c #3D5D63",
": c #474647",
"> c #4C5E5C",
", c #486161",
"< c #5D726D",
"1 c #61736E",
"2 c #6C766F",
"3 c #8D3837",
"4 c #9B3A42",
"5 c #A73747",
"6 c #C64341",
"7 c #D34444",
"8 c #D64544",
"9 c #DF4D43",
"0 c #DD6441",
"q c #E36042",
"w c #F57844",
"e c #669D67",
"r c #66A269",
"t c #BAAC5D",
"y c #B2DD6F",
"u c #6C8C83",
"i c #81A89C",
"p c #9ABCAE",
"a c #A1BFB1",
"s c #9DCCBE",
"d c #FEE691",
"f c #F2E5A2",
"g c #C7E6D2",
"h c #FFFFEC",
/* pixels */
"                                                                                                                                ",
"                                                                                                                                ",
"                                                                                                                                ",
"                                                                                                                                ",
"                                                                                                          3                     ",
"                                                                                                          .                     ",
"                                                                                                                                ",
"                                                                                                                                ",
"                                                                                                                                ",
"                                                                                                                                ",
"                                                                                                                                ",
"                                 3                                                                                              ",
"                                 .                                                                                              ",
"                                                                                                                                ",
"                                                                                                                                ",
"                                                                                                                                ",
"                                                                                                                                ",
"                                                                                  O2                                            ",
"                                                                                  ,g                                            ",
"                                                                                                                                ",
"                                                                                                                                ",
"                                                                                                                                ",
"                                                                                                                                ",
"                                                                                                                                ",
"                                                                                                                                ",
"                                                                                                                                ",
"                                                                                                                                ",
"                                                                                                                                ",
"                                                                                                                                ",
"                                                                                                                                ",
"           3                                                                                                                    ",
"           .                                                                                                                    ",
"                                                                                                                 3              ",
"                                                                                                                 .              ",
"                                                                                                                                ",
"                                                                                                                                ",
"                                                                                                                                ",
"                                                                                                                                ",
"                                                                                                                                ",
"                                              :sa                                                                               ",
"                                               pi                                d                                              ",
"                                                                              dd                dhhhh                           ",
"                                                                           dhd           >fhhd                                  ",
"                                                                         dh          ddhd<u                                     ",
"                                                                       hd         ddd                                           ",
"                                                                    yhd       yddy                   d                          ",
"                                                                  dhdy  dy yddy    ;  yydddhhhhhhhhhhd                          ",
"                                                                yhdyy ddydddr ;rr ryydhhhddddddddhhhhhhhd                       ",
"                                                               hhy ddydddyr;rrrryddddyyrrrrrrrryyyddddddhd                      ",
"                                                             dhd dddydddrrryrryddyr;;r;r;;;       yyddddddh                     ",
"                                                           dhd dddddddyryr;ydyyrrrrryyyyyyyyrryrr   ydd   d                     ",
"                                                         yhd dddddddyyyrrydyrr;;&&&&;;ryydddddyyyy                              ",
"                                                        dhddddddhhyyy;ryyr;&&%%%%%&%&rr;yydhhdddyyy                             ",
"                                                      rddydddddhdyr;rdyr;;&;;rrrryyddhhhhdyhhhhddyy                             ",
"                                                     yd dddddhdyr&ydyrrryyyrrrryydddrrydhhhdrhhhdrd                             ",
"                                                    ddyddddhhrr&rdyryyyyr;;;;;;rrydhhdyrydhhyhhhd y                             ",
"                                                  rd dddddhyr&ryyrddyrrrrrrrr;;;;rdhhdyyyrdhdrddd                               ",
"                                                 ryyddddhdy;%yyyhdyyyyyddddyrrrrrryhhdyyydyhdrdd                                ",
"                                                ryydddddyr&ryyrhdyydddddrryyyyyyyrrrrdyyddyhdrd                                 ",
"                                               ryyddyddy;%yyyhddydddddrrryydddddyyrrrrydydyhd                                   ",
"                                              ; dddydyy;ryyrhddddddyyrryyydddddddyrryrdyydddy                                   ",
"                                               dddyyyy;yyyrhddddddyrryyyyyddddddyyrryryydydd                                    ",
"                                             rydyryyrryyyrhddddddryyyyyyyyddhdddyrryyryydddy                                    ",
"                                         y  rydyryyrydyyrdddddddryydddyrrydhddyyrrydyrydydy                                     ",
"                                   y    y   ydyrrryydyyryddddddrrryddyrrydhddyydyrdyr drdy                                      ",
"                                  y    tr  yyyrrrydddyryydddddyyryddyrrrdhddyrdyrydy d dy                                       ",
"                                 dyr  ye  ryyrrryddddyrhhhddyryrdhdryrrdhdyrryyyydy d dy                                        ",
"                                hdr  yrr ryyr;rryhhddyrdyyrryrdhdyrr;rdddyrdrryydy d d          >1                              ",
"                               hdyr  rr&rryyr;rrdhhhdyyrrryydhdyrr;ryddyrhyryyydy   d           <u                              ",
"                               hdy  rrr;rryrr&&ryhhhhddddhhhdyrr;rryddrddr yrddy   y                                            ",
"                              dhdy  rr;rrrrr%%&ryyddhhhddyyrr;;;ryddyrdy   rddy                                                 ",
"                              yddy rrr;rrrrr;;;;;rryyyrrr;;;&;ryydyrdd    rddr                                                  ",
"                              yyyyr;;;;;rrrrrrr;;;&% %&&;&;;rryyyrddr    yhd                                                    ",
"                               ryrr      rrrrr      %&&;;;;yyyrrydr    rdhy                                                     ",
"                                                    &;;;ryyyr ydy     yhh                                                       ",
"      #0q$                                        ;rrryyyyr ydr      dhy                                                        ",
"      6w95X                                   ;;rryyyyyr  yy       yhd                                                   3      ",
"      478*o                               ;rrrryyyyyrr  yy        hh                                                     .      ",
"      +=-@                          rrrrrrrryyyyyrr rry      3  dh                                                              ",
"                              ryyyryryyyyyyyyyrrryry         .dhd                                                               ",
"                       ddddyyyyyyyyyyyyyyyyyyyyyr           dhd                                                                 ",
"                        dhhhhdddddddddddddddy             dh                                                                    ",
"                           dhhhhhhhhhhdyy               dh                                                                      ",
"                                   dd                 dh                                                                        ",
"                         hhdddd                     d                                                                           ",
"                                                                                                                                ",
"                                                                                                                                ",
"                                                                                                                                ",
"                                                                                                                                ",
"                             >1                                                                                                 ",
"                             <u                                                                                                 ",
"                                                                                                                                ",
"                                                                                                                                ",
"                                                                                                                                ",
"                                                                                                                                ",
"                                                                                                                                ",
"                                                                                                                                ",
"                                                                                                         O2                     ",
"                                                                                                         ,g                     ",
"                                                                                        3                                       ",
"                                                                                        .                                       ",
"                                                                                                                                ",
"                                                                                                                                ",
"                                                                                                                                ",
"                                                                                                                                ",
"                                                                                                                                ",
"                                                                                                                                ",
"                                                                                                                                ",
"                                                                                                                                ",
"                                                                                                                                ",
"                                                                                                                                ",
"                                                                                                                                ",
"                                                                                                                                ",
"                                                                                                                                ",
"                                                                                                                                ",
"                                                                                                                                ",
"                                                                                                                                ",
"                                                                                                                                ",
"                                                                                                                                ",
"                                                                                                                                ",
"                                                         3                                                                      ",
"                                                         .                                                                      ",
"                                                                                                                                ",
"                                                                                                       3                        ",
"                                                                                                       .                        ",
"                                                                                                                                ",
"                                                                                                                                ",
"                                                                                                                                "
};
