/* XPM */
static char *result[] = {
/* columns rows colors chars-per-pixel */
"128 128 8 1 ",
"  c #171628",
". c #352D47",
"X c #353D4D",
"o c #3D5D63",
"O c #66A269",
"+ c #B2DD6F",
"@ c #FEE691",
"# c #FFFFEC",
/* pixels */
"                                                                                                                                ",
"                                                                                                                                ",
"                                                                                                                                ",
"                                                                                                                                ",
"                                                                                                                                ",
"                                                                                                                                ",
"                                                                                                                                ",
"                                                                                                                                ",
"                                                                                                                                ",
"                                                                                                                                ",
"                                                                                                                                ",
"                                                                                                                                ",
"                                                                                                                                ",
"                                                                                                                                ",
"                                                                                                                                ",
"                                                                                                                                ",
"                                                                                                                                ",
"                                                                                                                                ",
"                                                                                                                                ",
"                                                                                                                                ",
"                                                                                                                                ",
"                                                                                                                                ",
"                                                                                                                                ",
"                                                                                                                                ",
"                                                                                                                                ",
"                                                                                                                                ",
"                                                                                                                                ",
"                                                                                                                                ",
"                                                                                                                                ",
"                                                                                                                                ",
"                                                                                                                                ",
"                                                                                                                                ",
"                                                                                                                                ",
"                                                                                                                                ",
"                                                                                                                                ",
"                                                                                                                                ",
"                                                                                                                                ",
"                                                                                                                                ",
"                                                                                                                                ",
"                             @                                                                                                  ",
"                             @         @@@                                                                                      ",
"                             #@      @@##                                                                                       ",
"                             @#+    @##@@ OOOO++++                                                                              ",
"                              #@    @#@++OOOOOOO                                                                                ",
"                              @#+ + @@+OOOOOO                                                                                   ",
"                               #@++ +++OOO   OOOOOOOO                                                                           ",
"                               @#@+OO+OOOo  OOOO++++++++O                                                                       ",
"                                ##++OOOOooooOOO++++@@@@@@@++                                                                    ",
"                                 #@++oooooooOOOO+OOOOO++@@@@@@+                                                                 ",
"                                 +#@++  ooooOOOOO   oOOO+++@@@@@+                                                               ",
"                                 O@#++O ooooOOOO oOOOOOO++++@@@@@@@                                                             ",
"                                  O#@++O ooo OO XOOO++++OO++@@@@@@@@@                                                           ",
"                             @    + #@++OXOoX OXoOO+@@@++O@@@O@##@@@@@@                                                         ",
"                              @    + #+++OoOX  XoOO@##@@@@+O+@@@+##@@@@#                                                        ",
"                                    +O#+++Ooo..XOOO@##@@@+@+++O@@@+##@@@@@                                                      ",
"                                    O+O@+++OOo.XoOO@##@@++++++++O+@@+##@@@@@                                                    ",
"                                     O+O@+++OoXXoOO+##@+OOOOOO++++++@@+#@@@@@                                                   ",
"                                      OOO@O++OoXoOOO@#@+OOOO+++OO++@+++@@#@@+@                                                  ",
"                                       OOO@O++OoooO++@#+OXX.oo+++OOO++O++O@@@+@@                                                ",
"                                        OO +O+++ooO+@+#@OX.....oO+OOoO+@O+++@@@+@                                               ",
"                                         OO +O+++ooO+#+#@OOOOX...o++OooO+++O@+@@+                                               ",
"                                          OO +O+++oOO@O@#@@###+OX..O++Ooo+@+O O+@@                                              ",
"                                           OO OOO++OOO@O+#@#####@OX.XO+OooO+++ + +@                                             ",
"                                            oOX OO++OOO@#+#@O@@OOO@OXXo++O  O@O  @O@+                                           ",
"                                             oOo O.+++OO@#+@@+@@O+OO+oXXO+Oo O++   #@@                                          ",
"                                              oOoXXXO++OO@@O@#@+O+++OOooXo++o  +@O  @@@                                         ",
"                                                OooXoO++OO+@@+@#@+@++OOOoooO+o  O@+    @                                        ",
"                                            @    OooXoo+++O+@@O@@#@@++OOOoooo+O  O@@O   @                                       ",
"                                             @    oooXOOO+++++@@O+@@+++++Ooooo+O   +@O   @                                      ",
"                                               #   oooXoOOO@++++++OO+++++++OOoXOO   +@+   @                                     ",
"                                                #@   oOooO+O+@@+++++OO++++++OOOXOO   +@+   @                                    ",
"                                                  #   oOooo+@O+@@+OOOO++@@@@+XOO +Oo  +#+   @                                   ",
"                                                   ##   OOooO+@+@@@@@@@@@@@@@OXOOO+O   +#+   @                                  ",
"                                                     #@  oOOooO+O+@@##@@@@@@@+OXOO++O   +#+   @                                 ",
"                                                      @#@  oOOOoO+OO+@@@#@@@@@+.XOo@Oo   +#+   @                                ",
"                                                       +@#+ XOOOOOO+OO+@@@@@@@+O oO+@ o   @#+   #                               ",
"                                                          ##@ ooOOOOOOOO++@@@++OX.OO@@ o  O@#+   #                              ",
"                                                            ##@+OoOOOOOOOOO+++OOOXXO+#+    +@#    #                             ",
"                                                              @#@++OOoOOOOOOOOOOOoXo+##     +#@    #                            ",
"                                                              O @##@++OOoooOOOOOOOXoO@#+    O@#@                                ",
"                                                                O++@#@@@@+++++++O+oXO+#@   O +@#+                               ",
"                                                                  O+@++@@@@@@@++O+OoO+##   OO +##                               ",
"                                                                  +OO++@ O+O+OO##+OoO+##    + +@#@                              ",
"                                                                      +++@@@@#@@@+OOO@#@O   + O@##                              ",
"                                                                          ++@@@@+++O@##@+   +O +@#@                             ",
"                                                                          +@++O+O++@@#@+@O  ++ +@@#                             ",
"                                                                            +@@@@@@@@@+#@+  ++  @@#@                            ",
"                                                                      @         +++++  #@+  @+  @@@#                            ",
"                                                                         @@++++       ##@@++@   @@@#                            ",
"                                                                            @@@@@#######@@ +    + @#                            ",
"                                                                               +@@@@@@###          @@                           ",
"                                                                                  +@@@@@           @@                           ",
"                                                                                    @@@@@           #                           ",
"                                                                                                                                ",
"                                                                                                                                ",
"                                                                                                                                ",
"                                                                                                                                ",
"                                                                                                                                ",
"                                                                                                                                ",
"                                                                                                                                ",
"                                                                                                                                ",
"                                                                                                                                ",
"                                                                                                                                ",
"                                                                                                                                ",
"                                                                                                                                ",
"                                                                                                                                ",
"                                                                                                                                ",
"                                                                                                                                ",
"                                                                                                                                ",
"                                                                                                                                ",
"                                                                                                                                ",
"                                                                                                                                ",
"                                                                                                                                ",
"                                                                                                                                ",
"                                                                                                                                ",
"                                                                                                                                ",
"                                                                                                                                ",
"                                                                                                                                ",
"                                                                                                                                ",
"                                                                                                                                ",
"                                                                                                                                ",
"                                                                                                                                ",
"                                                                                                                                ",
"                                                                                                                                ",
"                                                                                                                                ",
"                                                                                                                                ",
"                                                                                                                                ",
"                                                                                                                                "
};
