/* XPM */
static char *result[] = {
/* columns rows colors chars-per-pixel */
"128 128 41 1 ",
"  c #171628",
". c #24192A",
"X c #241B2C",
"o c #2F1D2D",
"O c #192433",
"+ c #342532",
"@ c #5F2E3A",
"# c #722730",
"$ c #762B36",
"% c #352D47",
"& c #353D4D",
"* c #6E3541",
"= c #763542",
"- c #7E3641",
"; c #3D5D63",
": c #474647",
"> c #4C5E5C",
", c #486161",
"< c #5D726D",
"1 c #61736E",
"2 c #6C766F",
"3 c #8D3837",
"4 c #9B3A42",
"5 c #A73747",
"6 c #C64341",
"7 c #D34444",
"8 c #D64544",
"9 c #DF4D43",
"0 c #DD6441",
"q c #E36042",
"w c #F57844",
"e c #66A269",
"r c #B2DD6F",
"t c #6C8C83",
"y c #81A89C",
"u c #9ABCAE",
"i c #A1BFB1",
"p c #9DCCBE",
"a c #FEE691",
"s c #C7E6D2",
"d c #FFFFEC",
/* pixels */
"                                                                                                                                ",
"                                                                                                                                ",
"                                                                                                                                ",
"                                                                                                                                ",
"                                                                                                          3                     ",
"                                                                                                          .                     ",
"                                                                                                                                ",
"                                                                                                                                ",
"                                                                                                                                ",
"                                                                                                                                ",
"                                                                                                                                ",
"                                 3                                                                                              ",
"                                 .                                                                                              ",
"                                                                                                                                ",
"                                                                                                                                ",
"                                                                                                                                ",
"                                                                                                                                ",
"                                                                                  O2                                            ",
"                                                                                  ,s                                            ",
"                                                                                                                                ",
"                                                                                                                                ",
"                                                                                                                                ",
"                                                                                                                                ",
"                                                                                                                                ",
"                                                                                                                                ",
"                                                                                                                                ",
"                                                                                                                                ",
"                                                                                                                                ",
"                                                                                                                                ",
"                                                                                                                                ",
"           3                                                                                                                    ",
"           .                                                                                                                    ",
"                                                                                                                 3              ",
"                                                                                                                 .              ",
"                                                                                                                                ",
"                                                                                                                                ",
"                                                                                                                                ",
"                                                                                                                                ",
"                                                                                                                                ",
"                             a                :pi                                                                               ",
"                             a         aaa     uy                                                                               ",
"                             da      aadd                                                                                       ",
"                             adr    addaa eeeerrrr                                       >1                                     ",
"                              da    adarreeeeeee                                         <t                                     ",
"                              adr r aareeeeee                                                                                   ",
"                               darr rrreee   eeeeeeee                                                                           ",
"                               adareereee;  eeeerrrrrrrre                                                                       ",
"                                ddrreeee;;;;eeerrrraaaaaaarr                                                                    ",
"                                 darr;;;;;;;eeeereeeeerraaaaaar                                                                 ",
"                                 rdarr  ;;;;eeeee   ;eeerrraaaaar                                                               ",
"                                 eadrre ;;;;eeee ;eeeeeerrrraaaaaaa                                                             ",
"                                  edarre ;;; ee &eeerrrreerraaaaaaaaa                                                           ",
"                             a    r darre&e;& e&;eeraaarreaaaeaddaaaaaa                                                         ",
"                              a    r drrre;e&  &;eeaddaaaareraaarddaaaad                                                        ",
"                                    redrrre;;%%&eeeaddaaararrreaaarddaaaaa                                                      ",
"                                    erearrree;%&;eeaddaarrrrrrrreraarddaaaaa                                                    ",
"                                     erearrre;&&;eerddareeeeeerrrrrraardaaaaa                                                   ",
"                                      eeeaerre;&;eeeadareeeerrreerrarrraadaara                                                  ",
"                                       eeeaerre;;;erradre&&%;;rrreeerrerreaaaraa                                                ",
"                                        ee rerrr;;erardae&%%%%%;eree;eraerrraaara                                               ",
"                                         ee rerrr;;erdrdaeeee&%%%;rre;;errrearaar                                               ",
"                                          ee rerrr;eeaeadaadddre&%%erre;;rare eraa                                              ",
"                                           ee eeerreeeaerdadddddae&%&ere;;errr r ra                                             ",
"                                            ;e& eerreeeadrdaeaaeeeae&&;rre  eae  aear                                           ",
"                                             ;e; e%rrreeadraaraaereer;&&ere; err   daa                                          ",
"                                       3      ;e;&&&erreeaaeadarerrree;;&;rr;  rae  aaa                                         ",
"                                       .        e;;&;erreeraaradararreee;;;er;  ear    a                                        ",
"                                            a    e;;&;;rrreraaeaadaarreee;;;;re  eaae   a       >1                              ",
"                                             a    ;;;&eeerrrrraaeraarrrrre;;;;re   rae   a      <t                              ",
"                                               d   ;;;&;eeearrrrrreerrrrrrree;&ee   rar   a                                     ",
"                                                da   ;e;;ereraarrrrreerrrrrreee&ee   rar   a                                    ",
"                                                  d   ;e;;;raeraareeeerraaaar&ee re;  rdr   a                                   ",
"                                                   dd   ee;;eraraaaaaaaaaaaaae&eeere   rdr   a                                  ",
"                                                     da  ;ee;;ereraaddaaaaaaare&eerre   rdr   a                                 ",
"                                                      ada  ;eee;ereeraaadaaaaar%&e;ae;   rdr   a                                ",
"      #0q$                                             radr &eeeeeereeraaaaaaare ;era ;   adr   d                               ",
"      6w95X                                               dda ;;eeeeeeeerraaarre&%eeaa ;  eadr   d                       3      ",
"      478*o                                                 ddare;eeeeeeeeerrreee&&erdr    rad    d                      .      ",
"      +=-@                                                   3adarree;eeeeeeeeeee;&;rdd     rda    d                            ",
"                                                             .e addarree;;;eeeeeee&;eadr    eada                                ",
"                                                                erradaaaarrrrrrrer;&erda   e radr                               ",
"                                                                  erarraaaaaaarrere;erdd   ee rdd                               ",
"                                                                  reerra erereeddre;erdd    r rada                              ",
"                                                                      rrraaaadaaareeeadae   r eadd                              ",
"                                                                          rraaaarrreaddar   re rada                             ",
"                                                                          rarrererraadarae  rr raad                             ",
"                                                                            raaaaaaaaardar  rr  aada                            ",
"                                                                      a         rrrrr  dar  ar  aaad                            ",
"                                                                         aarrrr       ddaarra   aaad                            ",
"                             >1                                             aaaaadddddddaa r    r ad                            ",
"                             <t                                                raaaaaaddd          aa                           ",
"                                                                                  raaaaa           aa                           ",
"                                                                                    aaaaa           d                           ",
"                                                                                                                                ",
"                                                                                                                                ",
"                                                                                                                                ",
"                                                                                                                                ",
"                                                                                                         O2                     ",
"                                                                                                         ,s                     ",
"                                                                                        3                                       ",
"                                                                                        .                                       ",
"                                                                                                                                ",
"                                                                                                                                ",
"                                                                                                                                ",
"                                                                                                                                ",
"                                                                                                                                ",
"                                                                                                                                ",
"                                                                                                                                ",
"                                                                                                                                ",
"                                                                                                                                ",
"                                                                                                                                ",
"                                                                                                                                ",
"                                                                                                                                ",
"                                                                                                                                ",
"                                                                                                                                ",
"                                                                                                                                ",
"                                                                                                                                ",
"                                                                                                                                ",
"                                                                                                                                ",
"                                                                                                                                ",
"                                                         3                                                                      ",
"                                                         .                                                                      ",
"                                                                                                                                ",
"                                                                                                       3                        ",
"                                                                                                       .                        ",
"                                                                                                                                ",
"                                                                                                                                ",
"                                                                                                                                "
};
