/* XPM */
static char *result[] = {
/* columns rows colors chars-per-pixel */
"128 128 42 1 ",
"  c #171628",
". c #24192A",
"X c #241B2C",
"o c #2F1D2D",
"O c #192433",
"+ c #342532",
"@ c #5F2E3A",
"# c #722730",
"$ c #762B36",
"% c #352D47",
"& c #353D4D",
"* c #6E3541",
"= c #763542",
"- c #7E3641",
"; c #3D5D63",
": c #4C5E5C",
"> c #486161",
", c #5D726D",
"< c #61736E",
"1 c #6C766F",
"2 c #8D3837",
"3 c #9B3A42",
"4 c #A73747",
"5 c #C64341",
"6 c #D34444",
"7 c #D64544",
"8 c #DF4D43",
"9 c #DD6441",
"0 c #E36042",
"q c #F57844",
"w c #669D67",
"e c #66A269",
"r c #B2DD6F",
"t c #6C8C83",
"y c #8FC3A7",
"u c #A9D0B8",
"i c #FEE691",
"p c #FEE797",
"a c #B4DDCE",
"s c #C7E6D2",
"d c #D2EAD8",
"f c #FFFFEC",
/* pixels */
"                                                                                                                                ",
"                                                                                                                                ",
"                                                                                                                                ",
"                                                                                                                                ",
"                                                                                                          2                     ",
"                                                                                                          .                     ",
"                                                                                                                                ",
"                                                                                                                                ",
"                                                                                                                                ",
"                                                                                                                                ",
"                                                                                                                                ",
"                                 2                                                                                              ",
"                                 .                                                                                              ",
"                                                                                                                                ",
"                                                                                                                                ",
"                                                                                                                                ",
"                                                                                                                                ",
"                                                                                  O1                                            ",
"                                                                                  >s                                            ",
"                                                                                                                                ",
"                                                                                                                                ",
"                                                                                                                                ",
"                                                                                                                                ",
"                                                                                                                                ",
"                                                                                                                                ",
"                                                                                                                                ",
"                                                                                                                                ",
"                                            i                                                                                   ",
"                                           iir                                                                                  ",
"                                           iirrriiii                                                                            ",
"           2                             riiiriiiiiiffi                                                                         ",
"           .                             iiiiiiiiir   iff                                                                       ",
"                                         iiiiiiiir       f                                                       2              ",
"                                         iiiiiiir          f                                                     .              ",
"                                         iiiiiiir           f                                                                   ",
"                                         iriiiiire                                                                              ",
"                                         iriiiiire    ee                                                                        ",
"                                         r iiiifre   errrr                                                                      ",
"                                         e iiiffr   eriiiiir                                                                    ",
"                                          iiiipau   riiiiffii                                                                   ",
"                                          iriiidy  eriirriiffi                                                                  ",
"                                          reiiife;;rirreeeeriffr                                                                ",
"                                          riiiife;erireee   eiffi                        :<                                     ",
"                                           irirfreerrr;eee    rifi                       ,t                                     ",
"                                           reiiirerrree;;;;    eiff                                                             ",
"                                           eiiiiierrre;;        eiff                                                            ",
"                                            iririerrre;&&        eiff                                                           ",
"                                           rreirierrre&;;;       r iff                                                          ",
"                                             iiirrrere;;eee;      r iif                                                         ",
"                                            rreirrrerr&;;eeeeee    e iif                                                        ",
"                                            r iirreerr;;;&;;eeere   e iii                                                       ",
"                                        i    rrriererre;;;&&&ereir  reeii                                                       ",
"                                             e eiererreeee;&%&ereii  eerii                                                      ",
"                                         i    errrererrrrree&%%;rrii  e rii                                                     ",
"                                              reereerrriiirrr;& ;rrif  r rif                                                    ",
"                                          i    eerrrrrrefireer;& errii  r i f                                                   ",
"                                               eeereerirfire;;eee%eirfi  r i                                                    ",
"                                           f    eeerrrireiree;eerreeirfr  r                                                     ",
"                                                eeerreiirirrreeerrrerirfe r   i                                                 ",
"                                            i e  e;errrireriiieerrrrerief  i   f                                                ",
"                                                  eereriiriiiieerriireiirf  i                                                   ",
"                                             i e  e;erirfieiiierrrriireiiii                                                     ",
"                                              f e; eeeerifriiiirrrrriirefife r                                                  ",
"                                                 ;;e&eeiefieiirerirriiieefif  r                                                 ",
"                                               i e; e;eeirfriiirerirriireffri                                                   ",
"                                       2          ;;  eeeiifriiireirriiireffir r                                                ",
"                                       .          e;; &eeiefieiirrrirriiieefif  r                                               ",
"                                                 r e;; &eefrfieiireireiiireefri                 :<                              ",
"                                                    e;& ;eefrfieireiieriiieeffie                ,t                              ",
"                                                     ;;& eeififireeifr;iiirerfff                                                ",
"                                                     ;;; %eeififiirifrreiiierefrr                                               ",
"                                                      ;;;%&eeififfiffierifirerfff                                               ",
"                                                       ;;;&&eeririffiierriireerfri                                              ",
"                                                        &e;&&eerrriiirereiirerrfii                                              ",
"                                                     i   &e;&&eeeeerrrerrrfrrrrrfei                                             ",
"      #90$                                            i   &e;;&eeeereeiieeiieirifiir                                            ",
"      5q84X                                            i e &e;;;eeeerriireiirerrriei                                     2      ",
"      367*o                                             i r  ;ee;eerrrrireiireirifii                                     .      ",
"      +=-@                                              ii r 2;eeeeererirerireirrriei                                           ",
"                                                         iirrw &;eeeeeeirerireiieiiii                                           ",
"                                                          firre  &;;e;errerirefrririrr                                          ",
"                                                           firrreeee&;;rrerireiirrii i                                          ",
"                                                            ffrrreeeeeeeerrrreiirrieirr                                         ",
"                                                             ffrrrrrererrrrreerfrrrii i                                         ",
"                                                              ifirrrrrrrrrrre;efrrei  i                                         ",
"                                                              eifirrrrrrrrrre;;iirririr                                         ",
"                                                               riffrrrrrrreee;;rierrii i                                        ",
"                                                                e ffireeeeee;; rferri  r                                        ",
"                                                                 e ifirreee;;  efeeeiri                                         ",
"                             :<                                    eriiirree;  eir riii                                         ",
"                             ,t                                      errirre;  eir rrf                                          ",
"                                                                        ; e    eir erf                                          ",
"                                                                               eir  efri                                        ",
"                                                                               eir   fi                                         ",
"                                                                               rir   fi                                         ",
"                                                                               rre   if                                         ",
"                                                                              rrr    if                                         ",
"                                                                             rrr     ff                  O1                     ",
"                                                                                     ff                  >s                     ",
"                                                                                     ff 2                                       ",
"                                                                                     fi .                                       ",
"                                                                                    if                                          ",
"                                                                                    ff                                          ",
"                                                                                    f                                           ",
"                                                                                                                                ",
"                                                                                                                                ",
"                                                                                                                                ",
"                                                                                                                                ",
"                                                                                                                                ",
"                                                                                                                                ",
"                                                                                                                                ",
"                                                                                                                                ",
"                                                                                                                                ",
"                                                                                                                                ",
"                                                                                                                                ",
"                                                                                                                                ",
"                                                                                                                                ",
"                                                                                                                                ",
"                                                                                                                                ",
"                                                                                                                                ",
"                                                         2                                                                      ",
"                                                         .                                                                      ",
"                                                                                                                                ",
"                                                                                                       2                        ",
"                                                                                                       .                        ",
"                                                                                                                                ",
"                                                                                                                                ",
"                                                                                                                                "
};
