/* XPM */
static char *result[] = {
/* columns rows colors chars-per-pixel */
"128 128 8 1 ",
"  c #171628",
". c #352D47",
"X c #353D4D",
"o c #3D5D63",
"O c #66A269",
"+ c #B2DD6F",
"@ c #FEE691",
"# c #FFFFEC",
/* pixels */
"                                                                                                                                ",
"                                                                                                                                ",
"                                                                                                                                ",
"                                                                                                                                ",
"                                                                                                                                ",
"                                                                                                                                ",
"                                                                                                                                ",
"                                                                                                                                ",
"                                                                                                                                ",
"                                                                                                                                ",
"                                                                                                                                ",
"                                                                                                                                ",
"                                                                                                                                ",
"                                                                                                                                ",
"                                                                                                                                ",
"                                                                                                                                ",
"                                                                                                                                ",
"                                                                                                                                ",
"                                                                                                                                ",
"                                                                                                                                ",
"                                                                                                                                ",
"                                                                                                                                ",
"                                                                                                                                ",
"                                                                                                                                ",
"                                                                                                                                ",
"                                                                                                                                ",
"                                                                                                                                ",
"                                            @                                                                                   ",
"                                           @@+                                                                                  ",
"                                           @@+++@@@@                                                                            ",
"                                         +@@@+@@@@@@##@                                                                         ",
"                                         @@@@@@@@@+   @##                                                                       ",
"                                         @@@@@@@@+       #                                                                      ",
"                                         @@@@@@@+          #                                                                    ",
"                                         @@@@@@@+           #                                                                   ",
"                                         @+@@@@@+O                                                                              ",
"                                         @+@@@@@+O    OO                                                                        ",
"                                         + @@@@#+O   O++++                                                                      ",
"                                         O @@@##+   O+@@@@@+                                                                    ",
"                                          @@@@@#O   +@@@@##@@                                                                   ",
"                                          @+@@@#O  O+@@++@@##@                                                                  ",
"                                          +O@@@#Ooo+@++OOOO+@##+                                                                ",
"                                          +@@@@#OoO+@+OOO   O@##@                                                               ",
"                                           @+@+#+OO+++oOOO    +@#@                                                              ",
"                                           +O@@@+O+++OOoooo    O@##                                                             ",
"                                           O@@@@@O+++Ooo        O@##                                                            ",
"                                            @+@+@O+++OoXX        O@##                                                           ",
"                                           ++O@+@O+++OXooo       + @##                                                          ",
"                                             @@@+++O+OooOOOo      + @@#                                                         ",
"                                            ++O@+++O++XooOOOOOO    O @@#                                                        ",
"                                            + @@++OO++oooXooOOO+O   O @@@                                                       ",
"                                        @    +++@O+O++OoooXXXO+O@+  +OO@@                                                       ",
"                                             O O@O+O++OOOOoX.XO+O@@  OO+@@                                                      ",
"                                         @    O+++O+O+++++OOX..o++@@  O +@@                                                     ",
"                                              +OO+OO+++@@@+++oX o++@#  + +@#                                                    ",
"                                          @    OO++++++O#@+OO+oX O++@@  + @ #                                                   ",
"                                               OOO+OO+@+#@+OooOOO.O@+#@  + @                                                    ",
"                                           #    OOO+++@+O@+OOoOO++OO@+#+  +                                                     ",
"                                                OOO++O@@+@+++OOO+++O+@+#O +   @                                                 ",
"                                            @ O  OoO+++@+O+@@@OO++++O+@O#  @   #                                                ",
"                                                  OO+O+@@+@@@@OO++@@+O@@+#  @                                                   ",
"                                             @ O  OoO+@+#@O@@@O++++@@+O@@@@                                                     ",
"                                              # Oo OOOO+@#+@@@@+++++@@+O#@#O +                                                  ",
"                                                 ooOXOO@O#@O@@+O+@++@@@OO#@#  +                                                 ",
"                                               @ Oo OoOO@+#+@@@+O+@++@@+O##+@                                                   ",
"                                                  oo  OOO@@#+@@@+O@++@@@+O##@+ +                                                ",
"                                                  Ooo XOO@O#@O@@+++@++@@@OO#@#  +                                               ",
"                                                 + Ooo XOO#+#@O@@+O@+O@@@+OO#+@                                                 ",
"                                                    OoX oOO#+#@O@+O@@O+@@@OO##@O                                                ",
"                                                     ooX OO@#@#@+OO@#+o@@@+O+###                                                ",
"                                                     ooo .OO@#@#@@+@#++O@@@O+O#++                                               ",
"                                                      ooo.XOO@#@##@##@O+@#@+O+###                                               ",
"                                                       oooXXOO+@+@##@@O++@@+OO+#+@                                              ",
"                                                        XOoXXOO+++@@@+O+O@@+O++#@@                                              ",
"                                                     @   XOoXXOOOOO+++O+++#+++++#O@                                             ",
"                                                      @   XOooXOOOO+OO@@OO@@O@+@#@@+                                            ",
"                                                       @ O XOoooOOOO++@@+O@@+O+++@O@                                            ",
"                                                        @ +  oOOoOO++++@+O@@+O@+@#@@                                            ",
"                                                        @@ +  oOOOOO+O+@+O+@+O@+++@O@                                           ",
"                                                         @@++O XoOOOOOO@+O+@+O@@O@@@@                                           ",
"                                                          #@++O  XooOoO++O+@+O#++@+@++                                          ",
"                                                           #@+++OOOOXoo++O+@+O@@++@@ @                                          ",
"                                                            ##+++OOOOOOOO++++O@@++@O@++                                         ",
"                                                             ##+++++O+O+++++OO+#+++@@ @                                         ",
"                                                              @#@+++++++++++OoO#++O@  @                                         ",
"                                                              O@#@++++++++++Ooo@@++@+@+                                         ",
"                                                               +@##+++++++OOOoo+@O++@@ @                                        ",
"                                                                O ##@+OOOOOOoo +#O++@  +                                        ",
"                                                                 O @#@++OOOoo  O#OOO@+@                                         ",
"                                                                   O+@@@++OOo  O@+ +@@@                                         ",
"                                                                     O++@++Oo  O@+ ++#                                          ",
"                                                                        o O    O@+ O+#                                          ",
"                                                                               O@+  O#+@                                        ",
"                                                                               O@+   #@                                         ",
"                                                                               +@+   #@                                         ",
"                                                                               ++O   @#                                         ",
"                                                                              +++    @#                                         ",
"                                                                             +++     ##                                         ",
"                                                                                     ##                                         ",
"                                                                                     ##                                         ",
"                                                                                     #@                                         ",
"                                                                                    @#                                          ",
"                                                                                    ##                                          ",
"                                                                                    #                                           ",
"                                                                                                                                ",
"                                                                                                                                ",
"                                                                                                                                ",
"                                                                                                                                ",
"                                                                                                                                ",
"                                                                                                                                ",
"                                                                                                                                ",
"                                                                                                                                ",
"                                                                                                                                ",
"                                                                                                                                ",
"                                                                                                                                ",
"                                                                                                                                ",
"                                                                                                                                ",
"                                                                                                                                ",
"                                                                                                                                ",
"                                                                                                                                ",
"                                                                                                                                ",
"                                                                                                                                ",
"                                                                                                                                ",
"                                                                                                                                ",
"                                                                                                                                ",
"                                                                                                                                ",
"                                                                                                                                ",
"                                                                                                                                "
};
