/* XPM */
static char *result[] = {
/* columns rows colors chars-per-pixel */
"128 128 43 1 ",
"  c #171628",
". c #24192A",
"X c #241B2C",
"o c #2F1D2D",
"O c #192433",
"+ c #342532",
"@ c #5F2E3A",
"# c #722730",
"$ c #762B36",
"% c #352D47",
"& c #353D4D",
"* c #6E3541",
"= c #763542",
"- c #7E3641",
"; c #3D5D63",
": c #474647",
"> c #4C5E5C",
", c #486161",
"< c #5D726D",
"1 c #61736E",
"2 c #6C766F",
"3 c #8D3837",
"4 c #9B3A42",
"5 c #A73747",
"6 c #C64341",
"7 c #D34444",
"8 c #D64544",
"9 c #DF4D43",
"0 c #DD6441",
"q c #E36042",
"w c #F57844",
"e c #66A269",
"r c #9C8259",
"t c #AED76D",
"y c #B2DD6F",
"u c #6C8C83",
"i c #9ABCAE",
"p c #9DCCBE",
"a c #FEE691",
"s c #D3DFB2",
"d c #C7E6D2",
"f c #D5EBD9",
"g c #FFFFEC",
/* pixels */
"                                                                                                                                ",
"                                                                                                                                ",
"                                                                                                                                ",
"                                                                                                                                ",
"                                                                                                          3                     ",
"                                                                                                          .                     ",
"                                                                                                                                ",
"                                                                                                                                ",
"                                                                                                                                ",
"                                                                                                                                ",
"                                                                                                                                ",
"                                 3                                                                                              ",
"                                 .                                                                                              ",
"                                                                                                                                ",
"                                                                                                                                ",
"                                                                                                                                ",
"                                                                                                                                ",
"                                                                                  O2                                            ",
"                                                                                  ,d                                            ",
"                                                                                                                                ",
"                                                                                                                                ",
"                                                                                                                                ",
"                                                                                                                                ",
"                                                                                                                                ",
"                                               a                                                                                ",
"                                               aa                                                                               ",
"                                               ag   a  a                                                                        ",
"                                               ag y  y ay                                                                       ",
"                                                gaay yaaa                                                                       ",
"                                              a gay y ggayyaay                                                                  ",
"           3                                  a gay agggyaaaaaa                                                                 ",
"           .                                  a gay yggayaaayyya                                                                ",
"                                              a ga eyggeaaye                                                     3              ",
"                                              a ga yegaagy;y                                                     .              ",
"                                              a ga yggagaeyyy                                                                   ",
"                                              a ga ygaegyyyyyy                                                                  ",
"                                              a ga ygaygeyyyeeyye                                                               ",
"                                              y ga yayagaaaeyaaaay                                                              ",
"                                              y ga yaygaaaayaaaaaaa                                                             ",
"                                              :pfa yyegyggeyyyyyaaga                                                            ",
"                                               isa eyegeggeyyeeeyyagg                                                           ",
"                                                ageeeegeggeeegay eeaga                                                          ",
"                                             g  ageee;gggaeeeaagy  eaga                  >1                                     ",
"                                             g  ygeee;ggaeeeeeyaay  eag                  <u                                     ",
"                                                 gyy;;gayeeeyeeyaa    ag                                                        ",
"                                                 gyy;;gaeeeyyyyeeaa    ga                                                       ",
"                                                 gyy;;gyeeeyaayeeeay   yg                                                       ",
"                                              g  gay;;gy;;yaaaaye;ya    ag                                                      ",
"                                              g  aay;&ae;eyaaaaaye;yy    g                                                      ",
"                                              a  ygy;&ae;eyaagggayeea     g                                                     ",
"                                                 yge;%ye;eyaaagggay yy    g                                                     ",
"                                                  gy;%ey;yyaaaaaaaae y     g                                                    ",
"                                               g  aye yyeyyaaaayyaayeey    a                                                    ",
"                                               g eaae ey;yyaaayeeyaae y     g                                                   ",
"                                               a ;yae%ey;yeyayyey;yaye y    a                                                   ",
"                                                  ege&;e;aeyyyeeay;yay y     g                                                  ",
"                                                a  ay&&e;yeyyyyeeye;yye y    a                                                  ",
"                                                a eyae%y;yayyyyyyee;eye y                                                       ",
"                                                a eeae&e;yaeyyyaayy;;yy                                                         ",
"                                                 a  ay&e;eaeeyyaaaee&eye y                                                      ",
"                                                 a eyy;;eeaaeeyaagae;;yy e                                                      ",
"                                                 a eeae;yeaaeeyayaay;;eye                                                       ",
"                                                  y; ay&yeyaaeyyeyga;&;yy y                                                     ",
"                                                  a eyy;eyyaaeeyeeaae;;eyee                                                     ",
"                                                  a eeaeeyeaaaeyeeygy&&eyee                                                     ",
"                                       3           y;yyy;aeyaaaeeyeaa&&;yy e                                                    ",
"                                       .           a eeaeyayaaa;eaeyge&;eyee                                                    ",
"                                               a   a eyyyeayyaaaaaeegy  eyee                    >1                              ",
"                                               a   ya;yea;aayaaaagyegy  eyyee                   <u                              ",
"                                                a   a eyyyygaaaaagyeaa  ;eyey                                                   ",
"                                                g   ay yeyeagaaaaaaeaae  eyey                                                   ",
"                                                 a  yaeyeyyyggggyaaeyge  eeyye                                                  ",
"                                                 g   aaeyeaeyggayygeygy  ;eyyy                                                  ",
"                                                 aa ayayyyyyeyaaeygyygy   eyea                                                  ",
"                                                  g  yaayy;yyeee;ygyygy   eyya                                                  ",
"      #0q$                                        aa ayaayyyyye&;ygeygy   eeyyy                                                 ",
"      6w95X                                        gyayaayyeyyye;yeeagy   eeyya                                          3      ",
"      478*o                                        aa aaageyeyyyyyeyagy&   eyyg                                          .      ",
"      +=-@                                          gyayagayyryyyyyyagy&   eyyg                                                 ",
"                                                    ag aaagyyteyyyyaggy;   yeya                                                 ",
"                                                     gaaaaggyyyeyyaaggy;   eeyay                                                ",
"                                                     ag aaagayyyeyaagaee    eyya                                                ",
"                                                      gggaaagayyyeyaay&;e   eyyg                                                ",
"                                                       g aaaagyeeeyaay&eee  eyyg                                                ",
"                                                       agaaaaagyeeyyye&;ee  yeyg                                                ",
"                                                        a aaaaaayyeye &eee  eeyg                                                ",
"                                                         ayaaaaaayye& ;eee  eeygy                                               ",
"                                                          aaaaaayyee  eeee    yaa                                               ",
"                                                          y aaaayyeeeeyee     yaa                                               ",
"                             >1                            e aaaaayyyyyee     yag                                               ",
"                             <u                               aaaaaaayyee     yyg                                               ",
"                                                               yaaaayyeeee    yyg                                               ",
"                                                                yyyyyeeeee    yyg                                               ",
"                                                                  eeeeeeee    eyg                                               ",
"                                                                      ;eee    yyg                                               ",
"                                                                      ;eee      g                                               ",
"                                                                      eeee      g                                               ",
"                                                                     eeee       g                        O2                     ",
"                                                                    yyye        g                        ,d                     ",
"                                                                                a       3                                       ",
"                                                                                a       .                                       ",
"                                                                        a       a                                               ",
"                                                                   yaaggy       a                                               ",
"                                                                   aaaaa                                                        ",
"                                                                   aaaa                                                         ",
"                                                                                                                                ",
"                                                                                                                                ",
"                                                                                                                                ",
"                                                                                                                                ",
"                                                                                                                                ",
"                                                                                                                                ",
"                                                                                                                                ",
"                                                                                                                                ",
"                                                                                                                                ",
"                                                                                                                                ",
"                                                                                                                                ",
"                                                                                                                                ",
"                                                                                                                                ",
"                                                                                                                                ",
"                                                                                                                                ",
"                                                         3                                                                      ",
"                                                         .                                                                      ",
"                                                                                                                                ",
"                                                                                                       3                        ",
"                                                                                                       .                        ",
"                                                                                                                                ",
"                                                                                                                                ",
"                                                                                                                                "
};
