/* XPM */
static char *result[] = {
/* columns rows colors chars-per-pixel */
"128 128 8 1 ",
"  c #171628",
". c #352D47",
"X c #353D4D",
"o c #3D5D63",
"O c #66A269",
"+ c #B2DD6F",
"@ c #FEE691",
"# c #FFFFEC",
/* pixels */
"                                                                                                                                ",
"                                                                                                                                ",
"                                                                                                                                ",
"                                                                                                                                ",
"                                                                                                                                ",
"                                                                                                                                ",
"                                                                                                                                ",
"                                                                                                                                ",
"                                                                                                                                ",
"                                                                                                                                ",
"                                                                                                                                ",
"                                                                                                                                ",
"                                                                                                                                ",
"                                                                                                                                ",
"                                                                                                                                ",
"                                                                                                                                ",
"                                                                                                                                ",
"                                                                                                                                ",
"                                                                                                                                ",
"                                                                                                                                ",
"                                                                                                                                ",
"                                                                                                                                ",
"                                                                                                                                ",
"                                                                                                                                ",
"                                               @                                                                                ",
"                                               @@                                                                               ",
"                                               @#   @  @                                                                        ",
"                                               @# +  + @+                                                                       ",
"                                                #@@+ +@@@                                                                       ",
"                                              @ #@+ + ##@++@@+                                                                  ",
"                                              @ #@+ @###+@@@@@@                                                                 ",
"                                              @ #@+ +##@+@@@+++@                                                                ",
"                                              @ #@ O+##O@@+O                                                                    ",
"                                              @ #@ +O#@@#+o+                                                                    ",
"                                              @ #@ +##@#@O+++                                                                   ",
"                                              @ #@ +#@O#++++++                                                                  ",
"                                              @ #@ +#@+#O+++OO++O                                                               ",
"                                              + #@ +@+@#@@@O+@@@@+                                                              ",
"                                              + #@ +@+#@@@@+@@@@@@@                                                             ",
"                                                #@ ++O#+##O+++++@@#@                                                            ",
"                                                @@ O+O#O##O++OOO++@##                                                           ",
"                                                @#OOOO#O##OOO#@+ OO@#@                                                          ",
"                                             #  @#OOOo###@OOO@@#+  O@#@                                                         ",
"                                             #  +#OOOo##@OOOOO+@@+  O@#                                                         ",
"                                                 #++oo#@+OOO+OO+@@    @#                                                        ",
"                                                 #++oo#@OOO++++OO@@    #@                                                       ",
"                                                 #++oo#+OOO+@@+OOO@+   +#                                                       ",
"                                              #  #@+oo#+oo+@@@@+Oo+@    @#                                                      ",
"                                              #  @@+oX@OoO+@@@@@+Oo++    #                                                      ",
"                                              @  +#+oX@OoO+@@###@+OO@     #                                                     ",
"                                                 +#Oo.+OoO+@@@###@+ ++    #                                                     ",
"                                                  #+o.O+o++@@@@@@@@O +     #                                                    ",
"                                               #  @+O ++O++@@@@++@@+OO+    @                                                    ",
"                                               # O@@O O+o++@@@+OO+@@O +     #                                                   ",
"                                               @ o+@O.O+o+O+@++O+o+@+O +    @                                                   ",
"                                                  O#OXoOo@O+++OO@+o+@+ +     #                                                  ",
"                                                @  @+XXOo+O++++OO+Oo++O +    @                                                  ",
"                                                @ O+@O.+o+@++++++OOoO+O +                                                       ",
"                                                @ OO@OXOo+@O+++@@++oo++                                                         ",
"                                                 @  @+XOoO@OO++@@@OOXO+O +                                                      ",
"                                                 @ O++ooOO@@OO+@@#@Ooo++ O                                                      ",
"                                                 @ OO@Oo+O@@OO+@+@@+ooO+O                                                       ",
"                                                  +o @+X+O+@@O++O+#@oXo++ +                                                     ",
"                                                  @ O++oO++@@OO+OO@@OooO+OO                                                     ",
"                                                  @ OO@OO+O@@@O+OO+#+XXO+OO                                                     ",
"                                                   +o+++o@O+@@@OO+O@@XXo++ O                                                    ",
"                                                   @ OO@O+@+@@@oO@O+#OXoO+OO                                                    ",
"                                               @   @ O+++O@++@@@@@OO#+  O+OO                                                    ",
"                                               @   +@o+O@o@@+@@@@#+O#+  O++OO                                                   ",
"                                                @   @ O++++#@@@@@#+O@@  oO+O+                                                   ",
"                                                #   @+ +O+O@#@@@@@@O@@O  O+O+                                                   ",
"                                                 @  +@O+O+++####+@@O+#O  OO++O                                                  ",
"                                                 #   @@O+O@O+##@++#O+#+  oO+++                                                  ",
"                                                 @@ @+@+++++O+@@O+#++#+   O+O@                                                  ",
"                                                  #  +@@++o++OOOo+#++#+   O++@                                                  ",
"                                                  @@ @+@@+++++OXo+#O+#+   OO+++                                                 ",
"                                                   #+@+@@++O+++Oo+OO@#+   OO++@                                                 ",
"                                                   @@ @@@#O+O+++++O+@#+X   O++#                                                 ",
"                                                    #+@+@#@++O++++++@#+X   O++#                                                 ",
"                                                    @# @@@#+++O++++@##+o   +O+@                                                 ",
"                                                     #@@@@##+++O++@@##+o   OO+@+                                                ",
"                                                     @# @@@#@+++O+@@#@OO    O++@                                                ",
"                                                      ###@@@#@+++O+@@+XoO   O++#                                                ",
"                                                       # @@@@#+OOO+@@+XOOO  O++#                                                ",
"                                                       @#@@@@@#+OO+++OXoOO  +O+#                                                ",
"                                                        @ @@@@@@++O+O XOOO  OO+#                                                ",
"                                                         @+@@@@@@++OX oOOO  OO+#+                                               ",
"                                                          @@@@@@++OO  OOOO    +@@                                               ",
"                                                          + @@@@++OOOO+OO     +@@                                               ",
"                                                           O @@@@@+++++OO     +@#                                               ",
"                                                              @@@@@@@++OO     ++#                                               ",
"                                                               +@@@@++OOOO    ++#                                               ",
"                                                                +++++OOOOO    ++#                                               ",
"                                                                  OOOOOOOO    O+#                                               ",
"                                                                      oOOO    ++#                                               ",
"                                                                      oOOO      #                                               ",
"                                                                      OOOO      #                                               ",
"                                                                     OOOO       #                                               ",
"                                                                    +++O        #                                               ",
"                                                                                @                                               ",
"                                                                                @                                               ",
"                                                                        @       @                                               ",
"                                                                   +@@##+       @                                               ",
"                                                                   @@@@@                                                        ",
"                                                                   @@@@                                                         ",
"                                                                                                                                ",
"                                                                                                                                ",
"                                                                                                                                ",
"                                                                                                                                ",
"                                                                                                                                ",
"                                                                                                                                ",
"                                                                                                                                ",
"                                                                                                                                ",
"                                                                                                                                ",
"                                                                                                                                ",
"                                                                                                                                ",
"                                                                                                                                ",
"                                                                                                                                ",
"                                                                                                                                ",
"                                                                                                                                ",
"                                                                                                                                ",
"                                                                                                                                ",
"                                                                                                                                ",
"                                                                                                                                ",
"                                                                                                                                ",
"                                                                                                                                ",
"                                                                                                                                ",
"                                                                                                                                "
};
