/* XPM */
static char *result[] = {
/* columns rows colors chars-per-pixel */
"128 128 41 1 ",
"  c #171628",
". c #24192A",
"X c #241B2C",
"o c #2F1D2D",
"O c #192433",
"+ c #342532",
"@ c #5F2E3A",
"# c #722730",
"$ c #762B36",
"% c #352D47",
"& c #353D4D",
"* c #6E3541",
"= c #763542",
"- c #7E3641",
"; c #3D5D63",
": c #474647",
"> c #4C5E5C",
", c #486161",
"< c #5D726D",
"1 c #61736E",
"2 c #6C766F",
"3 c #8D3837",
"4 c #9B3A42",
"5 c #A73747",
"6 c #C64341",
"7 c #D34444",
"8 c #D64544",
"9 c #DF4D43",
"0 c #DD6441",
"q c #E36042",
"w c #F57844",
"e c #66A269",
"r c #B2DD6F",
"t c #6C8C83",
"y c #81A89C",
"u c #9ABCAE",
"i c #A1BFB1",
"p c #9DCCBE",
"a c #FEE691",
"s c #C7E6D2",
"d c #FFFFEC",
/* pixels */
"                                                                                                                                ",
"                                                                                                                                ",
"                                                                                                                                ",
"                                                                                                                                ",
"                                                                                                          3                     ",
"                                                                                                          .                     ",
"                                                                                                                                ",
"                                                                                                                                ",
"                                                                                                                                ",
"                                                                                                                                ",
"                                                                                                                                ",
"                                 3                                                                                              ",
"                                 .                                                                                              ",
"                                                                                                                                ",
"                                                                                                                                ",
"                                                                                                                                ",
"                                                                                                                                ",
"                                                                                  O2                                            ",
"                                                                                  ,s                                            ",
"                                                                                                                                ",
"                                                                                                                                ",
"                                                                                                                                ",
"                                                                                                                                ",
"                                                                                                                                ",
"                                                                                                                                ",
"                                                                            d         ad                                        ",
"                                                                           d    aa adda                                         ",
"                                                                          d    a adda                                           ",
"                                                                         d   r addaaa                                           ",
"                                                                        d   r addaaaaa                                          ",
"           3                                                           a   r ddaaarr                                            ",
"           .                                                               rddaar                                               ",
"                                                                      a   rddar                                  3              ",
"                                                                     d   rddre  rrrar                            .              ",
"                                                                    d   rddr  errrrrrr                                          ",
"                                                                   a   rdar ;eeaaaaa                                            ",
"                                                                   a  raae eeaadddddar                                          ",
"                                                                  a   ade;raaddddddaaa                                          ",
"                                                            d    a   rdr;raaaaddeddaaa                                          ",
"                                              :pi               ar erdrerrrrrradaar a                                           ",
"                                               uy          a    a eearerreerddddddar                                            ",
"                                                               a   aaere;;addarraadae                                           ",
"                                                          d   ar eraee;&&adrerraeraar    >1                                     ",
"                                                         a    a eeare; &aaearrrararar    <t                                     ",
"                                                         a   ar;erre; &ardddaarrrreaa                                           ",
"                                                        a   ra eeae; ;reaadddarrrraaa                                           ",
"                                                        d   aeeear;%;eerrradeeerrrara                                           ",
"                                                       ar araerrre%;eeeeeeeeeererrara                                           ",
"                                                       d  rareeae&;re;;;;eeeeerre ara                                           ",
"                                                      aaeara rrr&&ee;;;eerrreerre ara                                           ",
"                                                      d ararr;ae;ee;eeeraaareerar arr                                           ",
"                                                     aa aaaerrr;ee;ereraaaareeear ar                                            ",
"                                                     draaaar;aeer;ereraaaaarerear  r                                            ",
"                                                    rd aaarrrr;r;erarraaaaarerear  r                                            ",
"                                                    draaaar;aereeraerraaaaarerear                                               ",
"                                                    d aaarrrrrreraerrraaaaaraeear                                               ",
"                                                   aaaaadr;reaeraaerrrraaareaeear                                               ",
"                                                   draaaarerrreaaeerrrraaarererar                                               ",
"                                                  rdaaade;rearaaaerrreerdardeera                                                ",
"                                                  aaaaadr&rearaarerrreeraaea rrd                                                ",
"                                                  d aadrerrdraareerareerdrar  aa                                                ",
"                                                 rdaaadr&redraaaeraarr;aarae eaa                                                ",
"                                                 aaaaade%reaaaaarraareeaaea  ed                                                 ",
"                                                 d aadr;rrdaaaaerraaeeearrr  rd                                                 ",
"                                                 aaaadr&rrdaaaaeeeaar;rara   rd                                                 ",
"                                       3        raaaade%redaaaaerrdreeraea   dr                                                 ",
"                                       .        a aaareeredaaaarrrde;earrr  ed                                                  ",
"                                                araaae;rredaaaareaae;eaea   rd                  >1                              ",
"                                                aaaaar;rrraaadrerdr;errer   d                   <t                              ",
"                                               eaaaaarerrerraaeedae;;aea    d                                                   ",
"                                               e aarrrrrreradreaae;;rrer   ra                                                   ",
"                                               rrarrrrrrreadrerdre&erer    d                                                    ",
"                                               erarrrerrredaerdae;;rr r    d                                                    ",
"                                               erarreraarreerdae;;;rer    a                                                     ",
"                                               eaarerraaarradar&;;rr r    d                                                     ",
"      #0q$                                     eaaeerraaaaaddr%&;eree    ra                                                     ",
"      6w95X                                     aaeeradddddar%&&err r    d                                               3      ",
"      478*o                                    eraeeeradddar% &;erer     a                                               .      ",
"      +=-@                                     erreeeraaare& 3;ere r    d                                                       ",
"                                               erae;;eeree&  .;rr r     d                                                       ",
"                                               errr&&%&&e;   ;eree     a                                                        ",
"                                               errre &&e;   &err e     d                                                        ",
"                                            re  erree;e;    eeree     a                                                         ",
"                                        r   ee  ereeeeee   ;eree      a                                                         ",
"                                        a   ree&eeeeeee    erree     a                                                          ",
"                                        are ere;eeeeee    errer                                                                 ",
"                                        are  ee;;eee     eerrre                                                                 ",
"                                        aae  eee;;      eerrrr                                                                  ",
"                                        dar  eee;      ;errra                                                                   ",
"                             >1         ddar  e;       errra                                                                    ",
"                             <t         adaa  e;      rerrar                                                                    ",
"                                         adarre      rerrar                                                                     ",
"                                         rarre      rerraa                                                                      ",
"                                                   rerrad                                                                       ",
"                                                  rerrada                                                                       ",
"                                                  rrrdd                                                                         ",
"                                                errrdd                                                                          ",
"                                                rrrdd                                                    O2                     ",
"                                                radd                                                     ,s                     ",
"                                               rada                                     3                                       ",
"                                              addaa                                     .                                       ",
"                                             ada a                                                                              ",
"                                           ada  a                                                                               ",
"                                               d                                                                                ",
"                                                                                                                                ",
"                                                                                                                                ",
"                                                                                                                                ",
"                                                                                                                                ",
"                                                                                                                                ",
"                                                                                                                                ",
"                                                                                                                                ",
"                                                                                                                                ",
"                                                                                                                                ",
"                                                                                                                                ",
"                                                                                                                                ",
"                                                                                                                                ",
"                                                                                                                                ",
"                                                                                                                                ",
"                                                                                                                                ",
"                                                                                                                                ",
"                                                         3                                                                      ",
"                                                         .                                                                      ",
"                                                                                                                                ",
"                                                                                                       3                        ",
"                                                                                                       .                        ",
"                                                                                                                                ",
"                                                                                                                                ",
"                                                                                                                                "
};
