/* XPM */
static char *result[] = {
/* columns rows colors chars-per-pixel */
"128 128 45 1 ",
"  c #171628",
". c #24192A",
"X c #241B2C",
"o c #2F1D2D",
"O c #192433",
"+ c #342532",
"@ c #5F2E3A",
"# c #722730",
"$ c #762B36",
"% c #352D47",
"& c #353D4D",
"* c #6E3541",
"= c #763542",
"- c #7E3641",
"; c #3D5D63",
": c #474647",
"> c #4C5E5C",
", c #486161",
"< c #5D726D",
"1 c #61736E",
"2 c #6C766F",
"3 c #8D3837",
"4 c #9B3A42",
"5 c #A73747",
"6 c #C64341",
"7 c #D34444",
"8 c #D64544",
"9 c #DF4D43",
"0 c #DD6441",
"q c #E36042",
"w c #F57844",
"e c #66A269",
"r c #B2DD6F",
"t c #6C8C83",
"y c #7EB288",
"u c #81A89C",
"i c #83B995",
"p c #9ABCAE",
"a c #A1BFB1",
"s c #9DCCBE",
"d c #FEE691",
"f c #F4E49B",
"g c #F2E5A2",
"h c #C7E6D2",
"j c #FFFFEC",
/* pixels */
"                                                                                                                                ",
"                                                                                                                                ",
"                                                                                                                                ",
"                                                                                                                                ",
"                                                                                                          3                     ",
"                                                                                                          .                     ",
"                                                                                                                                ",
"                                                                                                                                ",
"                                                                                                                                ",
"                                                                                                                                ",
"                                                                                                                                ",
"                                 3                                                                                              ",
"                                 .                                                                                              ",
"                                                                                                                                ",
"                                                                                                                                ",
"                                                                                                                                ",
"                                                                                                                                ",
"                                                                                  O2                                            ",
"                                                                                  ,h                                            ",
"                                                                                                                                ",
"                                                                                                                                ",
"                                                                                                                                ",
"                                                                                                                                ",
"                                                                                                                                ",
"                                                                                                                                ",
"                                                                                                                                ",
"                                                                                                                                ",
"                                                                                                                                ",
"                                                                                                                                ",
"                                                                                                                                ",
"           3                                                                                                                    ",
"           .                                                                                                                    ",
"                                                                                                                 3              ",
"                                                                                                                 .              ",
"                                                                                                                                ",
"                                                                                                                                ",
"                                                                                           jj                                   ",
"                                                                                        jj                                      ",
"                                                                                     dj                                         ",
"                                              :sa                                  jd      rrrd                                 ",
"                                               pu                       d        jd        rddjjjjjjjd                          ",
"                                                                      d       dj       rdjjjjjjddddddddj                        ",
"                                                                     d      dd      rdjjjfgddddddddr                            ",
"                                                                   jd     rdr    rrjjjdrryiee errrrd                            ",
"                                                                 dj      dd  ; edjjdre      e                                   ",
"                                                                jd     dd  e edddre;eereeeerrrrr                                ",
"                                                               jr  d rdr eeerddeeerrrdddddddd rdr                               ",
"                                                             djr drrdd eeerdreereeeeerrddjjjjjdrrr                              ",
"                                                            jdr drddr;reeddee;;&&&&&;eeeejjjjjjd r                              ",
"                                                           jdrddrddeer;rdre;%  &&rdjjjjjjdrejjdd                                ",
"                                                         rjr dddddereedre&&%&;erddrrrrddjjjreddd                                ",
"                                                        djrdddddrer;rre;&;;reeeddjjjdrrerdjdrddd                                ",
"                                                       djrjddddrreedr;;;eeeeeeeerdjjjdrrdrdjd d                                 ",
"                                                      dj jdddjrr;rre;ere;;;;;;;eedjjjdrdredjd                                   ",
"                                                     ddrddddjer&rreere;;eeeee;eeeeeeedrrrrddd                                   ",
"                                                    ddddddjjreederrreeerrdeeerrreeeeeerrrdddr                                   ",
"                                                   ddddddjdr;ededdeerdddeerrddddreeererrrdddr                                   ",
"                                                  ddddddjde&rredrrrdddeerrrdddddrreerrrrredd                                    ",
"                                                 ddddddjre&rrejrrddddeerrrddddddreeerrr drd                                     ",
"                                                rdddddjre&rrejrrdddreerrrdddddddeeerdr r dr                                     ",
"                                               rdddddjre&rrejddddrrerrrrrrddjddreredde drd                                      ",
"                                              edrddddre&rrejdddddderrrrrerdjddredrrdr d d                                       ",
"                                              rrddddre;rrejdddddeerrdrreerdjdredredde  r                                        ",
"                                             eeddrdrrerrrjjddddeerrddreredjdrederrdr                                            ",
"                                            ; ddrrdrrrrrrdjddddeeerddererddredeerdd                                             ",
"                                       3    erddrrerrrrerddddddrrrddee;rddrddeeedde                                             ",
"                                       .    rddrrrerdrrerrddjdrrrjdee;eddrdde  rjr                                              ",
"                                           erdrerrrddrerdjjdreedjdee;eddrdd   rjd               >1                              ",
"                                           rdreerrdddrejjdrerrdjrr;;eddedd   edd                <t                              ",
"                                       r  erdeeerddddredreerdjdre;;edredr   edd                                                 ",
"                                  r   r   rrreeerdjjddrrrddjdre;;;rdredr   edj                                                  ",
"                                 d    r  errr;;erjjjjjdjjjdre;;;;rrrede    dj                                                   ",
"                                dr   ee  erre&;erdjjjjjddre;;&;erreed     dj                                                    ",
"                                dre  re;eerre %&errrrree%&&;;errr rr     jd                                                     ",
"                               ddr  eee;eeree%&&;;ee;%  &&;;erre re     jd                                                      ",
"      #0q$                     jdr  eee;eeeeee;ee;&     &;errr er      jr                                                       ",
"      6w95X                    jjr  eee;eeeeeee&       ;errre re     rj                                                  3      ",
"      478*o                   rdjd  ee;;;eeeeee      ;errre  r      dj                                                   .      ",
"      +=-@                     rddre ;             ;eerrre r 3     dj                                                           ",
"                                rrree            eeerrre e   .    j                                                             ",
"                                               ;eerrreeer        j                                                              ",
"                                             eeerrreere        dd                                                               ",
"                                          ereerrrerrr         j                                                                 ",
"                                       ereerrrrrrdr          d                                                                  ",
"                                      eerrrrrrddr          d                                                                    ",
"                                  rrrrrrrrddjde                                                                                 ",
"                                  rrrrddjjjrd                                                                                   ",
"                              rddddjjjjjd                                                                                       ",
"                           ddjjjjjjdd  d                                                                                        ",
"                             >1   ddd                                                                                           ",
"                             <tdjd                                                                                              ",
"                                                                                                                                ",
"                                                                                                                                ",
"                                                                                                                                ",
"                                                                                                                                ",
"                                                                                                                                ",
"                                                                                                                                ",
"                                                                                                         O2                     ",
"                                                                                                         ,h                     ",
"                                                                                        3                                       ",
"                                                                                        .                                       ",
"                                                                                                                                ",
"                                                                                                                                ",
"                                                                                                                                ",
"                                                                                                                                ",
"                                                                                                                                ",
"                                                                                                                                ",
"                                                                                                                                ",
"                                                                                                                                ",
"                                                                                                                                ",
"                                                                                                                                ",
"                                                                                                                                ",
"                                                                                                                                ",
"                                                                                                                                ",
"                                                                                                                                ",
"                                                                                                                                ",
"                                                                                                                                ",
"                                                                                                                                ",
"                                                                                                                                ",
"                                                                                                                                ",
"                                                         3                                                                      ",
"                                                         .                                                                      ",
"                                                                                                                                ",
"                                                                                                       3                        ",
"                                                                                                       .                        ",
"                                                                                                                                ",
"                                                                                                                                ",
"                                                                                                                                "
};
