/* XPM */
static char *result[] = {
/* columns rows colors chars-per-pixel */
"128 128 8 1 ",
"  c #171628",
". c #352D47",
"X c #353D4D",
"o c #3D5D63",
"O c #66A269",
"+ c #B2DD6F",
"@ c #FEE691",
"# c #FFFFEC",
/* pixels */
"                                                                                                                                ",
"                                                                                                                                ",
"                                                                                                                                ",
"                                                                                                                                ",
"                                                                                                                                ",
"                                                                                                                                ",
"                                                                                                                                ",
"                                                                                                                                ",
"                                                                                                                                ",
"                                                                                                                                ",
"                                                                                                                                ",
"                                                                                                                                ",
"                                                                                                                                ",
"                                                                                                                                ",
"                                                                                                                                ",
"                                                                                                                                ",
"                                                                                                                                ",
"                                                                                                                                ",
"                                                                                                                                ",
"                                                                                                                                ",
"                                                                                                                                ",
"                                                                                                                                ",
"                                                                                                                                ",
"                                                                                                                                ",
"                                                                                                                                ",
"                                                                                                                                ",
"                                                                                                                                ",
"                                                                                                                                ",
"                                                                                                                                ",
"                                                                                                                                ",
"                                                                                                                                ",
"                                                                                                                                ",
"                                                                                                                                ",
"                                                                                                                                ",
"                                                                                                                                ",
"                                                                                                                                ",
"                                                                                                                                ",
"                                                                                                                                ",
"                                                                                                                                ",
"                                                                                                                                ",
"                                                                                                                                ",
"                                                                                                                                ",
"                                                                                                                                ",
"                                                                                                                                ",
"                                                                                   @@@                                          ",
"                                                                             @@@                                                ",
"                                                                         @##                                                    ",
"                                                                     +@#    O                                                   ",
"                                                                  +@    OO                                                      ",
"                                                                @    OO        +++O  +++@@@@@@@@@@@+                            ",
"                                                             O   OOo      OO+OOO++@@@OO+++++@@@@@++  @@                         ",
"                                                        @      Ooooo  OOOOOO++OO+++@@@@@@@@@@@@@@@@#@@+ @                       ",
"                                                      @     OooooX OOOOoOOOO++@@@+++++++@@@@@@@@@@@@@@@@                        ",
"                                                    @     oooooX   XoOOO++++OOOOO++@@@@######@@@@@@@@@@@@                       ",
"                                                  #@     ooooX  XoOOO++OO+++OO++OOO++OOOO+@@####@@@@@+++@@                      ",
"                                                #@+ +  ooOoX  XOOOOOO@++O+++OOOooOO++++OOoo  ++@@@@@@@+                         ",
"                                            + ##@++O  oooX .oOOOOO@@++@@@@@++++++++++++OOOo    O+++@@@@                         ",
"                                            @#@+++O XOoo.XXOOOo@@O+@##@@@++++++++++++++@++O        +@@@                         ",
"                                         O ##@+++  oOoXXoOOO@##O@##@@+++OOO#@+OooooXOO+++@++O       +@@                         ",
"                                        O+##+++O  oOooXoOO+##+@##@++O@@@@@@@@+OoooooXooOO+@@+O       @@                         ",
"                                       O@##+++OO oOoooOO+@O+@#@++@@@@@@++O++++OoooOoXXoOO++@@OO      @@                         ",
"                                      O@#@++++OOXOOooOO+@+@#@@O@@@@@@@@+OOO++OXXoOOo  oOOO+@@+O     @#                          ",
"                                     O@#@++++OOXOOOOOO+O+##@+@@@@+@@@@@+OoOOOXXXOOO   oo O+@@+O     #@                          ",
"                                     +#@++++OOooOOOOOOO@##@O@@@@+OOOOOOOoOOOX.XoOO    o  +@#@+     @#                           ",
"                                    +@@+++++OOXoOO+O+O+@#@+o++++O++++OOOOOOX XoOO       O+#@@O     #                            ",
"                            +       +@+O++++OXXoO+++O+@##@++OOO++@++++O+OOX XO+OO       +@#@+     #                             ",
"                                   O++OO++++OoOOO+++O+@@##@@@@@@++++++++O.Xo++++O      +@#@+     #                              ",
"                                   O+OOO++++O++++@@@@O++@@@@+++++++@+@+OXoO+O+@       +@#@      #                               ",
"                            +      OOOOO+++++O+++@@@@@@+OOOOOO++@@@@@+OoO++O@@    + O+##@                                       ",
"                            +       OooOO+++++OOOOOOO+O+OO++@@@@@@@+OO+@@+@#+    + +@##@                                        ",
"                            ++O      XooOO+++++++++++++@@@@@@@@@@+OO+@@++#@    O+ +@##                                          ",
"                            O+++O      oooO++@@@@@@#####@@@@@@++OO@#@@+##    OO +@##@                                           ",
"                             O+@@++OOooooooOOO++++++@+@+@+++OOOO###@+##o   OO +@@##                                             ",
"                               ++@@@@@@@@@@@@@@#OOOOO+OOOOOOOO###@@#@    ++ +@@##                                               ",
"                     ##           OO++@@@@@@@@@@@@@+++OO++O####O@#+    ++  @@@#                                                 ",
"                      ##@@           OOOO++++++++OO++++O####O@#@O   O@+  @@@#                                                   ",
"                       @###@@+    OO++++++OO+++@@@+O#####O@#@+    ++   @@@#                                                     ",
"                         @@#####@@@@@@@@@@@@@++O##@@@@+@#@O    ++       #                                                       ",
"                              +@@@@@@@+++O@@@@@@@ +@@@+O     +        #                                                         ",
"                                @@@@@@       +@@@@++                                                                            ",
"                                      ++@@@@@++                                                                                 ",
"                                                                                                                                ",
"                                                                                                                                ",
"                                                                                                                                ",
"                                                                                                                                ",
"                                                                                                                                ",
"                                                                                                                                ",
"                                                                                                                                ",
"                                                                                                                                ",
"                                                                                                                                ",
"                                                                                                                                ",
"                                                                                                                                ",
"                                                                                                                                ",
"                                                                                                                                ",
"                                                                                                                                ",
"                                                                                                                                ",
"                                                                                                                                ",
"                                                                                                                                ",
"                                                                                                                                ",
"                                                                                                                                ",
"                                                                                                                                ",
"                                                                                                                                ",
"                                                                                                                                ",
"                                                                                                                                ",
"                                                                                                                                ",
"                                                                                                                                ",
"                                                                                                                                ",
"                                                                                                                                ",
"                                                                                                                                ",
"                                                                                                                                ",
"                                                                                                                                ",
"                                                                                                                                ",
"                                                                                                                                ",
"                                                                                                                                ",
"                                                                                                                                ",
"                                                                                                                                ",
"                                                                                                                                ",
"                                                                                                                                ",
"                                                                                                                                ",
"                                                                                                                                ",
"                                                                                                                                ",
"                                                                                                                                ",
"                                                                                                                                ",
"                                                                                                                                ",
"                                                                                                                                ",
"                                                                                                                                ",
"                                                                                                                                ",
"                                                                                                                                "
};
