/* XPM */
static char *result[] = {
/* columns rows colors chars-per-pixel */
"128 128 45 1 ",
"  c #171628",
". c #24192A",
"X c #241B2C",
"o c #2F1D2D",
"O c #192433",
"+ c #342532",
"@ c #5F2E3A",
"# c #722730",
"$ c #762B36",
"% c #352D47",
"& c #353D4D",
"* c #6E3541",
"= c #763542",
"- c #7E3641",
"; c #3D5D63",
": c #474647",
"> c #4C5E5C",
", c #486161",
"< c #5D726D",
"1 c #61736E",
"2 c #6C766F",
"3 c #8D3837",
"4 c #9B3A42",
"5 c #A73747",
"6 c #C64341",
"7 c #D34444",
"8 c #D64544",
"9 c #DF4D43",
"0 c #DD6441",
"q c #E36042",
"w c #F57844",
"e c #669D67",
"r c #66A269",
"t c #9C8259",
"y c #BAAC5D",
"u c #B2DD6F",
"i c #6C8C83",
"p c #81A89C",
"a c #9ABCAE",
"s c #A1BFB1",
"d c #9DCCBE",
"f c #FEE691",
"g c #C7E6D2",
"h c #F5FAE7",
"j c #FFFFEC",
/* pixels */
"                                                                                                                                ",
"                                                                                                                                ",
"                                                                                                                                ",
"                                                                                                                                ",
"                                                                                                          3                     ",
"                                                                                                          .                     ",
"                                                                                                                                ",
"                                                                                                                                ",
"                                                                                                                                ",
"                                                                                                                                ",
"                                                                                                                                ",
"                                 3                                                                                              ",
"                                 .                                                                                              ",
"                                                                                                                                ",
"                                                                                                                                ",
"                                                                                                                                ",
"                                                                                                                                ",
"                                                                                  O2                                            ",
"                                                                                  ,g                                            ",
"                                                                                                                                ",
"                                                                                                                                ",
"                                                                                                                                ",
"                                                                                                                                ",
"                                                                                                                                ",
"                                                                                                                                ",
"                                                                                                                                ",
"                                                                                                                                ",
"                                                                                                                                ",
"                                                                                                                                ",
"                                                                                                                                ",
"           3                                                                                                                    ",
"           .                                                                                                                    ",
"                                                                                                                 3              ",
"                                                                                                                 .              ",
"                                                                                                                                ",
"                                                                                                                                ",
"                                                                                                                                ",
"                                                                                                                                ",
"                                                                                                                                ",
"                                              :ds                                                                               ",
"                                               ap                                                                               ",
"                                                                                                                                ",
"                                                                                         >1                                     ",
"                                                                                         <i                                     ",
"                                                                                   fff                                          ",
"                                                                             fff                                                ",
"                                                                         fjj                                                    ",
"                                                                     ufj    r                                                   ",
"                                                                  uf    rr                                                      ",
"                                                                f    rr        uuur  uuufffffffffffu                            ",
"                                                             r   rr;      rrurrruufffrruuuuufffffuu  ff                         ",
"                                                        f      r;;;;  rrrrrruurruuuffffffffffffffffjffu f                       ",
"                                                      f     r;;;;& rrrr;rrrruufffuuuuuuuffffffffffffffff                        ",
"                                                    f     ;;;;;&   &;rrruuuurrrrruuffffjjjjjjffffffffffff                       ",
"                                                  jf     ;;;;&  &;rrruurruuurruurrruurrrruffjjjjfffffuuuff                      ",
"                                                jfu u  ;;r;&  &rrrrrrfuuruuurrr;;rruuuurr;;  uufffffffu                         ",
"                                            u jjfuur  ;;;& %;rrrrrffuufffffuuuuuuuuuuuurrr;    ruuuffff                         ",
"                                            fjfuuur &r;;%&&rrr;ffrufjjfffuuuuuuuuuuuuuufuur        ufff                         ",
"                                         r jjfuuu  ;r;&&;rrrfjjrfjjffuuurrrjfur;;;;&rruuufuur       uff                         ",
"                                        rujjuuur  ;r;;&;rrujjufjjfuurffffffffur;;;;;&;;rruffur       ff                         ",
"                                       rfjjuuurr ;r;;;rrufrufjfuuffffffuuruuuur;;;r;&&;rruuffrr      ff                         ",
"                                      rfjfuuuurr&rr;;rrufufjffrffffffffurrruur&&;rr;  ;rrruffur     fj                          ",
"                                     rfjfuuuurr&rrrrrrurujjfuffffufffffur;rrr&&&rrr   ;; ruffur     jf                          ",
"                                     ujfuuuurr;;rrrrrrrfjjfrffffurrrrrrr;rrr&%&;rr    ;  ufjfu     fj                           ",
"                                    uffuuuuurr&;rrururufjfu;uuuuruuuurrrrrr& &;rr       rujffr     j                            ",
"                            u       ufutuuuur&&;ruuurufjjfuurrruufuuuururr& &rurr       ufjfu     j                             ",
"                                   ruureuuuur;rrruuuruffjjffffffuuuuuuuur%&;uuuur      ufjfu     j                              ",
"                                   rurrruuuuruuuuffffruuffffuuuuuuufufur&;ruruf       ufjf      h1                              ",
"                            u      rrrrruuuuuruuuffffffurrrrrruufffffur;ruurff    u rujjf       <i                              ",
"                            u       r;;rruuuuurrrrrrrururruufffffffurruffufju    u ufjjf                                        ",
"                            uur      &;;rruuuuuuuuuuuuuffffffffffurruffuujf    ru ufjj                                          ",
"                            ruuur      ;;;ruuffffffjjjjjffffffuurrfjffujj    rr ufjjf                                           ",
"                             ruffuurr;;;;;;rrruuuuuufufufuuurrrrjjjfujj;   rr uffjj                                             ",
"                               uuffffffffffffffjrrrrrurrrrrrrrjjjffjf    uu uffjj                                               ",
"                     jj           rruufffffffffffffuuurruurjjjjrfju    uu  fffj                                                 ",
"      #0q$            jjff           rrrruuuuuuuurruuuurjjjjrfjfr   rfu  fffj                                                   ",
"      6w95X            fjjjffu    rruuuuuurruuufffurjjjjjrfjfu    uu   fffj                                              3      ",
"      478*o              ffjjjjjfffffffffffffuurjjffffufjfr    uu       j                                                .      ",
"      +=-@                    ufffffffuuurfffffff ufffur     y        j                                                         ",
"                                ffffff       uffffuu         .                                                                  ",
"                                      uufffffuu                                                                                 ",
"                                                                                                                                ",
"                                                                                                                                ",
"                                                                                                                                ",
"                                                                                                                                ",
"                                                                                                                                ",
"                                                                                                                                ",
"                                                                                                                                ",
"                                                                                                                                ",
"                             >1                                                                                                 ",
"                             <i                                                                                                 ",
"                                                                                                                                ",
"                                                                                                                                ",
"                                                                                                                                ",
"                                                                                                                                ",
"                                                                                                                                ",
"                                                                                                                                ",
"                                                                                                         O2                     ",
"                                                                                                         ,g                     ",
"                                                                                        3                                       ",
"                                                                                        .                                       ",
"                                                                                                                                ",
"                                                                                                                                ",
"                                                                                                                                ",
"                                                                                                                                ",
"                                                                                                                                ",
"                                                                                                                                ",
"                                                                                                                                ",
"                                                                                                                                ",
"                                                                                                                                ",
"                                                                                                                                ",
"                                                                                                                                ",
"                                                                                                                                ",
"                                                                                                                                ",
"                                                                                                                                ",
"                                                                                                                                ",
"                                                                                                                                ",
"                                                                                                                                ",
"                                                                                                                                ",
"                                                                                                                                ",
"                                                         3                                                                      ",
"                                                         .                                                                      ",
"                                                                                                                                ",
"                                                                                                       3                        ",
"                                                                                                       .                        ",
"                                                                                                                                ",
"                                                                                                                                ",
"                                                                                                                                "
};
