/* XPM */
static char *result[] = {
/* columns rows colors chars-per-pixel */
"128 128 44 1 ",
"  c #171628",
". c #24192A",
"X c #241B2C",
"o c #2F1D2D",
"O c #192433",
"+ c #342532",
"@ c #5F2E3A",
"# c #722730",
"$ c #762B36",
"% c #352D47",
"& c #353D4D",
"* c #6E3541",
"= c #763542",
"- c #7E3641",
"; c #3D5D63",
": c #474647",
"> c #4C5E5C",
", c #486161",
"< c #5D726D",
"1 c #61736E",
"2 c #6C766F",
"3 c #8D3837",
"4 c #9B3A42",
"5 c #A73747",
"6 c #C64341",
"7 c #D34444",
"8 c #D64544",
"9 c #DF4D43",
"0 c #DD6441",
"q c #E36042",
"w c #F57844",
"e c #669D67",
"r c #66A269",
"t c #BAAC5D",
"y c #B2DD6F",
"u c #6C8C83",
"i c #81A89C",
"p c #9ABCAE",
"a c #A1BFB1",
"s c #B2DD82",
"d c #9DCCBE",
"f c #FEE691",
"g c #C7E6D2",
"h c #FFFFEC",
/* pixels */
"                                                                                                                                ",
"                                                                                                                                ",
"                                                                                                                                ",
"                                                                                                                                ",
"                                                                                                          3                     ",
"                                                                                                          .                     ",
"                                                                                                                                ",
"                                                                                                                                ",
"                                                                                                                                ",
"                                                                                                                                ",
"                                                                                                                                ",
"                                 3                                                                                              ",
"                                 .                                                                                              ",
"                                                                                                                                ",
"                                                                                                                                ",
"                                                                                                                                ",
"                                                                                                                                ",
"                                                                                  O2                                            ",
"                                                                                  ,g                                            ",
"                                                                                                                                ",
"                                                                                                                                ",
"                                                                                                                                ",
"                                                                                                                                ",
"                                                                                                                                ",
"                                                                                                                                ",
"                                                                                                                                ",
"                                                                                                                                ",
"                                                                                                                                ",
"                                                                                                                                ",
"                                                                                                                                ",
"           3                                                                                                                    ",
"           .                                                                                                                    ",
"                                                                                                                 3              ",
"                                                                                                                 .              ",
"                                                                                                                                ",
"                                                                                                                                ",
"                                                                                                                                ",
"                                                                                                                                ",
"                                                                                                                                ",
"                                              :da                                                                               ",
"                                               pi                                                                               ",
"                                                                                                                                ",
"                                                                                         >1                                     ",
"                                                                                         <u                                     ",
"                                                                                                                                ",
"                                                                                                                                ",
"                                                                                                                                ",
"                                                                                                                                ",
"                                                                       hhf        yy                                            ",
"                                                 f               hhf                                f                           ",
"                                              ff            fhf               yfffhhhhhhhhhhhhhhhf                              ",
"                                            fhy         fff      r   yyffhhhhhhhffffffffffffffy                                 ",
"                                          hhf        fff    ;r  yyffhhhffyyrrr                                                  ",
"                                        fhfy     yfff   ;rr ryffhffyrrrrrrrr;rrrrrrrrrryyyyfyyy  hhhf                           ",
"                                      yhhf f  yyffy  ;rryryffffyrrr;;&&   &%&&;;;;;;rrrryyfffh yyyy  ffff                       ",
"                                     fhh ffyyfffy ;;ryyryffyrr;;&&%&&;rryyryyffhhhhhfffyrryyyffffhh     ff                      ",
"                                    fh ffyfffffyr;ryyryfyrr;;&;;rryrryyyyyyyrrrrrrrryyffhhhhffy ffffhff                         ",
"                                   f fffyfffffyrryyryfyr;;;rryyyrr;;;rrrrrrrrr;;;;;rryfhhhfryfhhfyr ffff                        ",
"                                  yfhffffffhfrrryyyfyr&;ryffyrrrryyfffffffffrrrrrrrrrrryfhhfffyyfffyy  f                        ",
"                                  fhfffffhhf;ryyrfyyr&;yfhfyyyyfffffrrryyyyfffyyyyrrrrryyyrhffyyyyfffy                          ",
"                                 fffffffhhfrryyyfyyr&;fhhffyfffffrrryyyyfffffffffffyyrrryyyyyryyyy yffy                         ",
"                                yffffffhhfrrryryyyr%&yfhhffffffrrrryyyyyyfffffffffffyyr;;ryyfyyyyyr yff                         ",
"                                fffffffhfrrryryyyr%%&rfhhhfffffrrryyyyyyyryyffffhffyyrr;;yfrfffyrr   yf                         ",
"                               yffffffffyrrr;yyyyr&&%;ryfffffrryyyyffffyyrrrryffhffyyrr;;yfhyfffy     y                         ",
"                               rffffyyffyrrrryyyyryrr;;;rryyyrrrrrryffffyryyfryfhffyr;;&rfhfryfffr                              ",
"                               ryfffyyytyrrrryyyyyrffffffhhhhhffyyryfhffrrryyryfffyr;  ryffrryfhfr                              ",
"                                yyffyyreyyyryyfffyyrryfffyyyyrrrrrffhfyr;rrr;ryffyr   ;yffr ryfhf                               ",
"                      f         ryyffyrrrrryyffffffyyyrrrrrrrryffhhfyy&;;;;;ryffyr   ryfy   rfhhs1                              ",
"                           yy r  ryyyyyr   rryffhhhhhffffffhhhhffyyr%%&&&&;ryyyrr   ryyr    yfhf<u                              ",
"                            ryr rrrrryyyrr;;;;&rryyffffffffyyyrr      &;;ryyyyr    yyy      fhh                                 ",
"                             ryrrrrrrrrryryrr;;;;;;;;&&             ;;ryyyyrr    yy        fhh                                  ",
"                               rrrrryyrrrrrrrrrrrr;              ;rrryyyyr     yy         fhf                                   ",
"                                  rrrrrrr;                   ;rrrryyyyyr  r              hh                                     ",
"                                                        ;ryrrrryyyyyrrrrr              fhf                                      ",
"                                                  rryryrrrryyyyyyrryyyr               hf                                        ",
"      #0q$                                         rryyyyyyyyyyfffy                 ff                                          ",
"      6w95X                               rryryyyyyyyyyyfffhhfy                                                          3      ",
"      478*o                               yyyyyfffhhhhhhfy                                                               .      ",
"      +=-@                       fffhhhhhhhhhhhffy           3                                                                  ",
"                                                             .                                                                  ",
"                                                                                                                                ",
"                                                                                                                                ",
"                                                                                                                                ",
"                                                                                                                                ",
"                                                                                                                                ",
"                                                                                                                                ",
"                                                                                                                                ",
"                                                                                                                                ",
"                                                                                                                                ",
"                             >1                                                                                                 ",
"                             <u                                                                                                 ",
"                                                                                                                                ",
"                                                                                                                                ",
"                                                                                                                                ",
"                                                                                                                                ",
"                                                                                                                                ",
"                                                                                                                                ",
"                                                                                                         O2                     ",
"                                                                                                         ,g                     ",
"                                                                                        3                                       ",
"                                                                                        .                                       ",
"                                                                                                                                ",
"                                                                                                                                ",
"                                                                                                                                ",
"                                                                                                                                ",
"                                                                                                                                ",
"                                                                                                                                ",
"                                                                                                                                ",
"                                                                                                                                ",
"                                                                                                                                ",
"                                                                                                                                ",
"                                                                                                                                ",
"                                                                                                                                ",
"                                                                                                                                ",
"                                                                                                                                ",
"                                                                                                                                ",
"                                                                                                                                ",
"                                                                                                                                ",
"                                                                                                                                ",
"                                                                                                                                ",
"                                                         3                                                                      ",
"                                                         .                                                                      ",
"                                                                                                                                ",
"                                                                                                       3                        ",
"                                                                                                       .                        ",
"                                                                                                                                ",
"                                                                                                                                ",
"                                                                                                                                "
};
