/* XPM */
static char *result[] = {
/* columns rows colors chars-per-pixel */
"128 128 43 1 ",
"  c #171628",
". c #24192A",
"X c #241B2C",
"o c #2F1D2D",
"O c #192433",
"+ c #342532",
"@ c #5F2E3A",
"# c #722730",
"$ c #762B36",
"% c #352D47",
"& c #353D4D",
"* c #6E3541",
"= c #763542",
"- c #7E3641",
"; c #3D5D63",
": c #474647",
"> c #4C5E5C",
", c #486161",
"< c #5D726D",
"1 c #61736E",
"2 c #6C766F",
"3 c #8D3837",
"4 c #9B3A42",
"5 c #A73747",
"6 c #C64341",
"7 c #D34444",
"8 c #D64544",
"9 c #DF4D43",
"0 c #DD6441",
"q c #E36042",
"w c #F57844",
"e c #66A269",
"r c #B2DD6F",
"t c #6C8C83",
"y c #81A89C",
"u c #9ABCAE",
"i c #A1BFB1",
"p c #9DCCBE",
"a c #FEE691",
"s c #F4E49B",
"d c #E3E1A8",
"f c #C7E6D2",
"g c #FFFFEC",
/* pixels */
"                                                                                                                                ",
"                                                                                                                                ",
"                                                                                                                                ",
"                                                                                                                                ",
"                                                                                                          3                     ",
"                                                                                                          .                     ",
"                                                                                                                                ",
"                                                                                                                                ",
"                                                                                                                                ",
"                                                                                                                                ",
"                                                                                                                                ",
"                                 3                                                                                              ",
"                                 .                                                                                              ",
"                                                                                                                                ",
"                                                                                                                                ",
"                                                                                                                                ",
"                                                                                                                                ",
"                                                                                  O2                                            ",
"                                                                                  ,f                                            ",
"                                                                                                                                ",
"                                                                                                                                ",
"                                                                                                                                ",
"                                                                                                                                ",
"                                                                                                                                ",
"                                                                                                                                ",
"                                                                                                                                ",
"                                                                                                                                ",
"                                                                                                                                ",
"                                                                                                                                ",
"                                                                                                                                ",
"           3                                                                                                                    ",
"           .                                                                                                                    ",
"                                                                                                                 3              ",
"                                                                                                                 .              ",
"                                                                                                                                ",
"                                                                                                                                ",
"                                                                                                                                ",
"                                                                                                                                ",
"                                                                                                                                ",
"                                              :pi                                                                               ",
"                                               uy                                                                               ",
"                                                                                                                                ",
"                                                                                         >1                                     ",
"                                                                                         <t                                     ",
"                              a                      a                                                                          ",
"                      g      aa            aagaaa                                                                               ",
"                      g     aga         erarrrreeeeee                                                                           ",
"                      aa    ggar        eeeeeeeeee                                                                              ",
"                       a    ggar r       ;;;e;                                                                                  ",
"                        a   ggarrre        ;;eeeeeeeererrr                                                                      ",
"                         a  aggrrre        &;;;;&                                                                               ",
"                         a  rggarree       ;;e;eeeeeeeeee;;eeeee;                                                               ",
"                          a  agarrre       &eeeeeeeerrrrrrrrrrrerrrrrre                                                         ",
"                              ggrrrre      &;eeeeeeeeeeeerrrraaaaarr aaaare                                                     ",
"                              rgarrrre      ;eeee&;;eeeerrrreeerrraaaaar aaaar                                                  ",
"                               raarrrree     ;e;&;;eeerrrrrrrrrrrrrrraaaaaa aaggr                                               ",
"                                rarerrree    %;e;;;eraggggaaarreeerraaaaaaaaaaraaggr                                            ",
"                                rearerrree    %eeeeragggaaaaaaarre%&&eeagaaaaaaaa agga                                          ",
"                                   rrerrre;    %;eeagggaarrrrrrrrrrrr%%&eeaggaaaaagrraggr                                       ",
"                                   rererrree&&&&%;erggareearaaageerrrrrre%&eegggaaaaaa rgga                                     ",
"                                    reeeerrre&&&;&;eagareagaaaaaaaaaaerrrrr%&errggaaaaaa raga                                   ",
"                                      ree errr;;;;;eragarrraaaaaaaaaarragerrre&ereagaaaaaa  aga                                 ",
"                             a         rr  errre;&;eeragaerraaaaaaaaaaarrraaerar;ereaaaaaraa  aga                               ",
"                               g         rr  erree;;ereaggrerrraeaaaraaarrerarerrreereraaarra   ag                              ",
"                                ag         rr  rrre;;;erragarerrerrerraaaareerr;;erreererraarra   ag                            ",
"                                  ag   3     rreerrree;;;rraggarrrrreeeaaaar;err;;;rrrere;eraar     aa                          ",
"                                    gg .       raeerarree;eeeraaaaaarrreeeare;;ee;&;erareee  rar      a                         ",
"                                      agr        raaeraarreeeeeerrrrrrrreeeere;eee&&&eeraree   as1                              ",
"                                        aga        eaaeeaaaareeeeeeerrrrrrrre;;;ere%%&eeeraee   <da                             ",
"                                           ggr        raaeraaaaarrrrrrrararrre;;err;%&;eeerare    aa                            ",
"                                             agar       eraeeraagggaaaaaaaaaareerar;e &er; raar    ra                           ",
"                                                ggare   eeeeraerraaaaaaaaaaaareraareer&ere& eaare    g                          ",
"                                                  rggaree rrrerreerrraaaaaaarreggar;errerre  eagae    ga                        ",
"                                                     ragaarrerrrrrrreeerrrrreeegare;;aarrre   ragae    ga                       ",
"                                                         raaaaarreeerreeeeeeeeerreeeeagaarr    rgga     g                       ",
"      #0q$                                                  aeraaaaaaarrrrrreerrrrrreagaaae    eaggr     g                      ",
"      6w95X                                                     aaaeeeeeeeeraaaaaaaeaggrare     ragar     g              3      ",
"      478*o                                                  rr     raaaaaaaaaaggeraggaeare ee  ragga      g             .      ",
"      +=-@                                                   3  raaaarreeeaeeerraagggreaar  ee  ragga      g                    ",
"                                                             .       aaaaaaaagggaaareaarr  rre  raagg       g                   ",
"                                                                                 aarr     rrr  raaagg                           ",
"                                                                                       rrarr   raaagg                           ",
"                                                                                     rrrr     raaaaga                           ",
"                                                                                              r  agg                            ",
"                                                                                                 ag                             ",
"                                                                                                ag                              ",
"                                                                                                                                ",
"                                                                                                                                ",
"                                                                                                                                ",
"                             >1                                                                                                 ",
"                             <t                                                                                                 ",
"                                                                                                                                ",
"                                                                                                                                ",
"                                                                                                                                ",
"                                                                                                                                ",
"                                                                                                                                ",
"                                                                                                                                ",
"                                                                                                         O2                     ",
"                                                                                                         ,f                     ",
"                                                                                        3                                       ",
"                                                                                        .                                       ",
"                                                                                                                                ",
"                                                                                                                                ",
"                                                                                                                                ",
"                                                                                                                                ",
"                                                                                                                                ",
"                                                                                                                                ",
"                                                                                                                                ",
"                                                                                                                                ",
"                                                                                                                                ",
"                                                                                                                                ",
"                                                                                                                                ",
"                                                                                                                                ",
"                                                                                                                                ",
"                                                                                                                                ",
"                                                                                                                                ",
"                                                                                                                                ",
"                                                                                                                                ",
"                                                                                                                                ",
"                                                                                                                                ",
"                                                         3                                                                      ",
"                                                         .                                                                      ",
"                                                                                                                                ",
"                                                                                                       3                        ",
"                                                                                                       .                        ",
"                                                                                                                                ",
"                                                                                                                                ",
"                                                                                                                                "
};
