/* XPM */
static char *_6f6061daf3a4d3beeb3102ef44e977e04oo1bf2ZSefWJoc[] = {
/* columns rows colors chars-per-pixel */
"128 128 8 1 ",
"  c #171628",
". c #352D47",
"X c #353D4D",
"o c #3D5D63",
"O c #66A269",
"+ c #B2DD6F",
"@ c #FEE691",
"# c #FFFFEC",
/* pixels */
"                                                                                                                                ",
"                                                                                                                                ",
"                                                                                                                                ",
"                                                                                                                                ",
"                                                                                                                                ",
"                                                                                                                                ",
"                                                                                                                                ",
"                                                                                                                                ",
"                                                                                                                                ",
"                                                                                                                                ",
"                                                                                                                                ",
"                                                                                                                                ",
"                                                                                                                                ",
"                                                                                                                                ",
"                                                                                                                                ",
"                                                                                                                                ",
"                                                                                                                                ",
"                                                                                                                                ",
"                                                                                                                                ",
"                                                                                                                                ",
"                                                                                                                                ",
"                                                                                                                                ",
"                                                                                                                                ",
"                                                                                                                                ",
"                                                                                                                                ",
"                                                                                                                                ",
"                                                                                                                                ",
"                                                                                                                                ",
"                                                                                                                                ",
"                                                                                                                                ",
"                                                                                                                                ",
"                                                                                                                                ",
"                                                                                                                                ",
"                                                                                                                                ",
"                                                                                                                                ",
"                                                                                                                                ",
"                                                                                                                                ",
"                                                                                                                                ",
"                                                                                                                                ",
"                                                                                                                                ",
"                                                                                                                                ",
"                                                                                                                                ",
"                                                                                                                                ",
"                                                                                                                                ",
"                              @                      @                                                                          ",
"                      #      @@            @@#@@@                                                                               ",
"                      #     @#@         O+@++++OOOOOO                                                                           ",
"                      @@    ##@+        OOOOOOOOOO                                                                              ",
"                       @    ##@+ +       oooOo                                                                                  ",
"                        @   ##@+++O        ooOOOOOOOO+O+++                                                                      ",
"                         @  @##+++O        XooooX                                                                               ",
"                         @  +##@++OO       ooOoOOOOOOOOOOooOOOOOo                                                               ",
"                          @  @#@+++O       XOOOOOOOO+++++++++++O++++++O                                                         ",
"                              ##++++O      XoOOOOOOOOOOOO++++@@@@@++ @@@@+O                                                     ",
"                              +#@++++O      oOOOOXooOOOO++++OOO+++@@@@@+ @@@@+                                                  ",
"                               +@@++++OO     oOoXooOOO+++++++++++++++@@@@@@ @@##+                                               ",
"                                +@+O+++OO    .oOoooO+@####@@@++OOO++@@@@@@@@@@+@@##+                                            ",
"                                +O@+O+++OO    .OOOO+@###@@@@@@@++O.XXOO@#@@@@@@@@ @##@                                          ",
"                                   ++O+++Oo    .oOO@###@@++++++++++++..XOO@##@@@@@#++@##+                                       ",
"                                   +O+O+++OOXXXX.oO+##@+OO@+@@@#OO++++++O.XOO###@@@@@@ +##@                                     ",
"                                    +OOOO+++OXXXoXoO@#@+O@#@@@@@@@@@@O+++++.XO++##@@@@@@ +@#@                                   ",
"                                      +OO O+++oooooO+@#@+++@@@@@@@@@@++@#O+++OXO+O@#@@@@@@  @#@                                 ",
"                             @         ++  O+++OoXoOO+@#@O++@@@@@@@@@@@+++@@O+@+oO+O@@@@@+@@  @#@                               ",
"                               #         ++  O++OOooO+O@##+O+++@O@@@+@@@++O+@+O+++OO+O+@@@++@   @#                              ",
"                                @#         ++  +++OoooO++@#@+O++O++O++@@@@+OO++ooO++OO+O++@@++@   @#                            ",
"                                  @#         ++OO+++OOooo++@##@+++++OOO@@@@+oO++ooo+++O+OoO+@@+     @@                          ",
"                                    ##         +@OO+@++OOoOOO+@@@@@@+++OOO@+OooOOoXoO+@+OOO  +@+      @                         ",
"                                      @#+        +@@O+@@++OOOOOO++++++++OOOO+OoOOOXXXOO+@+OO   @@                               ",
"                                        @#@        O@@OO@@@@+OOOOOOO++++++++OoooO+O..XOOO+@OO    @@                             ",
"                                           ##+        +@@O+@@@@@+++++++@+@+++OooO++o.XoOOO+@+O    @@                            ",
"                                             @#@+       O+@OO+@@###@@@@@@@@@@+OO+@+oO XO+o +@@+    +@                           ",
"                                                ##@+O   OOOO+@O++@@@@@@@@@@@@+O+@@+OO+XO+OX O@@+O    #                          ",
"                                                  +##@+OO +++O++OO+++@@@@@@@++O##@+oO++O++O  O@#@O    #@                        ",
"                                                     +@#@@++O+++++++OOO+++++OOO#@+Ooo@@+++O   +@#@O    #@                       ",
"                                                         +@@@@@++OOO++OOOOOOOOO++OOOO@#@@++    +##@     #                       ",
"                                                            @O+@@@@@@@++++++OO++++++O@#@@@O    O@##+     #                      ",
"                                                                @@@OOOOOOOO+@@@@@@@O@##+@+O     +@#@+     #                     ",
"                                                             ++     +@@@@@@@@@@##O+@##@O@+O OO  +@##@      #                    ",
"                                                                +@@@@++OOO@OOO++@@###+O@@+  OO  +@##@      #                    ",
"                                                                     @@@@@@@@###@@@+O@@++  ++O  +@@##       #                   ",
"                                                                                 @@++     +++  +@@@##                           ",
"                                                                                       ++@++   +@@@##                           ",
"                                                                                     ++++     +@@@@#@                           ",
"                                                                                              +  @##                            ",
"                                                                                                 @#                             ",
"                                                                                                @#                              ",
"                                                                                                                                ",
"                                                                                                                                ",
"                                                                                                                                ",
"                                                                                                                                ",
"                                                                                                                                ",
"                                                                                                                                ",
"                                                                                                                                ",
"                                                                                                                                ",
"                                                                                                                                ",
"                                                                                                                                ",
"                                                                                                                                ",
"                                                                                                                                ",
"                                                                                                                                ",
"                                                                                                                                ",
"                                                                                                                                ",
"                                                                                                                                ",
"                                                                                                                                ",
"                                                                                                                                ",
"                                                                                                                                ",
"                                                                                                                                ",
"                                                                                                                                ",
"                                                                                                                                ",
"                                                                                                                                ",
"                                                                                                                                ",
"                                                                                                                                ",
"                                                                                                                                ",
"                                                                                                                                ",
"                                                                                                                                ",
"                                                                                                                                ",
"                                                                                                                                ",
"                                                                                                                                ",
"                                                                                                                                ",
"                                                                                                                                ",
"                                                                                                                                ",
"                                                                                                                                ",
"                                                                                                                                ",
"                                                                                                                                ",
"                                                                                                                                ",
"                                                                                                                                ",
"                                                                                                                                ",
"                                                                                                                                ",
"                                                                                                                                "
};
