/* XPM */
static char *result[] = {
/* columns rows colors chars-per-pixel */
"128 128 42 1 ",
"  c #171628",
". c #24192A",
"X c #241B2C",
"o c #2F1D2D",
"O c #192433",
"+ c #342532",
"@ c #5F2E3A",
"# c #722730",
"$ c #762B36",
"% c #352D47",
"& c #353D4D",
"* c #6E3541",
"= c #763542",
"- c #7E3641",
"; c #3D5D63",
": c #474647",
"> c #4C5E5C",
", c #486161",
"< c #5D726D",
"1 c #61736E",
"2 c #6C766F",
"3 c #8D3837",
"4 c #9B3A42",
"5 c #A73747",
"6 c #C64341",
"7 c #D34444",
"8 c #D64544",
"9 c #DF4D43",
"0 c #DD6441",
"q c #E36042",
"w c #F57844",
"e c #66A269",
"r c #BAAC5D",
"t c #B2DD6F",
"y c #6C8C83",
"u c #9ABCAE",
"i c #8FC3A7",
"p c #9DCCBE",
"a c #A9D0B8",
"s c #FEE691",
"d c #C7E6D2",
"f c #FFFFEC",
/* pixels */
"                                                                                                                                ",
"                                                                                                                                ",
"                                                                                                                                ",
"                                                                                                                                ",
"                                                                                                          3                     ",
"                                                                                                          .                     ",
"                                                                                                                                ",
"                                                                                                                                ",
"                                                                                                                                ",
"                                                                                                                                ",
"                                                                                                                                ",
"                                 3                                                                                              ",
"                                 .                                                                                              ",
"                                                                                                                                ",
"                                                                                                                                ",
"                                                                                                                                ",
"                                                                                                                                ",
"                                                                                  O2                                            ",
"                                                                                  ,d                                            ",
"                                                                                                                                ",
"                                                                                                                                ",
"                                                                                                                                ",
"                                                                                                                                ",
"                                                                                                                                ",
"                                                                                                                                ",
"                                                                                                                                ",
"                                                                                                                                ",
"                                                                                                                                ",
"                                     s                                                                                          ",
"                                     f                                                                                          ",
"           3                         f           ts                                                                             ",
"           .                         f              s                                                                           ",
"                                     f       t                                                                   3              ",
"                                     ft     t                                                                    .              ",
"                                     fs    tt                                                                                   ",
"                                     fs    tt                                                                                   ",
"                                     sf    tt                                                                                   ",
"                                      f    tt     ete                                                                           ",
"                                      fs   tt   etsssfss e                                                                      ",
"                                      sf   ts :patttssfffs t                                                                    ",
"                                       ft  ese uieeetttssffs                                                                    ",
"                                       ft   st  ;;eeetttttsffs                                                                  ",
"                                       tf   st  ;;eettttttttsff                          >1                                     ",
"                                        fte ts; ;eetttttttttttsfs                        <y                                     ",
"                                        ss eest ;ettttteeeeettttss                                                              ",
"                                         fttess;&etttteeeeeeeetttsf                                                             ",
"                                         ssettfe;ettteeeeee    et ts                                                            ",
"                                       t ssttest&ettte;;&&&&&    t  s                                                           ",
"                                          tstttseetteee;;;eee;;&                                                                ",
"                                        s sstttstetteete;eeeeeee;&                                                              ",
"                                         t tsettfetseetteeeee;;;e;;                                                             ",
"                                         s sstttsetstetseteeee;;&;e;&                                                           ",
"                                          s esetsftstetsttteeee;&&&;e;;                                                         ",
"                                          stststtsesseessteeeeeee;%&;e;;                                                        ",
"                                           s ssttsetstetsettteteeee% &;;e                                                       ",
"                                           tst;setetssetsttssstettee& &;;e                                                      ",
"                                            stsestsesstetesffffststee&  ;;e                                                     ",
"                                             ssstttetssetesfsssfftfsee&  ;;e s                                                  ",
"                                             tssfsettsftttsfsttsffsfsee;  ;;e f                                                 ",
"                                              ttseteetssettfsteetsfsesee;  ;;e s                                                ",
"                                               sesetttsfseessetssesfsesee;e ;;e s                                               ",
"                                                ssfteetsst;tstttssesfsssee;e ;   s                                              ",
"                                                tssfteessstessetsssssfstsee;e     t                                             ",
"                                                 tsfftetsfstestetsssesfstete;e    f                                             ",
"                                                  stfftetsssttstetsssesfsteteee  e f                                            ",
"                                       3           stffeessssttstttsssesstttteee  e s                                           ",
"                                       .            feffeessstttttesssstssttteee     t                                          ",
"                                                     feffeesssttttessssstssetteee    s          >1                              ",
"                                                      feffeesssttteessstetsteeteee    s         <y                              ",
"                                                      efeffeessstteessttststtttttee    s                                        ",
"                                                       efefseetstttetttttfttteesttt                                             ",
"                                                        efefstetttte;eeetsetteetseet    s                                       ",
"                                                      t   ftsst;ettee;;etsfttetettt                                             ",
"                                                       t   ftsst;eeeeeeetssett;testte                                           ",
"                                                        te  fssst;&&ettttttett&ettsett                                          ",
"      #0q$                                               te  sfest;&%;;eeeeeeteettsts                                           ",
"      6w95X                                               tt  tfttte& %%&;;;;ttetststt                                   3      ",
"      478*o                                            f s tt  efsete;&%%&&;;etetttssst                                  .      ",
"      +=-@                                              f s  r   sftete;;&;;;ettttststs                                         ",
"                                                         f st.t   essteteeee;;ttttssss s                                        ",
"                                                          fsst ee   etteeeeee;etetefsstse                                       ",
"                                                           ssst ee       ;;;;;etttefsss s                                       ",
"                                                             fsst e          &etttetfsstse                                      ",
"                                                              fsst s;        ;ettteefsss s                                      ",
"                                                               ffstett      ;;etsee;fssssf                                      ",
"                                                                sfsst t     ;eetse; sfsss t                                     ",
"                                                                  ffsst     e;etse  tfssstf                                     ",
"                                                                   sffssteeeeetsse  efssssft                                    ",
"                                                                     sfffsstttsste  esfsss s                                    ",
"                             >1                                        sffffsssste  essssssf                                    ",
"                             <y                                         tsfffsstt   etsssssf                                    ",
"                                                                           ttstte    tsssss t                                   ",
"                                                                              te     esssss s                                   ",
"                                                                                      sstssss                                   ",
"                                                                                     tssstsss                                   ",
"                                                                                     tssttsss                                   ",
"                                                                                    tssstts s                                   ",
"                                                                             ffs  ssssst  s s            O2                     ",
"                                                                               sfffsss                   ,d                     ",
"                                                                                        3  f                                    ",
"                                                                                        .                                       ",
"                                                                                                                                ",
"                                                                                                                                ",
"                                                                                                                                ",
"                                                                                                                                ",
"                                                                                                                                ",
"                                                                                                                                ",
"                                                                                                                                ",
"                                                                                                                                ",
"                                                                                                                                ",
"                                                                                                                                ",
"                                                                                                                                ",
"                                                                                                                                ",
"                                                                                                                                ",
"                                                                                                                                ",
"                                                                                                                                ",
"                                                                                                                                ",
"                                                                                                                                ",
"                                                                                                                                ",
"                                                                                                                                ",
"                                                         3                                                                      ",
"                                                         .                                                                      ",
"                                                                                                                                ",
"                                                                                                       3                        ",
"                                                                                                       .                        ",
"                                                                                                                                ",
"                                                                                                                                ",
"                                                                                                                                "
};
