/* XPM */
static char *result[] = {
/* columns rows colors chars-per-pixel */
"128 128 43 1 ",
"  c #171628",
". c #24192A",
"X c #241B2C",
"o c #2F1D2D",
"O c #192433",
"+ c #342532",
"@ c #5F2E3A",
"# c #722730",
"$ c #762B36",
"% c #352D47",
"& c #353D4D",
"* c #6E3541",
"= c #763542",
"- c #7E3641",
"; c #3D5D63",
": c #474647",
"> c #4C5E5C",
", c #486161",
"< c #5D726D",
"1 c #61736E",
"2 c #6C766F",
"3 c #8D3837",
"4 c #9B3A42",
"5 c #A73747",
"6 c #C64341",
"7 c #D34444",
"8 c #D64544",
"9 c #DF4D43",
"0 c #DD6441",
"q c #E36042",
"w c #F57844",
"e c #66A269",
"r c #BAAC5D",
"t c #B2DD6F",
"y c #6C8C83",
"u c #81A89C",
"i c #9ABCAE",
"p c #A1BFB1",
"a c #9DCCBE",
"s c #FEE691",
"d c #C7E6D2",
"f c #F9F8E5",
"g c #FFFFEC",
/* pixels */
"                                                                                                                                ",
"                                                                                                                                ",
"                                                                                                                                ",
"                                                                                                                                ",
"                                                                                                          3                     ",
"                                                                                                          .                     ",
"                                                                                                                                ",
"                                                                                                                                ",
"                                                                                                                                ",
"                                                                                                                                ",
"                                                                                                                                ",
"                                 3                                                                                              ",
"                                 .                                                                                              ",
"                                                                                                                                ",
"                                                                                                                                ",
"                                                                                                                                ",
"                                                                                                                                ",
"                                                                                  O2                                            ",
"                                                                                  ,d                                            ",
"                                                                                                                                ",
"                                                                                                                                ",
"                                                    g                                                                           ",
"                                                    g                                                                           ",
"                                                   gs                                                                           ",
"                                                   g                                                                            ",
"                                                   g                                                                            ",
"                                                  sg          tss                                                               ",
"                                                  ss     tt      s                                                              ",
"                                                  gs    tt        s                                                             ",
"                                                  gt    tt                                                                      ",
"           3                                      gt   tt                                                                       ",
"           .                                      g    tt                                                                       ",
"                                                  g    te                                                        3              ",
"                                                  g   es   ettt                                                  .              ",
"                                                  g   tt  ettssss                                                               ",
"                                                  g   tt  etttsggs                                                              ",
"                                                  ge  st  eeeettsgg                                                             ",
"                                                 sgee st  ;eeeettsgg                                                            ",
"                                                 sget st  ;ettttttsgg                                                           ",
"                                              :ap gtt st ;ettttttttsgs                                                          ",
"                                               iu stt se ;ttttttttttsgs                                                         ",
"                                                  sttest ettttetettttsg                                                         ",
"                                                t sttest ettteeeeeetttss                 >1                                     ",
"                                                t tstestettteeeeee;etttg                 <y                                     ",
"                                                s tstestettee;&%    et tg                                                       ",
"                                                s  sttstesteee&&&&    t ss                                                      ",
"                                                s ssetsstst;te;;;;;&     s                                                      ",
"                                                ttssetsstseete;eeee;&     s                                                     ",
"                                                 ttttttstseeseeeeeeee&                                                          ",
"                                                 s ttttetseestetee;;ee&                                                         ",
"                                                 s esttetseestteee;;;;;&                                                        ",
"                                                 s ssttetseesteteee;&;;;                                                        ",
"                                                 ttssesetseeseteeee;;&;;;                                                       ",
"                                                  sstttetseesttsteeee&%;;;                                                      ",
"                                                  ssettetgtestsssteeee&&;;;                                                     ",
"                                                  sssstetgteesggggtseee &;;                                                     ",
"                                                  ttsteetsseesgssggesee% ;;e                                                    ",
"                                                   ssetetsseessstsgsgtee &;e s                                                  ",
"                                                   ssgtetsseesseetsgtsee& ;;e                                                   ",
"                                                   segtetsstessetstgsgtee &;e t                                                 ",
"                                                   tsgeetsgtessetsssgtsee e;e                                                   ",
"                                                    gggtesssetsetsstsgseeee ;e                                                  ",
"                                                    segtesssttsetssssgtstee ;e s                                                ",
"                                                    esgeetssttst;ssstgssee&e                                                    ",
"                                                     gggeesssestetssesgeeeee  e t                                               ",
"                                       3             stgeesssttstetsstgtsteee e s                                               ",
"                                       .             egggetssttttessstsssee;e   g                                               ",
"                                                      gegeessstttesssesseetee  e t              >1                              ",
"                                                    t tsgsetsstttesssststttee    s              <y                              ",
"                                                    t  gsgeesstteesssststtte;e   g                                              ",
"                                                       ssgsetstteesssttstettee                                                  ",
"                                                     s  gsgtettteessttesteetee    s                                             ",
"                                                        ssgs;etteettttettteteee   s                                             ",
"                                                      t  gsseeetee;eetgttteteee   s                                             ",
"                                                      t  ssst;eeee;;etgtteetttt                                                 ",
"      #0q$                                             t  gtse&;et;eetsttetttte                                                 ",
"      6w95X                                            t  tgst;%ettetsstt&test     s                                     3      ",
"      478*o                                         g t t  gsse&%;etttttt&ttseet   s                                     .      ",
"      +=-@                                           ss t  egrt;&%;eeetet&etsttt   s                                            ",
"                                                     g s t  tfet;%%&;e;et&etttst                                                ",
"                                                      ss ee  ssee&&%&;;et&tstss                                                 ",
"                                                      gss t   ssee;&&;;et;tstss                                                 ",
"                                                       gst e   ttee;;;;etetsts t                                                ",
"                                                       sss e    eeeeee;etetstses                                                ",
"                                                        gst e     ;eee;esttsssts                                                ",
"                                                         gstse     &;;&ttttsssts                                                ",
"                                                         ggset       &;tsttsssss                                                ",
"                                                          ggt t       etttegsssse                                               ",
"                                                           gstt      ;etteegsssst                                               ",
"                             >1                            sgst     ;etsee;gsssst                                               ",
"                             <y                             ggste   eette;;gsssst                                               ",
"                                                             ggstteeetst;;egsss t                                               ",
"                                                              gggssttsst  tgsss s                                               ",
"                                                               sggsssste  tgsss s                                               ",
"                                                                sggssst   sgsss s                                               ",
"                                                                 tsstte  esssss s                                               ",
"                                                                  ttte   essssg s                                               ",
"                                                                         esssssgt                        O2                     ",
"                                                                         essssgg                         ,d                     ",
"                                                                         tsstssg        3                                       ",
"                                                                         tsssssg        .                                       ",
"                                                                s       tsssts g                                                ",
"                                                                 gs    tssstss s                                                ",
"                                                                  gggssssst ssg                                                 ",
"                                                                    sssss   s g                                                 ",
"                                                                              s                                                 ",
"                                                                             g                                                  ",
"                                                                            s                                                   ",
"                                                                                                                                ",
"                                                                                                                                ",
"                                                                                                                                ",
"                                                                                                                                ",
"                                                                                                                                ",
"                                                                                                                                ",
"                                                                                                                                ",
"                                                                                                                                ",
"                                                                                                                                ",
"                                                                                                                                ",
"                                                                                                                                ",
"                                                                                                                                ",
"                                                         3                                                                      ",
"                                                         .                                                                      ",
"                                                                                                                                ",
"                                                                                                       3                        ",
"                                                                                                       .                        ",
"                                                                                                                                ",
"                                                                                                                                ",
"                                                                                                                                "
};
