/* XPM */
static char *result[] = {
/* columns rows colors chars-per-pixel */
"128 128 8 1 ",
"  c #171628",
". c #352D47",
"X c #353D4D",
"o c #3D5D63",
"O c #66A269",
"+ c #B2DD6F",
"@ c #FEE691",
"# c #FFFFEC",
/* pixels */
"                                                                                                                                ",
"                                                                                                                                ",
"                                                                                                                                ",
"                                                                                                                                ",
"                                                                                                                                ",
"                                                                                                                                ",
"                                                                                                                                ",
"                                                                                                                                ",
"                                                                                                                                ",
"                                                                                                                                ",
"                                                                                                                                ",
"                                                                                                                                ",
"                                                                                                                                ",
"                                                                                                                                ",
"                                                                                                                                ",
"                                                                                                                                ",
"                                                                                                                                ",
"                                                                                                                                ",
"                                                                                                                                ",
"                                                                                                                                ",
"                                                                                                                                ",
"                                                                                                                                ",
"                                                                                                                                ",
"                                                                                                                                ",
"                                                                                                                                ",
"                                                                          +@@@@   @                                             ",
"                                                                         @#@@@     @                                            ",
"                                                                        @@@@++                                                  ",
"                                                                       @@@@+@++                                                 ",
"                                                                      +@@@@@@@@@                                                ",
"                                                                     +@@@@@@@@@@@                                               ",
"                                                                     @@@@@@@@++@@@                                              ",
"                                                                    @@@@@#@++   @@                                              ",
"                                                                   +@@@@##@+ +O+ @@                                             ",
"                                                                   @@@@##+OOOOOO +#                                             ",
"                                                                  +@@@##++OOOOOO  #                                             ",
"                                                               ++ @@@##O+OOOOOOOO @@                                            ",
"                                                                 +@@@#O+OOOOo      #                                            ",
"                                                              +@O@@@#O@OOOOOOOO    #                                            ",
"                                                              O++@+@O@OOO+++++O    #                                            ",
"                                                             +@O@+@+@+O+@@@@@@+O                                                ",
"                                                             +++@+@++O+@++++@@@+                                                ",
"                                                            + O@++O++++++OOO+@@+                                                ",
"                                                            O@+@O+O++++O+++OO@#@                                                ",
"                                                            O++++O++++O++++OO+#@                                                ",
"                                                           O#O@O+OO++O++OOoooO@#+                                               ",
"                                                           O@++OOO++O++ooXoXoO@#+                                               ",
"                                                          OOO+O+O+++++oX.XooX +#@                                               ",
"                                                          O#++ ++++++o..XXooo +#@                                               ",
"                                                          OO+OO+++O+O..XoooOo +#@                                               ",
"                                                         OOO+ ++@+++X.XoOooOOX+#@                                               ",
"                                                         O#OO +@+O+O.XO+OOXoOoO#@                                               ",
"                                                         OO+OO@@+++X.O@@+OXXOoO#@                                               ",
"                                                         OO+o+@+O+O.o@#@+OOXOOO#@                                               ",
"                                                        O@OOo@@+++X.@#@@+O+.OOO#@                                               ",
"                                                         OOOO#@O++.O#@+++O+.o+O#@                                               ",
"                                                         OOo+#+O@oX@#++OOO@ oO+@@                                               ",
"                                                         OOo@@O+@XO#OO+OoO@ oO+#@                                               ",
"                                                        +OOo#@O++X@oOOOOoO# o +@ +                                              ",
"                                                        +OoO#+O@OoOOO+O+o+# o +# +                                              ",
"                                                        OOo+#++@OOOO++O+o+#.O @@ +                                              ",
"                                                        OOo@#O+@oOO+++O+o+@XO @# @                                              ",
"                                                        OOo@@O+@O+++++O+o+@X+ @# @                                              ",
"                                                 @      Ooo#@O@@O++++@O+o@+X+ @# @                                              ",
"                                                 @      OoO#@O@@O+++@@O+o@OX+ @#                                                ",
"                                                 @      OoO#+O@@O@++@@O+o#Oo+ @@                                                ",
"                                                 @      Oo+#+O#@+@++@@OOo#Oo++@                                                 ",
"                                                 @      oo+#++#O@@+@@@OOo#O  @@ +                                               ",
"                                                 @       o+#@OO+@++@@+OoO#O+ @@ @                                               ",
"                                                 @       o+#@++@@O+@@+Oo+@o@  @ @                                               ",
"                                                 @+O     o+##@@#+O@@@OOo@OO+  #                                                 ",
"                                                @@+O     oO@###@OO@@@OOo#+O+                                                    ",
"                                                @@+O     oO@##@+++@@+OOO#+                                                      ",
"                                                @@+O     oO+@@+O+@@@OOoO@++#                                                    ",
"                                                @@+O     XOO++OO+@@@OOo+++@#   @                                                ",
"                                                @@++O    XOOOOO++#@+OOO#@++                                                     ",
"                                                @@++OO   .OOOO+O@@@O+o+#+                                                       ",
"                                                @#++OO    oOO++@#@+O+oO@++#                                                     ",
"                                                @#++OO    XoOO+@@+OO+O@O++#                                                     ",
"                                                @#+++OO   .oOO@@++o+o+#+@ #                                                     ",
"                                                @#+++OO    Xo+@@+OO+O@@+ #                                                      ",
"                                                +#++++OO  .O+@@+OOO++++@ #                                                      ",
"                                                 #++++++OOO+@@+OOO+o@@ @ #                                                      ",
"                                                 #@++++++++@@+OOOO@O#@+@#                                                       ",
"                                                 @@O+++++++++OooO++@++@ #                                                       ",
"                                                 +@+O+++++++OooOO@O#@ + @                                                       ",
"                                                @O@+OOOO+OOOooOO++@O@+@#                                                        ",
"                                                @ ++OOOOOOoooOOO@O#@++@@                                                        ",
"                                                @ O+O OOOoooOOO+@@@@ +#@                                                        ",
"                                                @  OOOoOOOoOOoo@O#+++@@                                                         ",
"                                                @      oooOooX+@#+@ +@@                                                         ",
"                                                        oooo O@+@++ +@+                                                         ",
"                                                 @           +@@+@ O@@                                                          ",
"                                                 @          O@+++@ +@                                                           ",
"                                                            @@@O@  +@                                                           ",
"                                                          o+#+O++  @                                                            ",
"                                                         OO@@O @  +                                                             ",
"                                                    ++O++ @#      @                                                             ",
"                                                     +++++#+  +  +                                                              ",
"                                                      O++#@      @                                                              ",
"                                                       +#@      @                                                               ",
"                                                      +##                                                                       ",
"                                                     @##                                                                        ",
"                                                   @###                                                                         ",
"                                                 @###@                                                                          ",
"                                                @##@                                                                            ",
"                                                                                                                                ",
"                                                                                                                                ",
"                                                                                                                                ",
"                                                                                                                                ",
"                                                                                                                                ",
"                                                                                                                                ",
"                                                                                                                                ",
"                                                                                                                                ",
"                                                                                                                                ",
"                                                                                                                                ",
"                                                                                                                                ",
"                                                                                                                                ",
"                                                                                                                                ",
"                                                                                                                                ",
"                                                                                                                                ",
"                                                                                                                                ",
"                                                                                                                                ",
"                                                                                                                                ",
"                                                                                                                                ",
"                                                                                                                                ",
"                                                                                                                                ",
"                                                                                                                                "
};
