/* XPM */
static char *result[] = {
/* columns rows colors chars-per-pixel */
"128 128 43 1 ",
"  c #171628",
". c #24192A",
"X c #241B2C",
"o c #2F1D2D",
"O c #192433",
"+ c #342532",
"@ c #5F2E3A",
"# c #722730",
"$ c #762B36",
"% c #352D47",
"& c #353D4D",
"* c #6E3541",
"= c #763542",
"- c #7E3641",
"; c #3D5D63",
": c #474647",
"> c #4C5E5C",
", c #486161",
"< c #5D726D",
"1 c #61736E",
"2 c #6C766F",
"3 c #8D3837",
"4 c #9B3A42",
"5 c #A73747",
"6 c #C64341",
"7 c #D34444",
"8 c #D64544",
"9 c #DF4D43",
"0 c #DD6441",
"q c #E36042",
"w c #F57844",
"e c #669D67",
"r c #66A269",
"t c #9C8259",
"y c #B2DD6F",
"u c #6C8C83",
"i c #81A89C",
"p c #9ABCAE",
"a c #A1BFB1",
"s c #9DCCBE",
"d c #FEE691",
"f c #C7E6D2",
"g c #FFFFEC",
/* pixels */
"                                                                                                                                ",
"                                                                                                                                ",
"                                                                                                                                ",
"                                                                                                                                ",
"                                                                                                          3                     ",
"                                                                                                          .                     ",
"                                                                                                                                ",
"                                                                                                                                ",
"                                                                                                                                ",
"                                                                                                                                ",
"                                                                                                                                ",
"                                 3                                                                                              ",
"                                 .                                                                                              ",
"                                                                                                                                ",
"                                                                                                                                ",
"                                                                                                                                ",
"                                                                                                                                ",
"                                                                                  O2                                            ",
"                                                                                  ,f                                            ",
"                                                                                                                                ",
"                                                                                                                                ",
"                                                                                                                                ",
"                                                                                                                                ",
"                                                                                                                                ",
"                                                                                                                                ",
"                                                                          ydddd   d                                             ",
"                                                                         dgddd     d                                            ",
"                                                                        ddddyy                                                  ",
"                                                                       ddddydyy                                                 ",
"                                                                      yddddddddd                                                ",
"           3                                                         yddddddddddd                                               ",
"           .                                                         ddddddddyyddd                                              ",
"                                                                    dddddgdyy   dd                               3              ",
"                                                                   yddddggdy yry dd                              .              ",
"                                                                   ddddggyrrrrrr yg                                             ",
"                                                                  ydddggyyrrrrrr  g                                             ",
"                                                               yy dddggryrrrrrrrr dd                                            ",
"                                                                 ydddgryrrrr;      g                                            ",
"                                                              ydrdddgrdrrrrrrrr    g                                            ",
"                                              :sa             ryydydrdrrryyyyyr    g                                            ",
"                                               pi            ydrdydydyryddddddyr                                                ",
"                                                             yyydydyyrydyyyydddy                                                ",
"                                                            y rdyyryyyyyyrrryddy         >1                                     ",
"                                                            rdydryryyyyryyyrrdgd         <u                                     ",
"                                                            ryyyyryyyyryyyyrrygd                                                ",
"                                                           rgrdryrryyryyrr;;;rdgy                                               ",
"                                                           rdyyrrryyryy;;&;&;rdgy                                               ",
"                                                          rrryryryyyyy;&%&;;& ygd                                               ",
"                                                          rgyy yyyyyy;%%&&;;; ygd                                               ",
"                                                          rryrryyyryr%%&;;;r; ygd                                               ",
"                                                         rrry yydyyy&%&;r;;rr&ygd                                               ",
"                                                         rgrr ydyryr%&ryrr&;r;rgd                                               ",
"                                                         rryrrddyyy&%rddyr&&r;rgd                                               ",
"                                                         rry;ydyryr%;dgdyrr&rrrgd                                               ",
"                                                        rdrr;ddyyy&%dgddyry%rrrgd                                               ",
"                                                         rrrrgdryy%rgdyyyry%;yrgd                                               ",
"                                                         rr;ygyrd;&dgyyrrrd ;rydd                                               ",
"                                                         rr;ddryd&rgrryr;rd ;rygd                                               ",
"                                                        yrr;gdryy&d;rrrr;rg ; yd y                                              ",
"                                                        yr;rgyrdr;rrryry;yg ; yg y                                              ",
"                                                        rr;ygyydrrrryyry;yg%r dd y                                              ",
"                                                        rr;dgryd;rryyyry;yd&r dg d                                              ",
"                                                        rr;ddrydryyyyyry;yd&y dg d                                              ",
"                                                 d      r;;gdrddryyyydry;dy&y dg d                                              ",
"                                                 d      r;rgdrddryyyddry;dr&y dg                                                ",
"                                       3         d      r;rgyrddrdyyddry;gr;y dd                                                ",
"                                       .         d      r;ygyrgdydyyddrr;gr;yyd                                                 ",
"                                                 d      ;;ygyygrddydddrr;gr  dd y               >1                              ",
"                                                 d       ;ygdrrydyyddyr;rgry dd d               <u                              ",
"                                                 d       ;ygdyyddryddyr;yd;d  d d                                               ",
"                                                 dyr     ;yggddgyrdddrr;drry  g                                                 ",
"                                                ddyr     ;rdgggdrrdddrr;gyry                                                    ",
"                                                ddyr     ;rdggdyyyddyrrrgy                                                      ",
"                                                ddyr     ;ryddyrydddrr;rdyyg                                                    ",
"                                                ddyr     &rryyrrydddrr;yyydg   d                                                ",
"      #0q$                                      ddyyr    &rrrrryygdyrrrgdyy                                                     ",
"      6w95X                                     ddyyrr   %rrrryrdddry;ygy                                                3      ",
"      478*o                                     dgyyrr    ;rryydgdyry;rdyyg                                              .      ",
"      +=-@                                      dgyyrr    &;rtyddyrryrdryyg                                                     ",
"                                                dgyyyrr   %;reddyy;y;ygyd g                                                     ",
"                                                dgyyyrr    &;yddyrryrddy g                                                      ",
"                                                ygyyyyrr  %ryddyrrryyyyd g                                                      ",
"                                                 gyyyyyyrrryddyrrry;dd d g                                                      ",
"                                                 gdyyyyyyyyddyrrrrdrgdydg                                                       ",
"                                                 ddryyyyyyyyyr;;ryydyyd g                                                       ",
"                                                 ydyryyyyyyyr;;rrdrgd y d                                                       ",
"                                                drdyrrrryrrr;;rryydrdydg                                                        ",
"                                                d yyrrrrrr;;;rrrdrgdyydd                                                        ",
"                                                d ryr rrr;;;rrrydddd ygd                                                        ",
"                             >1                 d  rrr;rrr;rr;;drgyyydd                                                         ",
"                             <u                 d      ;;;r;;&ydgyd ydd                                                         ",
"                                                        ;;;; rdydyy ydy                                                         ",
"                                                 d           yddyd rdd                                                          ",
"                                                 d          rdyyyd yd                                                           ",
"                                                            dddrd  yd                                                           ",
"                                                          ;ygyryy  d                                                            ",
"                                                         rrddr d  y                                                             ",
"                                                    yyryy dg      d                                      O2                     ",
"                                                     yyyyygy  y  y                                       ,f                     ",
"                                                      ryygd      d                      3                                       ",
"                                                       ygd      d                       .                                       ",
"                                                      ygg                                                                       ",
"                                                     dgg                                                                        ",
"                                                   dggg                                                                         ",
"                                                 dgggd                                                                          ",
"                                                dggd                                                                            ",
"                                                                                                                                ",
"                                                                                                                                ",
"                                                                                                                                ",
"                                                                                                                                ",
"                                                                                                                                ",
"                                                                                                                                ",
"                                                                                                                                ",
"                                                                                                                                ",
"                                                                                                                                ",
"                                                                                                                                ",
"                                                                                                                                ",
"                                                                                                                                ",
"                                                                                                                                ",
"                                                                                                                                ",
"                                                         3                                                                      ",
"                                                         .                                                                      ",
"                                                                                                                                ",
"                                                                                                       3                        ",
"                                                                                                       .                        ",
"                                                                                                                                ",
"                                                                                                                                ",
"                                                                                                                                "
};
