/* XPM */
static char *result[] = {
/* columns rows colors chars-per-pixel */
"128 128 47 1 ",
"  c #171628",
". c #24192A",
"X c #241B2C",
"o c #2F1D2D",
"O c #192433",
"+ c #342532",
"@ c #5F2E3A",
"# c #722730",
"$ c #762B36",
"% c #352D47",
"& c #353D4D",
"* c #6E3541",
"= c #763542",
"- c #7E3641",
"; c #3D5D63",
": c #474647",
"> c #4C5E5C",
", c #486161",
"< c #5D726D",
"1 c #61736E",
"2 c #6C766F",
"3 c #8D3837",
"4 c #9B3A42",
"5 c #A73747",
"6 c #925655",
"7 c #C64341",
"8 c #D34444",
"9 c #D64544",
"0 c #DF4D43",
"q c #DD6441",
"w c #E36042",
"e c #F57844",
"r c #669D67",
"t c #66A269",
"y c #B2DD6F",
"u c #6C8C83",
"i c #81A89C",
"p c #9ABCAE",
"a c #A1BFB1",
"s c #9DCCBE",
"d c #FEE691",
"f c #F4E49B",
"g c #E3E1A8",
"h c #F1E4A1",
"j c #F2E5A2",
"k c #C7E6D2",
"l c #FFFFEC",
/* pixels */
"                                                                                                                                ",
"                                                                                                                                ",
"                                                                                                                                ",
"                                                                                                                                ",
"                                                                                                          3                     ",
"                                                                                                          .                     ",
"                                                                                                                                ",
"                                                                                                                                ",
"                                                                                                                                ",
"                                                                                                                                ",
"                                                                                                                                ",
"                                 3                                                                                              ",
"                                 .                                                                                              ",
"                                                                                                                                ",
"                                                                                                                                ",
"                                                                                                                                ",
"                                                                                                                                ",
"                                                                                  O2                                            ",
"                                                                                  ,k                                            ",
"                                                                                                                                ",
"                                                                                                                                ",
"                                                                                                                                ",
"                                                                                                                                ",
"                                                                                                                                ",
"                                                                                                                                ",
"                                                                                                                                ",
"                                                                                                                                ",
"                                                                                                                                ",
"                                                                                                                                ",
"                                                                                                                                ",
"           3                                                                                                                    ",
"           .                                                                                                                    ",
"                                                                                                                 3              ",
"                                                                                                                 .              ",
"                                                                                     yy                                         ",
"                                                                                  tyy                                           ",
"                                                                       d        tty                                             ",
"                                                                      d        ttttt                                            ",
"                                                                     d       tttyt ;ttyt                                        ",
"                                              :sa                   d       tttyttyyyddddy                                      ",
"                                               pi                  dd      ttyttyyddddddddy                                     ",
"                                                                  dd       dttyyddddddddddd                                     ",
"                                                                  d       yttyyyyyyydddddfj                                     ",
"                                                                 l y     ytyyytttyyddddddhg                                     ",
"                                                                lyy     ytyyt ttyyddddddddd                                     ",
"                                                               ldy     ttyt; ttyyydlllddddd                                     ",
"                                                              ddy     tttt; ytttyttdllddddd y                                   ",
"                                                             dlyt    ttt;;tyyttttttyllddyddly                                   ",
"                                                             lyy    ttt;;ydyytttttttdldddd ld                                   ",
"                                                            lyy     tt;tddddyyytttttydddyd ld                                   ",
"                                                           ldyt    t ;tdlddyyyyyttttydddyd l                                    ",
"                                                          ylyy    t ;ylldyyyyyyyyyttyddd  dl                                    ",
"                                                          lyy t  t ;ylldyyytyyyyyyt;yydy  dl                                    ",
"                                                         ldyty    &yldyytdytttyyyyt;tyd   dd                                    ",
"                                                        dlyyt    &yldytydy;&&ttyyyt; yd   d                                     ",
"                                                        lyytt    yldttddt&%%%%tyyyt;;dy   d                                     ",
"                                                       ldytt    tldttddt&%&%%%tyyyt  d    l                                     ",
"                                                      ydyyt    tddttddt;;tt;&%tdyy; yd                                          ",
"                                                      lyytt    dlttdlttydddt;%tdyt  d                                           ",
"                                                     dyyyt    ylytylytdllldy;&ydtt  d                                           ",
"                                                     dyytt   tldtylyydldlldt;&ydt; d                                            ",
"                                                    dyyyt   ;ddttddydddddddt;tdy   d                                            ",
"                                                    dtytt   ylytdlttdddyydy;;ydt;                                               ",
"                                                   dtyyt   tddtyltttddyyydt;;dd   l                                             ",
"                                                   ytyy;   ylytdtytttdytyy;;tdy;                                                ",
"                                       3          ytyyt   tddyytyytttdyty;;tddt  l                                              ",
"                                       .         yytyy;   yldytyytttddtty&ttlyt                                                 ",
"                                                 tttyy&  tdlddddyyttdy;y;&tdd   l               >1                              ",
"                                                yt yyt %%tdllddyyyyddttt&;yly; d                <u                              ",
"                                                 ttyy;&&&yddddyyyytdttt&&tdd   l                                                ",
"                                                t tyy&&&;tyyyyyyyydy;y;%tyly  l                                                 ",
"                                                  tyy&;;tttttyydyddtyy%;tld                                                     ",
"                                                  yyy&tttyttydddtdtyt&&tdl   l                                                  ",
"                                              y  tyyy;ttyytydddydytd; tyly  d                                                   ",
"                                                 tyyyttttyddddydy;lt ;tld                                                       ",
"      #qw$                                   y   tyddyyydddddydy;ly&&ydl   l                                                    ",
"      7e05X                                  y   tydddddldddyty;dy;&yyl                                                  3      ",
"      489*o                           d      t   tyddllldddyty;ddt&ytld                                                  .      ",
"      +=-@                            l     yt  ;tydddddddytt6ylt&ttdl                                                          ",
"                                      d     y   ;ttyydddyytt;rly&t dl                                                           ",
"                                      d     yt  ;;ttyyyyttt;tld&tddl                                                            ",
"                                     dd    yyt  &tttyyttt;;tld;t yld y                                                          ",
"                                     ll    ydt  ;;tttttt;;tlt;t ydd y                                                           ",
"                                     ll    ydy; &;;;ttt;ttlt;ttydl                                                              ",
"                                     lly   ydyt;;;;tyttytlttytydl                                                               ",
"                                     dldy  yddyyttyytydylttyy dl                                                                ",
"                                     dlldytttttyyyyddlylytyy dl                                                                 ",
"                                      llldyyydddytllldlyy y dd                                                                  ",
"                                      dllldddddyddddddyyty ddd d                                                                ",
"                             >1        dddddyyyyddylyyyyy ddd d                                                                 ",
"                             <u          tt ttyytdlyddyy ddl d                                                                  ",
"                                          yyyyyydd ddy  d l d                                                                   ",
"                                           y yddyyddy    l d                                                                    ",
"                                          ydddy yd yl   l d                                                                     ",
"                                       ydddddy yd  l   l                                                                        ",
"                                       yyyy  ydl  d   l                                                                         ",
"                                            ddd dd                                                                              ",
"                                         dddd  dd                                                        O2                     ",
"                                         yyy ddd                                                         ,k                     ",
"                                            dd                                          3                                       ",
"                                                                                        .                                       ",
"                                                                                                                                ",
"                                                                                                                                ",
"                                                                                                                                ",
"                                                                                                                                ",
"                                                                                                                                ",
"                                                                                                                                ",
"                                                                                                                                ",
"                                                                                                                                ",
"                                                                                                                                ",
"                                                                                                                                ",
"                                                                                                                                ",
"                                                                                                                                ",
"                                                                                                                                ",
"                                                                                                                                ",
"                                                                                                                                ",
"                                                                                                                                ",
"                                                                                                                                ",
"                                                                                                                                ",
"                                                                                                                                ",
"                                                         3                                                                      ",
"                                                         .                                                                      ",
"                                                                                                                                ",
"                                                                                                       3                        ",
"                                                                                                       .                        ",
"                                                                                                                                ",
"                                                                                                                                ",
"                                                                                                                                "
};
