/* XPM */
static char *result[] = {
/* columns rows colors chars-per-pixel */
"128 128 8 1 ",
"  c #171628",
". c #352D47",
"X c #353D4D",
"o c #3D5D63",
"O c #66A269",
"+ c #B2DD6F",
"@ c #FEE691",
"# c #FFFFEC",
/* pixels */
"                                                                                                                                ",
"                                                                                                                                ",
"                                                                                                                                ",
"                                                                                                                                ",
"                                                                                                                                ",
"                                                                                                                                ",
"                                                                                                                                ",
"                                                                                                                                ",
"                                                                                                                                ",
"                                                                                                                                ",
"                                                                                                                                ",
"                                                                                                                                ",
"                                                                                                                                ",
"                                                                                                                                ",
"                                                                                                                                ",
"                                                                                                                                ",
"                                                                                                                                ",
"                                                                                                                                ",
"                                                                                                                                ",
"                                                                                                                                ",
"                                                                                                                                ",
"                                                                                                                                ",
"                                                                                                                                ",
"                                                                                                                                ",
"                                                                                                                                ",
"                                                                                                                                ",
"                                                                                                                                ",
"                                                                                                                                ",
"                                                                                                                                ",
"                                                                                                                                ",
"                                                                                                                                ",
"                                                                                                                                ",
"                                                                                                                                ",
"                                                                                                                                ",
"                                                                                                                                ",
"                                                                                                                                ",
"                                                                                                                                ",
"                                                                                                                                ",
"                                                                                                                                ",
"                                                                                                                                ",
"                                                                                                                                ",
"                                                                                                                                ",
"                                                                                                                                ",
"                                                                                    @                                           ",
"                                                                                 #@                                             ",
"                                                                             @#@                                                ",
"                                                                           ##                                                   ",
"                                                                        ##+                   +@+@@@@@@@@@                      ",
"                                                                     @#@               + O++@@@@@++       @@                    ",
"                                                                   ##@            +OO++++@@@@@@######@                          ",
"                                                                 ##+         O++OOOOOOOO+++++++++@@####@                        ",
"                                                               ##+        +++   OOO+++++++++++++++++@@##@                       ",
"                                                             @#+       +@+  OO+++++++OOOOOOOOOOO+++  +@@#@                      ",
"                                                           @#+O     O@@O O++++++OOOOOOOO          O     @@                      ",
"                                                         +#@O     +@+oO+++++OooooX                                              ",
"                                                       O@@+    O@@+O++++OOooXoXX                                                ",
"                                                  +  @+@@O+O O@@O+@@+OOooXoooXX                                                 ",
"                                                @+ @O@@+O+OO@@O+@@+OoooooOooXXXXXoXooOO                                         ",
"                                              +@  @+@@O+OO@#++@@+OOooO+O+++++OOOOOOOOOOOoX    OO                                ",
"                                             @@ @++@++++@OO+@@+OOoOO++@@#####@@+OoXoOOOOooooooO++                               ",
"                                           +@+ @++@++++O++@@@OOoOO@@##@@@@@@###@+XX.OOOOOooOOO+++                               ",
"                                          +@+@@++@+++OO+@#@+OOO+@#@@+OOOOO+@@##@+oXXOOOOoOOO O+@@                               ",
"                                         +@+@@++@O+O++@@#@+oOO@@@+O++++@@@O+@##@OOoO+OOOOOO  O@#                                ",
"                                        +@+@@+O+OOO++@@#@+OO+@@@O+++@@##@#+@@#@+OOO++OO OO  O+@#                                ",
"                                       +@@#@+O+OOO+@@@@@+OO+@@+OOO@@@@@++O+@@@+OOO++OO OO  OO@#                                 ",
"                                      O@@O@++OOOO+@@@@@@+++++@++O@@@@@@@O+@@@+OOO+++  O+  OO+#                                  ",
"                                    @@@#+@@@+OOO+@@@@@@++++++OOo@@@@@@@O+@@++O+O+++  O+   O+                                    ",
"                                    @O@#O@@++OOO+@@@@@++++OOO++@@@@@@#++++O+OOO@++  O+   O+                                     ",
"                                +  @#+#@O@++@OOO++@@@+++OOO@@+@@@@@@O+++OO++O+@++X O+    +                                      ",
"                                + @##@#@O+++@##OO+++++OOO@@@@@@@+@#+++OoO++++@+Oo O     +                                       ",
"                               ++ @@#@##++O+@#@+OoOo++@@@@@@@++@#O+++.oO@++@@++o                                                ",
"                               @++@@#+##@OO+@#@+OoooOOO+++OO+@#O+++.XO+@+@@@O+o                                                 ",
"                               +++@@##@##@+O+@@++OooooooOO+@@O+++.XO+@@+@@@ +o                                                  ",
"                       #   @   ++O+@@#@+@#@@++O+++OOO++++++O+@+.XO+#@@@@@+@+                                                    ",
"                       #@ @@+  O+OO+@@@++OOOOOOXooOoOoOoOO++OXoO+##@@@@+@+O                                                     ",
"                       #@@@@@+  OOOOO+@@+OooXX...XXXXoO+++XoO+@##@@@@@ @+                                                       ",
"                       @#@@@@++      OO++++OOoooooOO+++OoO+O@##@@@@@ @@O                                                        ",
"                        @###@@++O      ooOOOOOOO++@+OoO+++##@@@@@@ @@+                                                          ",
"                         @#####@@++OOOOOOO+++@@@+OOO++O@@@@@@@@@ @#+                                                            ",
"                           @########@@@@@@@@++OOO+OO+@@@@@@@@@+@#@                                                              ",
"                             +@@@@@@@@@++OO OOOooO+@@@@+@@@ @@#@                                                                ",
"                                               +@@@@+@@@++@##@                                                                  ",
"                                            @@@@+++@@ ++@##+                                                                    ",
"                                       @@@@@+   @@   +@#@                                                                       ",
"                        ###@@@@@####@@@            @#@                                                                          ",
"                                                @##                                                                             ",
"                                             @#@                                                                                ",
"                                          @#@                                                                                   ",
"                                       @                                                                                        ",
"                                                                                                                                ",
"                                                                                                                                ",
"                                                                                                                                ",
"                                                                                                                                ",
"                                                                                                                                ",
"                                                                                                                                ",
"                                                                                                                                ",
"                                                                                                                                ",
"                                                                                                                                ",
"                                                                                                                                ",
"                                                                                                                                ",
"                                                                                                                                ",
"                                                                                                                                ",
"                                                                                                                                ",
"                                                                                                                                ",
"                                                                                                                                ",
"                                                                                                                                ",
"                                                                                                                                ",
"                                                                                                                                ",
"                                                                                                                                ",
"                                                                                                                                ",
"                                                                                                                                ",
"                                                                                                                                ",
"                                                                                                                                ",
"                                                                                                                                ",
"                                                                                                                                ",
"                                                                                                                                ",
"                                                                                                                                ",
"                                                                                                                                ",
"                                                                                                                                ",
"                                                                                                                                ",
"                                                                                                                                ",
"                                                                                                                                ",
"                                                                                                                                ",
"                                                                                                                                ",
"                                                                                                                                ",
"                                                                                                                                ",
"                                                                                                                                ",
"                                                                                                                                "
};
