/* XPM */
static char *result[] = {
/* columns rows colors chars-per-pixel */
"128 128 44 1 ",
"  c #171628",
". c #24192A",
"X c #241B2C",
"o c #2F1D2D",
"O c #192433",
"+ c #342532",
"@ c #5F2E3A",
"# c #722730",
"$ c #762B36",
"% c #352D47",
"& c #353D4D",
"* c #6E3541",
"= c #763542",
"- c #7E3641",
"; c #3D5D63",
": c #474647",
"> c #4C5E5C",
", c #486161",
"< c #5D726D",
"1 c #61736E",
"2 c #6C766F",
"3 c #8D3837",
"4 c #9B3A42",
"5 c #A73747",
"6 c #C64341",
"7 c #D34444",
"8 c #D64544",
"9 c #DF4D43",
"0 c #DD6441",
"q c #E36042",
"w c #F57844",
"e c #66A269",
"r c #E4B374",
"t c #B2DD6F",
"y c #6C8C83",
"u c #81A89C",
"i c #9ABCAE",
"p c #A1BFB1",
"a c #9DCCBE",
"s c #F8DF8D",
"d c #FEE691",
"f c #C7E6D2",
"g c #F9F8E5",
"h c #FFFFEC",
/* pixels */
"                                                                                                                                ",
"                                                                                                                                ",
"                                                                                                                                ",
"                                                                                                                                ",
"                                                                                                          3                     ",
"                                                                                                          .                     ",
"                                                                                                                                ",
"                                                                                                                                ",
"                                                                                                                                ",
"                                                                                                                                ",
"                                                                                                                                ",
"                                 3                                                                                              ",
"                                 .                                                                                              ",
"                                                                                                                                ",
"                                                                                                                                ",
"                                                                                                                                ",
"                                                                                                                                ",
"                                                                                  O2                                            ",
"                                                                                  ,f                                            ",
"                                                                                                                                ",
"                                                                                                                                ",
"                                                                                                                                ",
"                                                                                                                                ",
"                                                                                                                                ",
"                                                                                                                                ",
"                                                                                                                                ",
"                                                                                                                                ",
"                                                                                                                                ",
"                                                                                                                                ",
"                                                                                                                                ",
"           3                                                                                                                    ",
"           .                                                                                                                    ",
"                                                                                                                 3              ",
"                                                                                                                 .              ",
"                                                                                                                                ",
"                                                                                                                                ",
"                                                                                                                                ",
"                                                                                                                                ",
"                                                                                                                                ",
"                                              :ap                                                                               ",
"                                               iu                                                                               ",
"                                                                                                                                ",
"                                                                                         >1                                     ",
"                                                                                    d    <y                                     ",
"                                                                                 hd                                             ",
"                                                                             dhd                                                ",
"                                                                           hh                                                   ",
"                                                                        hht                   tdtddddddddd                      ",
"                                                                     dhd               t ettdddddtt       dd                    ",
"                                                                   hhd            teettttddddddhhhhhhd                          ",
"                                                                 hht         etteeeeeeeetttttttttddhhhhd                        ",
"                                                               hht        ttt   eeetttttttttttttttttddhhd                       ",
"                                                             dht       tdt  eettttttteeeeeeeeeeettt  tddhd                      ",
"                                                           dhte     edde etttttteeeeeeee          e     dd                      ",
"                                                         thde     tdt;ettttte;;;;&                                              ",
"                                                       eddt    eddtettttee;;&;&&                                                ",
"                                                  t  dtddete eddetddtee;;&;;;&&                                                 ",
"                                                dt deddteteeddetddte;;;;;e;;&&&&&;&;;ee                                         ",
"                                              td  dtddeteedhttddtee;;etettttteeeeeeeeeee;&    ee                                ",
"                                             dd dttdttttdeetddtee;eettddhhhhhddte;&;eeee;;;;;;ett                               ",
"                                           tdt dttdttttettdddee;eeddhhddddddhhhdt&&%eeeee;;eeettt                               ",
"                                          tdtddttdttteetdhdteeetdhddteeeeetddhhdt;&&eeee;eee etdd                               ",
"                                         tdtddttdetettddhdt;eedddtettttdddetdhhdee;eteeeeee  edh                                ",
"                                        tdtddteteeettddhdteetdddetttddhhdhtddhdteeettee ee  etdh                                ",
"                                       tddhdteteeetdddddteetddteeedddddttetdddteeettee ee  eedh                                 ",
"                                      erdedtteeeetddddddtttttdttedddddddetdddteeettt  et  eeth                                  ",
"                                    dddgtdddteeetddddddttttttee;dddddddetddttetettt  et   et                                    ",
"                                    dedheddtteeetdddddtttteeettddddddhtttteteeedtt  et   et     >1                              ",
"                                t  dhthdedttdeeettdddttteeeddtddddddettteettetdtt& et    t      <y                              ",
"                                t dhhdhdetttdhheettttteeedddddddtdhttte;ettttdte; e     t                                       ",
"                               tt ddhdhhttetdhdte;e;ttdddddddttdhettt%;edttddtt;                                                ",
"                               dttddhthhdeetdhdte;;;eeettteetdhettt%&etdtdddet;                                                 ",
"                               tttddhhdhhdtetddtte;;;;;;eetddettt%&etddtddd t;                                                  ",
"                       h   d   ttetddhdtdhddttettteeettttttetdt%&ethdddddtdt                                                    ",
"                       hd ddt  eteetdddtteeeeee&;;e;e;e;eette&;ethhddddtdte                                                     ",
"      #0q$             hdddddt  eeeeetddte;;&&%%%&&&&;ettt&;etdhhddddd dt                                                       ",
"      6w95X            dhddddtt      eettttee;;;;;eettte;etedhhddddd dde                                                 3      ",
"      478*o             dhhhddtte      ;;eeeeeeettdte;ettthhdddddd ddt                                                   .      ",
"      +=-@               dhhhhhddtteeeeeeetttdddteeetteddddddrdd dht                                                            ",
"                           dhhhhhhhhddddddddtteeeteetddddddddstdhd                                                              ",
"                             tdddddddddttee eee;;etddddtddd ddhd                                                                ",
"                                               tddddtdddttdhhd                                                                  ",
"                                            ddddtttdd ttdhht                                                                    ",
"                                       dddddt   dd   tdhd                                                                       ",
"                        hhhdddddhhhhddd            dhd                                                                          ",
"                                                dhh                                                                             ",
"                                             dhd                                                                                ",
"                                          dhd                                                                                   ",
"                                       d                                                                                        ",
"                             >1                                                                                                 ",
"                             <y                                                                                                 ",
"                                                                                                                                ",
"                                                                                                                                ",
"                                                                                                                                ",
"                                                                                                                                ",
"                                                                                                                                ",
"                                                                                                                                ",
"                                                                                                         O2                     ",
"                                                                                                         ,f                     ",
"                                                                                        3                                       ",
"                                                                                        .                                       ",
"                                                                                                                                ",
"                                                                                                                                ",
"                                                                                                                                ",
"                                                                                                                                ",
"                                                                                                                                ",
"                                                                                                                                ",
"                                                                                                                                ",
"                                                                                                                                ",
"                                                                                                                                ",
"                                                                                                                                ",
"                                                                                                                                ",
"                                                                                                                                ",
"                                                                                                                                ",
"                                                                                                                                ",
"                                                                                                                                ",
"                                                                                                                                ",
"                                                                                                                                ",
"                                                                                                                                ",
"                                                                                                                                ",
"                                                         3                                                                      ",
"                                                         .                                                                      ",
"                                                                                                                                ",
"                                                                                                       3                        ",
"                                                                                                       .                        ",
"                                                                                                                                ",
"                                                                                                                                ",
"                                                                                                                                "
};
